<?xml version="1.0" encoding="UTF-8" standalone="no"?>
<svg
   xmlns:dc="http://purl.org/dc/elements/1.1/"
   xmlns:cc="http://creativecommons.org/ns#"
   xmlns:rdf="http://www.w3.org/1999/02/22-rdf-syntax-ns#"
   xmlns:svg="http://www.w3.org/2000/svg"
   xmlns="http://www.w3.org/2000/svg"
   xmlns:sodipodi="http://sodipodi.sourceforge.net/DTD/sodipodi-0.dtd"
   xmlns:inkscape="http://www.inkscape.org/namespaces/inkscape"
   sodipodi:docname="DJ.svg"
   inkscape:version="1.0 (4035a4f, 2020-05-01)"
   id="svg8"
   version="1.1"
   viewBox="0 0 248.44373 146.05014"
   height="146.05014mm"
   width="248.44373mm">
  <defs
     id="defs2" />
  <sodipodi:namedview
     inkscape:window-maximized="0"
     inkscape:window-y="23"
     inkscape:window-x="0"
     inkscape:window-height="801"
     inkscape:window-width="1252"
     inkscape:snap-midpoints="true"
     fit-margin-bottom="0"
     fit-margin-right="0"
     fit-margin-left="0"
     fit-margin-top="0"
     showgrid="false"
     inkscape:document-rotation="0"
     inkscape:current-layer="layer1"
     inkscape:document-units="mm"
     inkscape:cy="382.60541"
     inkscape:cx="496.67653"
     inkscape:zoom="0.35"
     inkscape:pageshadow="2"
     inkscape:pageopacity="0.0"
     borderopacity="1.0"
     bordercolor="#666666"
     pagecolor="#ffffff"
     id="base" />
  <metadata
     id="metadata5">
    <rdf:RDF>
      <cc:Work
         rdf:about="">
        <dc:format>image/svg+xml</dc:format>
        <dc:type
           rdf:resource="http://purl.org/dc/dcmitype/StillImage" />
        <dc:title></dc:title>
      </cc:Work>
    </rdf:RDF>
  </metadata>
  <g
     transform="translate(25.579,-46.935652)"
     id="layer1"
     inkscape:groupmode="layer"
     inkscape:label="Layer 1">
    <path
       id="path24"
       d="m -25.579,178.47136 v -14.51427 l 2.17582,-0.14914 c 1.1967,-0.082 2.21866,-0.27763 2.27101,-0.43468 0.0524,-0.15705 0.3591,-0.28555 0.68167,-0.28555 0.32258,0 0.69961,-0.10859 0.83785,-0.2413 0.13825,-0.13272 0.9062,-0.30206 1.70656,-0.37631 1.83496,-0.17023 3.15786,-0.41278 3.83646,-0.70341 0.68947,-0.29527 1.74807,-0.52259 3.70417,-0.79541 0.8731204,-0.12177 2.1232804,-0.35974 2.7781204,-0.52881 0.65485,-0.16907 2.04734,-0.39699 3.09444,-0.5065 1.04709,-0.10951 2.07639,-0.34235 2.28733,-0.51741 0.21094,-0.17507 1.02111,-0.43285 1.80036003,-0.57285 0.77926,-0.14 1.95260997,-0.38802 2.60745997,-0.55116 2.11425,-0.5267 27.0618696,-1.24462 27.7447396,-0.79841 0.1982,0.12951 0.46065,0.69646 0.58321,1.25988 0.12257,0.56342 0.33224,1.53514 0.46593,2.15937 0.13369,0.62423 0.28796,1.1741 0.34282,1.22194 0.14083,0.12278 5.48347,-0.29938 6.49095,-0.5129 0.63716,-0.13504 1.02313,-0.0378 1.62934,0.41036 0.64156,0.47433 0.98996,0.55197 1.81089,0.40357 0.55907,-0.10107 1.84993,-0.23875 2.86858,-0.30596 1.01864,-0.0672 2.09021,-0.23121 2.38125,-0.36443 0.90225,-0.41302 3.20482,-0.57765 9.77378,-0.69884 4.001281,-0.0738 6.461831,-0.22278 6.680731,-0.40445 0.21874,-0.18154 0.34653,-0.90408 0.34653,-1.95938 0,-0.91947 0.11906,-1.74536 0.26458,-1.8353 0.14552,-0.0899 0.26459,-0.6777 0.26459,-1.30613 0,-1.54383 0.3847,-1.81561 1.85362,-1.30953 0.64225,0.22128 1.47019,0.56008 1.83987,0.7529 0.36967,0.19282 1.53534,0.62163 2.59036,0.95291 1.05503,0.33129 1.91823,0.70129 1.91823,0.82224 0,0.12095 0.27384,0.2199 0.60854,0.2199 0.3347,0 0.72165,0.099 0.8599,0.21998 0.13824,0.12099 0.75737,0.3639 1.37583,0.53979 0.61846,0.1759 1.12448,0.42301 1.12448,0.54915 0,0.12613 0.68461,0.43571 1.52135,0.68795 0.83675,0.25223 1.99761,0.66963 2.57969,0.92755 0.58209,0.25792 1.77271,0.72699 2.64584,1.04237 0.87312,0.31538 1.79424,0.68297 2.04693,0.81686 0.25268,0.13389 0.6694,0.24609 0.92604,0.24932 0.25663,0.003 0.76427,0.23871 1.12807,0.52328 0.3638,0.28457 0.8119,0.52005 0.99578,0.52329 0.18387,0.003 0.54106,0.10555 0.79375,0.22736 0.25268,0.12182 0.93427,0.44924 1.51464,0.72761 0.58036,0.27837 1.09812,0.73013 1.15057,1.00392 0.13163,0.68705 -0.42474,1.72497 -1.4633,2.72986 -0.615,0.59505 -0.87478,1.08684 -0.87478,1.65605 0,0.5368 -0.26477,1.08671 -0.7857,1.63181 -0.43213,0.45219 -0.85729,1.04772 -0.94479,1.32341 -0.0875,0.27569 -0.47808,0.66928 -0.86794,0.87464 -0.38987,0.20537 -1.15562,0.79937 -1.70166,1.32002 -0.54604,0.52064 -1.08832,0.94662 -1.20506,0.94662 -0.11675,0 -0.63542,0.38759 -1.1526,0.8613 -0.51718,0.47373 -1.28459,1.03927 -1.70535,1.25678 -0.92938,0.48042 -1.19209,0.67704 -2.41772,1.80948 -0.52671,0.48667 -1.20377,0.99572 -1.50457,1.13123 -0.65599,0.29553 -2.12478,1.34583 -3.12429,2.23411 -0.39893,0.35453 -0.82206,0.6446 -0.94029,0.6446 -0.11824,0 -0.62528,0.42602 -1.12677,0.94672 -0.50149,0.5207 -1.32689,1.12169 -1.83423,1.33555 -0.50734,0.21385 -1.16218,0.61317 -1.45521,0.88739 -0.29303,0.27421 -1.27447,1.01267 -2.18097,1.64102 -0.90651,0.62834 -2.78169,1.94612 -4.16707,2.92838 l -2.51886,1.78594 H 16.88675 -25.579 Z m 95.418901,14.1174 c 0.0838,-0.21828 0.28839,-0.39772 0.45472,-0.39875 0.16633,-0.001 0.77867,-0.47145 1.36076,-1.04536 0.58208,-0.5739 1.18488,-1.04931 1.33956,-1.05645 0.15467,-0.007 0.62343,-0.37016 1.04169,-0.80673 0.41825,-0.43656 0.87769,-0.79375 1.02098,-0.79375 0.14329,0 0.98422,-0.66022 1.86873,-1.46716 1.95682,-1.78521 4.69493,-4.11895 6.50497,-5.5443 0.73918,-0.58208 2.15205,-1.7727 3.13972,-2.64583 0.98766,-0.87312 2.36234,-2.00422 3.05485,-2.51354 0.69251,-0.50932 1.9618,-1.55112 2.82065,-2.31511 0.85885,-0.76398 1.66312,-1.38906 1.78727,-1.38906 0.12415,0 0.57167,-0.29751 0.99449,-0.66113 0.42281,-0.36363 0.85736,-0.66128 0.96565,-0.66146 0.1083,-1.8e-4 0.7255,-0.52144 1.37156,-1.15835 1.40114,-1.3813 2.41933,-1.62234 3.877349,-0.9179 0.55601,0.26863 1.13212,0.48843 1.28024,0.48843 0.24455,0 1.88648,0.84348 2.53437,1.30194 0.14552,0.10298 1.09802,0.5158 2.11667,0.9174 1.01864,0.40159 2.36128,0.9595 2.98364,1.23979 0.62235,0.28029 1.25363,0.50962 1.40283,0.50962 0.14921,0 1.18782,0.45206 2.30803,1.00458 1.12021,0.55252 2.54276,1.16689 3.16123,1.36527 0.61846,0.19837 1.12448,0.43469 1.12448,0.52515 0,0.0905 0.56529,0.33138 1.25621,0.53538 0.69091,0.20401 1.99045,0.76748 2.88787,1.25217 0.89741,0.48469 2.08828,1.04291 2.64639,1.24049 0.5581,0.19758 1.6621,0.67212 2.45331,1.05455 0.79122,0.38243 1.63985,0.69532 1.88584,0.69532 0.24599,0 0.59042,0.17251 0.7654,0.38334 0.17497,0.21084 0.7551,0.52646 1.28916,0.70138 0.53407,0.17492 1.74493,0.73886 2.69082,1.2532 1.49837,0.81477 1.96391,0.93737 3.61598,0.95227 1.65555,0.0149 1.98292,-0.0643 2.57968,-0.62433 1.49516,-1.40314 0.36644,-3.24697 -2.69539,-4.40307 -0.97926,-0.36975 -2.25673,-0.89908 -2.83881,-1.17628 -0.58209,-0.2772 -1.56435,-0.65702 -2.18282,-0.84405 -0.61846,-0.18702 -1.12448,-0.43012 -1.12448,-0.54021 0,-0.11009 -0.19197,-0.20016 -0.4266,-0.20016 -0.23463,0 -1.63361,-0.54726 -3.10885,-1.21613 -4.40615,-1.99773 -4.93393,-2.22346 -5.19866,-2.22346 -0.13931,0 -0.99066,-0.35719 -1.89189,-0.79375 -0.90123,-0.43656 -1.85563,-0.79375 -2.12088,-0.79375 -0.26526,0 -0.48228,-0.11906 -0.48228,-0.26458 0,-0.14552 -0.25662,-0.26458 -0.57026,-0.26458 -0.31363,0 -1.80682,-0.62392 -3.3182,-1.38647 -3.14683,-1.58773 -3.39571,-1.95916 -2.5062,-3.74024 0.72918,-1.46004 0.52966,-2.40376 -0.45544,-2.15422 -2.30747,0.58453 -3.73324,0.455 -3.73324,-0.33917 0,-0.45633 2.61242,-3.1997 3.48306,-3.65766 0.24219,-0.12739 0.95657,-0.70787 1.5875,-1.28995 0.63093,-0.58209 1.46539,-1.22237 1.85435,-1.42285 0.38895,-0.20049 1.26512,-0.82556 1.94703,-1.38907 1.23705,-1.02223 1.24531,-1.02456 3.65843,-1.03392 2.63465,-0.0102 2.97143,-0.1302 4.65028,-1.65682 0.98572,-0.89635 2.92304,-4.09767 2.9264,-4.83572 0.002,-0.33495 3.2788,-3.55225 3.61847,-3.55225 0.48752,0 4.05573,-3.86395 4.05573,-4.39187 0,-1.01511 -1.07205,-1.69355 -2.67611,-1.69355 -0.79826,0 -1.58661,0.13522 -1.75188,0.30049 -0.22426,0.22427 -0.39994,0.20104 -0.69254,-0.0916 -0.289,-0.28901 -0.42886,-1.2894 -0.53213,-3.80622 -0.14164,-3.45228 -0.42005,-5.91955 -0.96744,-8.57355 -0.16508,-0.80037 -0.39136,-2.52677 -0.50284,-3.83646 -0.14007,-1.6455 -0.4179,-2.87175 -0.89922,-3.96875 -0.87728,-1.99947 -0.94789,-4.18319 -0.1837,-5.68113 0.28896,-0.56641 0.64326,-1.1027 0.78734,-1.19174 0.14408,-0.089 0.70608,-0.84126 1.2489,-1.6716 0.54282,-0.83033 1.37914,-1.92294 1.85849,-2.42802 0.47935,-0.50509 0.87155,-1.01608 0.87155,-1.13555 0,-0.11947 0.21132,-0.44403 0.4696,-0.72126 0.71575,-0.76828 1.91165,-3.10391 1.91165,-3.73354 0,-0.30768 0.34374,-1.29082 0.76386,-2.18475 0.42012,-0.893927 0.82952,-1.982517 0.90976,-2.419077 0.20718,-1.1271 0.59189,-2.62596 1.22091,-4.75677 0.29978,-1.0155 0.54505,-2.16662 0.54505,-2.55805 0,-0.39143 0.0723,-0.90002 0.1606,-1.13021 0.17375,-0.45276 1.15454,-0.55411 1.89351,-0.19565 0.25269,0.12257 1.05475,0.49176 1.78235,0.82042 0.72761,0.32866 1.52966,0.70463 1.78235,0.83548 0.25269,0.13085 0.63964,0.23791 0.8599,0.23791 0.22025,0 0.40046,0.11906 0.40046,0.26458 0,0.14552 0.23813,0.26458 0.52917,0.26458 0.29104,0 0.52916,0.11907 0.52916,0.26459 0,0.14552 0.16868,0.26458 0.37483,0.26458 0.20615,0 0.42227,0.14234 0.48026,0.31631 0.058,0.17397 0.81206,0.39855 1.6757,0.49907 1.61047,0.18745 3.56889,0.55217 5.6713,1.05618 0.65484,0.15698 1.84547,0.37599 2.64583,0.48668 0.80037,0.11069 1.99099,0.39754 2.64583,0.63745 0.84961,0.31126 2.07624,0.43729 4.28259,0.44004 l 3.09195,0.004 2.99346,-1.51524 c 1.64641,-0.83338 3.05299,-1.57816 3.12575,-1.65506 0.0728,-0.0769 0.60855,-0.29588 1.19063,-0.48662 1.38641,-0.45432 2.44448,-0.87655 4.69347,-1.87297 0.68964,-0.30554 1.54996,-0.55553 1.91183,-0.55553 0.36188,0 1.04778,-0.23768 1.52424,-0.52818 0.47646,-0.2905 1.1771,-0.52862 1.55698,-0.52916 0.37987,-5.3e-4 1.09425,-0.27031 1.5875,-0.59947 0.49324,-0.32917 1.49213,-0.89471 2.21973,-1.25677 0.7276,-0.36206 1.38245,-0.71802 1.45521,-0.79101 0.0728,-0.073 0.45971,-0.30147 0.85989,-0.50773 0.40019,-0.20626 0.72761,-0.47396 0.72761,-0.59489 0,-0.12093 0.16014,-0.21987 0.35587,-0.21987 0.19572,0 0.57136,-0.23813 0.83475,-0.52917 0.26339,-0.29104 0.62058,-0.52917 0.79375,-0.52917 0.17318,0 0.52426,-0.23137 0.78018,-0.51417 0.25593,-0.28279 0.79782,-0.5872 1.2042,-0.67645 0.40638,-0.0893 0.94827,-0.39366 1.2042,-0.67646 0.55656,-0.615 1.25736,-0.66065 1.80071,-0.11729 0.53499,0.53499 1.02666,0.49945 1.82979,-0.13229 0.36999,-0.29105 0.97163,-0.52917 1.33695,-0.52917 0.36533,0 0.85257,-0.0723 1.08275,-0.1606 0.76424,-0.29326 0.43306,-0.63315 -0.61693,-0.63315 -0.91001,0 -1.13437,-0.13452 -1.85208,-1.11046 -0.44915,-0.61076 -0.81664,-1.40425 -0.81664,-1.76332 0,-0.85527 1.56666,-4.13606 2.78466,-5.83142 0.87849,-1.2228 0.9629,-1.49614 0.96665,-3.13033 0.007,-2.86026 0.85425,-3.80456 2.05032,-2.28402 0.65366,0.831 0.71526,2.2784 0.15412,3.62139 -0.21683,0.51896 -0.3249,1.12428 -0.24014,1.34516 0.36003,0.93821 2.27326,0.76415 3.09589,-0.28166 0.26579,-0.33789 1.69592,-1.32983 3.17806,-2.20431 1.48215,-0.87448 3.11153,-1.94693 3.62086,-2.38322 0.50932,-0.43629 1.01509,-0.79353 1.12394,-0.79387 0.10885,-3.5e-4 0.70351,-0.47688 1.32148,-1.05896 0.61797,-0.58208 1.26032,-1.058331 1.42744,-1.058331 0.16712,0 0.36651,-0.16328 0.44309,-0.36283 0.2059,-0.53657 1.52038,-0.79809 1.91097,-0.38018 0.43944,0.47019 -0.33636,2.831441 -1.0619,3.232061 -0.78366,0.43271 -2.25461,2.05853 -2.25461,2.49199 0,0.20885 -0.40885,0.94882 -0.90857,1.64438 -0.49971,0.69557 -1.14524,1.72182 -1.43452,2.28056 -0.28927,0.55874 -1.24963,1.72654 -2.13414,2.59512 -0.8845,0.86856 -1.60818,1.68224 -1.60818,1.80816 0,0.12592 -0.61277,0.871 -1.36171,1.65572 -0.74894,0.78472 -1.56781,1.75698 -1.8197,2.16058 -0.2519,0.4036 -0.88929,1.14413 -1.41642,1.64562 -0.52713,0.50149 -0.95842,1.04889 -0.95842,1.21645 0,0.38278 -3.20534,3.56029 -3.59147,3.56029 -0.15677,0 -0.57369,0.31068 -0.92648,0.69039 -0.35278,0.37972 -0.84229,0.76667 -1.08779,0.8599 -0.2455,0.0932 -1.43613,1.13414 -2.64584,2.31315 -1.2097,1.179 -2.34493,2.19103 -2.52271,2.24896 -0.17779,0.0579 -2.03527,1.80195 -4.12775,3.87562 -2.09247,2.07367 -3.90502,3.770307 -4.0279,3.770307 -0.12287,0 -0.52757,0.28068 -0.89934,0.62373 -0.37176,0.34305 -1.21081,0.9086 -1.86454,1.25677 -0.65374,0.34817 -1.36811,0.83724 -1.5875,1.08682 -0.46181,0.52535 -3.32721,2.05977 -3.84645,2.05977 -0.1931,0 -0.51426,0.16315 -0.71367,0.36256 -0.19941,0.19941 -0.73778,0.5566 -1.19637,0.79375 -0.4586,0.23714 -0.92902,0.59746 -1.0454,0.8007 -0.55924,0.9767 -2.30696,1.61331 -4.97388,1.81175 -1.45532,0.10829 -3.59854,0.31628 -4.76271,0.4622 -5.64685,0.70778 -13.31203,1.38592 -16.12901,1.42692 l -2.10609,0.0307 -0.53974,0.95406 c -1.1141,1.96929 -1.51124,2.15781 -2.92099,1.38655 -0.80168,-0.43858 -4.54993,-0.58532 -5.69204,-0.22284 -0.60124,0.19083 -0.93184,1.58574 -0.67425,2.84491 0.17276,0.84448 0.46449,4.9073 0.88117,12.27168 0.12088,2.13643 0.34347,3.89945 0.51905,4.11101 0.18699,0.22531 0.35883,1.86939 0.43866,4.1969 0.0722,2.10456 0.25182,5.01711 0.39919,6.47231 0.30614,3.02303 0.33749,4.34217 0.11186,4.70725 -0.0866,0.14015 -0.13463,1.92498 -0.1067,3.9663 0.038,2.77651 0.15546,3.9139 0.46628,4.51498 0.57521,1.11231 0.91345,2.21413 1.10902,3.61252 l 0.16651,1.19062 3.57187,-0.0719 c 5.17003,-0.10413 11.85282,-0.0805 22.15886,0.0782 l 9.06198,0.13961 0.0193,-0.999 c 0.0106,-0.54945 0.22866,-1.35619 0.4845,-1.79275 l 0.46517,-0.79375 13.20768,-0.0704 c 11.41906,-0.0609 13.4585,-0.0123 15.05977,0.35898 1.01865,0.23617 2.62599,0.53367 3.57188,0.66111 2.67536,0.36045 4.26197,0.68573 5.55625,1.13912 0.65484,0.22939 1.93638,0.4188 2.84786,0.42092 0.91148,0.002 1.86398,0.1083 2.11666,0.23595 0.7025,0.35491 2.29597,0.82623 2.79332,0.82623 0.41103,0 0.44424,1.19651 0.44424,16.0073 v 16.00729 h -76.58858 c -67.970029,0 -76.571429,-0.0447 -76.436269,-0.39688 z m 11.47277,-36.89335 c -0.3638,-0.1117 -1.52169,-0.63725 -2.57309,-1.16789 -1.05139,-0.53064 -2.04116,-0.9648 -2.19948,-0.9648 -0.15832,0 -1.08403,-0.36882 -2.05713,-0.81961 -0.97309,-0.45078 -2.06692,-0.94092 -2.43072,-1.0892 -0.3638,-0.14828 -0.89958,-0.39613 -1.19062,-0.55078 -0.29105,-0.15466 -1.58372,-0.79985 -2.87261,-1.43378 -1.28889,-0.63392 -2.50928,-1.31843 -2.71198,-1.52112 -0.46203,-0.46204 -0.48931,-2.82575 -0.0378,-3.27658 0.29749,-0.29706 0.73018,-9.9594 0.76306,-17.03966 0.005,-0.98227 0.063,-1.78594 0.12977,-1.78594 0.30898,0 1.14473,1.02915 1.65061,2.03257 0.30682,0.60859 0.67573,1.17938 0.81981,1.26843 0.14408,0.089 0.70542,0.84126 1.24742,1.67159 0.542,0.83034 1.60095,2.34314 2.35321,3.36179 0.75226,1.01864 1.58014,2.2688 1.83973,2.77812 0.25959,0.50933 0.62862,1.04511 0.82007,1.19063 0.19145,0.14552 1.13764,1.51474 2.10265,3.04271 0.96501,1.52797 1.83206,2.83765 1.92678,2.91041 0.0947,0.0728 0.34097,0.45972 0.54723,0.8599 0.20626,0.40018 0.47396,0.7276 0.59489,0.7276 0.12093,0 0.21988,0.14232 0.21988,0.31625 0,0.17394 0.31265,0.6426 0.69479,1.04147 0.71419,0.74544 0.89004,1.00943 1.8476,2.77359 0.6757,1.24487 1.01446,4.31766 0.58091,5.2692 -0.30913,0.67846 -0.83719,0.78205 -2.06497,0.4051 z m 2.85783,-7.09363 c -0.37442,-0.40018 -0.89044,-1.14432 -1.14672,-1.65364 -0.25629,-0.50933 -0.86343,-1.3919 -1.34921,-1.96129 -0.48579,-0.56938 -0.95955,-1.44197 -1.05281,-1.9391 -0.10858,-0.57877 -0.38502,-1.00203 -0.7686,-1.1768 -0.32946,-0.15011 -0.76093,-0.5872 -0.95882,-0.97131 -0.19789,-0.38411 -0.5114,-0.85849 -0.69669,-1.05417 -0.1853,-0.19569 -0.51578,-0.70171 -0.7344,-1.12448 -0.21863,-0.42278 -0.51045,-0.76869 -0.6485,-0.76869 -0.13805,0 -0.43318,-0.35231 -0.65585,-0.78291 -0.22268,-0.43061 -0.70199,-1.08004 -1.06513,-1.44318 -0.50481,-0.50481 -0.66027,-0.93564 -0.66027,-1.82985 0,-1.07203 -0.0624,-1.18206 -0.74818,-1.31921 -0.48601,-0.0972 -1.01911,-0.54048 -1.52135,-1.26503 -0.42525,-0.61346 -0.95177,-1.37139 -1.17005,-1.68428 -0.21828,-0.31288 -0.75407,-1.14305 -1.19063,-1.84481 -0.43656,-0.70177 -1.1807,-1.74812 -1.65364,-2.32524 -0.47295,-0.57712 -0.8599,-1.1486 -0.8599,-1.26996 0,-0.12135 -0.20338,-0.42402 -0.45195,-0.67259 -0.49608,-0.49608 -0.56139,-2.08613 -0.23296,-5.67127 0.2233,-2.43754 -0.0971,-3.21461 -1.43782,-3.48762 -0.50599,-0.10302 -1.45576,-0.32642 -2.1106,-0.49645 -0.65485,-0.17001 -1.96453,-0.35983 -2.91042,-0.42181 -1.631421,-0.10689 -1.770631,-0.16993 -2.709191,-1.22684 l -0.9894,-1.11416 -4.16997,-0.18037 c -3.96139,-0.17135 -5.55445,-0.36863 -8.27102,-1.02424 -3.1781,-0.767 -7.65158,-1.0845 -10.83128,-0.76874 -0.50189,0.0498 -1.08753,-0.152 -1.65364,-0.56993 -1.1032,-0.81443 -2.87162,-1.67075 -4.58071,-2.21811 -2.96586,-0.94987 -11.60858,-5.66448 -13.81331,-7.535167 -0.17576,-0.14913 -0.38974,-0.27115 -0.47552,-0.27115 -0.0858,0 -0.69942,-0.53578 -1.36366,-1.19062 -0.66424,-0.65485 -1.3065296,-1.19063 -1.4273196,-1.19063 -0.12078,0 -0.8999,-0.59531 -1.73138,-1.32291 -0.83147,-0.72761 -1.66241,-1.32292 -1.84652,-1.32292 -0.18411,0 -0.81579,-0.47625 -1.40371,-1.05833 -0.58794,-0.58209 -1.15168,-1.05834 -1.25276,-1.05834 -0.10108,0 -0.55257,-0.28128 -1.0033,-0.62507 -0.45073,-0.34379 -1.41447,-0.89381 -2.14163997,-1.22228 -0.91176,-0.41185 -2.32813003,-1.58918 -4.56328003,-3.79315 -1.78263,-1.75776 -3.24151,-3.32109 -3.24197,-3.47407 -10e-4,-0.35774 -4.2028604,-4.64376 -4.5525104,-4.64376 -0.14525,0 -1.01667,-0.72665 -1.93649,-1.61478 -0.91983,-0.88813 -1.94926,-1.79909 -2.28764,-2.02436 -1.0334,-0.68796 -2.33503,-2.0016 -2.33503,-2.35656 0,-0.18461 -0.92021,-1.2294 -2.0449,-2.32175 -1.24393,-1.20816 -1.94346,-2.0738 -1.78594,-2.21 0.14243,-0.12314 0.85427,-0.36475 1.58188,-0.53691 1.17442,-0.27789 1.53081,-0.24604 3.175,0.2837 1.78754,0.57593 2.4379,0.90719 5.29167,2.69528 1.4,0.87721 2.07336,1.2082 3.5718704,1.75578 0.50932,0.18611 1.43526,0.69686 2.05764,1.135 0.85638,0.60286 1.43554,0.80055 2.38125,0.81279 l 1.24965,0.0162 -0.051,-0.92604 c -0.028,-0.50932 -0.11861,-1.45101 -0.20127,-2.09263 -0.1658,-1.28695 0.23338,-2.16417 1.22671,-2.69578 0.96683,-0.51743 1.53908003,0.47984 1.53908003,2.68216 0,1.25066 0.12172,1.92558 0.39688,2.20075 0.21828,0.21828 0.39687,0.52605 0.39687,0.68394 0,0.15789 0.10518,0.49382 0.23372,0.74651 0.12854,0.25268 0.38571,0.78484 0.57147997,1.18257 0.18578,0.39772 0.52709,0.9335 0.75848,1.19062 0.27607,0.30678 0.45057,1.09976 0.5076,2.3067 0.0478,1.01157 0.25303,2.16048 0.45608,2.55313 0.52302,1.0114 2.48313,2.61912 3.1932,2.61912 0.32902,0 0.6718,0.11906 0.76174,0.26458 0.0899,0.14552 0.33638,0.26458 0.54766,0.26458 0.64627,0 5.6470296,2.36523 6.4637896,3.0572 0.54891,0.46504 3.66505,1.88449 4.63021,2.10913 0.43657,0.10161 1.56766,0.24054 2.51355,0.30874 0.94588,0.0682 1.8329,0.23343 1.97114,0.36717 0.13825,0.13375 0.46728,0.24318 0.7312,0.24318 0.26391,0 0.68658,0.11962 0.93927,0.26583 0.25268,0.14621 1.65005,0.67164 3.10526,1.16762 4.26456,1.45352 4.93378,1.71783 6.78557,2.67997 1.73871,0.90339 1.79677,0.91366 5.16311,0.91366 2.74566,0 3.68484,-0.10242 4.85236,-0.52916 0.98705,-0.36078 2.10671,-0.52917 3.51856,-0.52917 1.32174,0 2.66299,-0.18732 3.7079,-0.51786 0.90039,-0.28482 2.11333,-0.63438 2.69542,-0.77679 4.09672,-1.00228 5.586151,-1.56651 7.295261,-2.76362 0.34523,-0.2418 1.12995,-0.43965 1.74383,-0.43965 0.61387,0 1.18972,-0.11906 1.27966,-0.26458 0.0899,-0.14552 0.67382,-0.26458 1.29752,-0.26458 0.79799,0 1.27591,-0.1568 1.6129,-0.52917 0.4439,-0.49051 0.8149,-0.52917 5.07863,-0.52917 4.0776,0 4.71748,-0.0601 5.63699,-0.52916 0.7162,-0.36538 1.55939,-0.52917 2.72416,-0.52917 1.52272,0 1.80176,-0.0895 2.86673,-0.91919 0.98027,-0.76372 1.64762,-1.01139 3.94572,-1.46435 1.52125,-0.29984 2.93811,-0.71737 3.14859,-0.92785 0.37024,-0.37024 0.62537,-1.70572 0.95957,-5.02299 0.21112,-2.09567 -0.21129,-2.77196 -1.41895,-2.27173 -0.85334,0.35347 -1.76929,0.19835 -2.36879,-0.40115 -0.63175,-0.63175 -1.61207,-3.10712 -1.90158,-4.8016 -0.15539,-0.9095 -0.40159,-2.34542 -0.54712,-3.19093 -0.56076,-3.25817 -0.39567,-4.33932 1.08089,-7.078331 0.74001,-1.37271 1.49842,-2.58537 1.68537,-2.6948 0.18694,-0.10943 0.60349,-0.71979 0.92566,-1.35636 0.32217,-0.63657 1.13364,-1.94625 1.80328,-2.91042 0.66963,-0.96416 1.46021,-2.1102 1.75683,-2.54676 0.91566,-1.34766 2.89237,-3.3073 3.33611,-3.3073 0.23186,0 0.82501,-0.29765 1.31812,-0.66145 0.787,-0.58064 1.16536,-0.66146 3.096509,-0.66146 2.08345,0 2.24396,0.042 3.03055,0.79375 0.45682,0.43656 0.94853,0.79375 1.09268,0.79375 0.31384,0 5.48026,5.16686 5.48026,5.48072 0,0.12023 0.63194,0.90854 1.40431,1.75179 0.77237,0.84325 1.63154,1.97191 1.90926,2.50815 0.27773,0.53623 0.96467,1.43963 1.52655,2.00756 0.80048,0.8091 1.08217,1.35314 1.30144,2.51354 0.33229,1.758611 0.32951,2.191441 -0.0308,4.788241 -0.53724,3.87171 -0.76332,5.17513 -1.1244,6.48229 -0.34932,1.26463 -0.40427,1.32108 -1.24701,1.28104 -0.56357,-0.0268 -1.15905,-0.3077 -1.65075,-0.77877 -0.5735,-0.54945 -0.8455,-0.66056 -1.06928,-0.43678 -0.39408,0.39408 0.0998,4.37767 0.68096,5.49217 0.22723,0.43579 0.41388,1.12759 0.41477,1.53734 0.002,0.87863 0.38307,1.67178 1.20359,2.50458 0.4585,0.46537 1.07114,0.66108 2.673,0.85387 1.14299,0.13757 2.55442,0.42621 3.1365,0.64141 0.58208,0.21521 1.3905,0.39652 1.79648,0.40291 0.40598,0.006 1.20491,0.24973 1.7754,0.54078 0.57049,0.29104 1.54801,0.52935 2.17227,0.52957 2.41931,8e-4 3.82719,1.44913 3.17149,3.26243 -0.17417,0.48168 -0.31668,1.48826 -0.31668,2.23685 0,1.13501 -0.13183,1.51121 -0.79375,2.2651 -0.43656,0.49721 -0.79375,1.00909 -0.79375,1.1375 0,0.12841 -1.51805,1.74232 -3.37344,3.58647 -2.75785,2.741127 -3.63274,3.450157 -4.79443,3.885497 -0.78154,0.29287 -1.59767,0.78475 -1.81361,1.09305 -0.3562,0.50854 -0.55576,0.54482 -2.15089,0.39096 -1.94327,-0.18745 -4.99781,-1.4707 -5.25378,-2.20719 -0.31727,-0.91289 -2.1246,-2.484597 -3.7529,-3.263627 -1.4947,-0.71511 -1.8652,-0.78935 -3.175,-0.63623 -0.81555,0.0953 -1.52251,0.28829 -1.57102,0.42877 -0.0485,0.14049 -0.30959,0.25543 -0.58019,0.25543 -0.819409,0 -2.367209,1.070557 -2.819379,1.950067 -0.23414,0.45543 -0.95381,1.41721 -1.59927,2.13729 -1.12695,1.25724 -1.16827,1.36234 -1.0404,2.64584 0.21269,2.13467 0.47834,3.1442 1.00512,3.81967 0.27066,0.34705 0.49211,0.83175 0.49211,1.07711 0,0.24537 0.83855,1.25925 1.86346,2.25307 l 1.86346,1.80695 -0.73898,0.77291 c -0.69278,0.72458 -0.73899,0.91647 -0.73899,3.06906 0,1.61618 -0.12719,2.53122 -0.4295,3.08991 -0.23623,0.43656 -0.51954,1.0914 -0.62958,1.45521 -0.11004,0.3638 -0.66091,1.6272 -1.22414,2.80757 -0.56324,1.18036 -1.02407,2.2696 -1.02407,2.42053 0,0.15093 -0.37453,0.97111 -0.83228,1.82263 -0.45776,0.85152 -1.09909,2.08401 -1.42518,2.73885 -0.32609,0.65484 -0.84453,1.41744 -1.15209,1.69465 -0.30756,0.27722 -0.5592,0.71956 -0.5592,0.98298 0,0.26343 -0.34858,0.87596 -0.77462,1.3612 -0.50428,0.57435 -0.80437,1.23765 -0.85989,1.90064 -0.0485,0.57924 -0.25642,1.09753 -0.48216,1.20191 -1.33665,0.61805 -1.46186,0.76222 -1.6345,1.88205 -0.26795,1.73812 -0.53544,2.73368 -0.77728,2.89294 -0.11894,0.0783 -0.29384,0.85223 -0.38866,1.71979 -0.16461,1.506 -0.67748,2.76801 -1.1249,2.76801 -0.11494,0 -0.51533,-0.32742 -0.88974,-0.72761 z m 13.2504,-7.51231 c -0.0732,-0.83888 0.16386,-1.24291 1.70955,-2.91325 0.895999,-0.96826 1.999219,-2.18865 2.451599,-2.71198 0.657,-0.76004 1.01204,-0.95152 1.7643,-0.95152 1.40767,0 1.77882,0.22654 1.77882,1.08575 0,0.58061 -0.40192,1.17851 -1.67064,2.48523 -0.99238,1.02211 -1.89227,1.72069 -2.21656,1.72069 -0.30026,0 -0.69245,0.17655 -0.87154,0.39234 -0.17909,0.21579 -0.699689,0.50054 -1.156879,0.63277 -0.45719,0.13223 -1.03962,0.3256 -1.29428,0.42971 -0.30234,0.1236 -0.4739,0.0647 -0.49437,-0.16974 z"
       style="fill:#000000;stroke-width:0.264583" />
  </g>
</svg>
