<?xml version="1.0" encoding="UTF-8" standalone="no"?>
<svg
   xmlns:dc="http://purl.org/dc/elements/1.1/"
   xmlns:cc="http://creativecommons.org/ns#"
   xmlns:rdf="http://www.w3.org/1999/02/22-rdf-syntax-ns#"
   xmlns:svg="http://www.w3.org/2000/svg"
   xmlns="http://www.w3.org/2000/svg"
   xmlns:sodipodi="http://sodipodi.sourceforge.net/DTD/sodipodi-0.dtd"
   xmlns:inkscape="http://www.inkscape.org/namespaces/inkscape"
   sodipodi:docname="evo1.svg"
   inkscape:version="1.0 (4035a4f, 2020-05-01)"
   id="svg8"
   version="1.1"
   viewBox="0 0 187.13241 180.13606"
   height="180.13606mm"
   width="187.13242mm">
  <defs
     id="defs2" />
  <sodipodi:namedview
     inkscape:window-maximized="0"
     inkscape:window-y="23"
     inkscape:window-x="0"
     inkscape:window-height="811"
     inkscape:window-width="1252"
     showgrid="false"
     inkscape:document-rotation="0"
     inkscape:current-layer="layer1"
     inkscape:document-units="mm"
     inkscape:cy="479.22338"
     inkscape:cx="754.18523"
     inkscape:zoom="0.35"
     inkscape:pageshadow="2"
     inkscape:pageopacity="0.0"
     borderopacity="1.0"
     bordercolor="#666666"
     pagecolor="#ffffff"
     id="base" />
  <metadata
     id="metadata5">
    <rdf:RDF>
      <cc:Work
         rdf:about="">
        <dc:format>image/svg+xml</dc:format>
        <dc:type
           rdf:resource="http://purl.org/dc/dcmitype/StillImage" />
        <dc:title></dc:title>
      </cc:Work>
    </rdf:RDF>
  </metadata>
  <g
     transform="translate(93.711512,-21.372146)"
     id="layer1"
     inkscape:groupmode="layer"
     inkscape:label="Layer 1">
    <path
       id="path76"
       d="m -16.468712,200.75841 c -14.88116,-1.53023 -14.06636,-0.33954 -14.39975,-21.04273 -0.16562,-10.28426 0.60048,-22.04695 1.70245,-26.13932 1.7413,-6.46671 1.57017,-7.75757 -1.30734,-9.86166 -4.35304,-3.18302 -6.8049,-2.18468 -8.05517,3.27987 -0.66587,2.91037 -5.3593,7.33499 -13.51065,12.73688 -17.22018,11.41178 -20.12094,19.94646 -9.98796,29.38676 4.98381,4.64314 3.06474,9.21356 -3.86867,9.21356 -8.46265,0 -11.1081,-1.71973 -15.19532,-9.87801 -2.09034,-4.17242 -5.78507,-9.70726 -8.21051,-12.29965 l -4.40988,-4.71345 15.64216,-15.26794 c 17.74601,-17.32145 16.72404,-15.48668 12.19789,-21.89903 -17.0552,-24.16262 -16.08579,-30.19139 8.91904,-55.46766 18.89877,-19.103921 29.86447,-27.435933 42.52658,-32.312768 4.4373999,-1.70907 12.2042599,-7.03065 17.2596949,-11.825728 14.7414401,-13.98227 26.5962201,-16.761938 39.0647001,-9.15976 5.6919,3.470417 6.79065,5.378304 6.10821,10.606347 -0.16611,1.27252 1.97128,4.269078 4.74975,6.65902 9.28062,7.982848 -0.13982,26.907006 -10.449,20.990357 -6.75211,-3.875184 -6.82712,-3.717519 -5.17936,10.887627 0.77322,6.853633 0.96203,15.773231 0.41958,19.821332 -1.24277,9.274203 1.36459,11.906543 27.23962,27.500573 23.1841,13.97229 33.84292,29.40415 26.16754,37.88537 -5.31324,5.87105 -15.50666,3.63136 -15.50666,-3.40712 0,-4.89016 -13.08161,-18.78469 -17.68567,-18.78469 -5.50788,0 -5.6639,-1.23957 2.74775,21.8298 12.00148,32.91466 11.82632,36.94073 -1.60713,36.94073 -9.54819,0 -12.60461,-2.45135 -9.43297,-7.56557 2.21193,-3.56671 2.10632,-4.35712 -0.87331,-6.53588 -2.83439,-2.07256 -3.02069,-3.06912 -1.13748,-6.08463 3.49576,-5.5976 2.94533,-6.9952 -8.04615,-20.43007 -9.36151,-11.44255 -13.92265,-15.95391 -26.42604,-26.1376 -3.4806101,-2.83487 -4.0132501,-4.68022 -3.2655501,-11.31373 0.9080101,-8.05584 -4.32267,-17.13734 -10.17932504,-17.67332 -6.96206996,-0.63713 -11.77378986,1.18249 -16.49684986,6.23854 -5.94446,6.36357 -6.09471,5.67542 5.10437,23.37837 7.2075699,11.39337 7.8461199,17.52651 3.7924799,36.42581 -3.1478599,14.67633 -2.2353699,18.19763 5.10384,19.69575 33.5911751,6.85682 23.0028251,18.07876 -13.5149099,14.32362 z"
       style="fill:#000000;stroke-width:1.83834" />
  </g>
</svg>
