<?xml version="1.0" encoding="UTF-8" standalone="no"?>
<svg
   xmlns:dc="http://purl.org/dc/elements/1.1/"
   xmlns:cc="http://creativecommons.org/ns#"
   xmlns:rdf="http://www.w3.org/1999/02/22-rdf-syntax-ns#"
   xmlns:svg="http://www.w3.org/2000/svg"
   xmlns="http://www.w3.org/2000/svg"
   xmlns:sodipodi="http://sodipodi.sourceforge.net/DTD/sodipodi-0.dtd"
   xmlns:inkscape="http://www.inkscape.org/namespaces/inkscape"
   sodipodi:docname="evo2.svg"
   inkscape:version="1.0 (4035a4f, 2020-05-01)"
   id="svg8"
   version="1.1"
   viewBox="0 0 113.76719 229.36305"
   height="229.36305mm"
   width="113.76719mm">
  <defs
     id="defs2" />
  <sodipodi:namedview
     inkscape:window-maximized="0"
     inkscape:window-y="23"
     inkscape:window-x="0"
     inkscape:window-height="811"
     inkscape:window-width="1252"
     showgrid="false"
     inkscape:document-rotation="0"
     inkscape:current-layer="layer1"
     inkscape:document-units="mm"
     inkscape:cy="525.73833"
     inkscape:cx="619.51333"
     inkscape:zoom="0.35"
     inkscape:pageshadow="2"
     inkscape:pageopacity="0.0"
     borderopacity="1.0"
     bordercolor="#666666"
     pagecolor="#ffffff"
     id="base" />
  <metadata
     id="metadata5">
    <rdf:RDF>
      <cc:Work
         rdf:about="">
        <dc:format>image/svg+xml</dc:format>
        <dc:type
           rdf:resource="http://purl.org/dc/dcmitype/StillImage" />
        <dc:title></dc:title>
      </cc:Work>
    </rdf:RDF>
  </metadata>
  <g
     transform="translate(58.079574,-9.0650654)"
     id="layer1"
     inkscape:groupmode="layer"
     inkscape:label="Layer 1">
    <path
       id="path110"
       d="m -7.0525548,237.4227 c -0.56432,-0.56431 -1.04124,-7.66314 -1.05983,-15.77518 -0.026,-11.354 -0.73457,-16.29351 -3.0780802,-21.45813 -3.81486,-8.40718 -3.80528,-11.24008 0.0753,-22.28113 3.1770702,-9.03932 2.9868202,-11.79448 -0.81441,-11.79448 -2.21399,0 -21.42894,37.55003 -22.98842,44.92414 -1.24559,5.88993 4.20276,11.45895 14.41183,14.73099 17.6996002,5.6728 10.26556,9.37938 -16.35814,8.15613 -23.27847,-1.06955 -23.85979,-1.50906 -18.32084,-13.85148 2.98917,-6.66076 4.50204,-13.29636 5.36646,-23.53776 1.29719,-15.36893 2.36646,-18.40349 8.50935,-24.14936 5.09158,-4.76252 5.0478,-5.35137 -1.39772,-18.80092 -2.96266,-6.18203 -5.38719,-12.64472 -5.38786,-14.36155 -6.7e-4,-1.71683 -2.07837,-7.51224 -4.61712,-12.8787 -5.75708,-12.16942 -5.74831,-14.56271 0.0946,-25.80863 2.59076,-4.986509 9.47978,-18.416055 15.30893,-29.843438 14.59504,-28.611921 31.9640502,-46.160998 45.6962802,-46.170032 1.01502,-6.68e-4 3.7254898,-2.466029 6.0232698,-5.47858 7.74427,-10.1532631 19.66281,-12.7187175 32.34122,-6.961421 8.20258,3.724808 8.17367,3.661435 8.77663,19.240259 0.7177,18.543538 -0.46391,20.01633 -14.96848,18.657139 -13.04576,-1.222488 -16.87791,1.433326 -18.28922,12.675091 -0.57928,4.614229 -2.4242,8.351836 -6.16814,12.495926 -9.0765298,10.046631 -10.2013998,17.203959 -5.83011,37.095746 0.83707,3.80912 1.55211,10.39073 1.58897,14.62579 0.0369,4.23506 1.45217,12.54368 3.14511,18.4636 3.9936,13.96488 3.88056,18.65217 -0.6104,25.31146 -3.27656,4.85855 -3.80623,7.83657 -4.7428198,26.66582 l -1.05433,21.19645 4.5887398,4.28652 c 3.11148,2.90656 8.35431,5.22422 16.28563,7.19925 11.17344,2.78239 14.5217,5.50017 9.26245,7.51833 -3.31796,1.27322 -44.5064098,1.1906 -45.7888598,-0.0919 z m 11.2863,-94.97611 c 0,-0.31986 -1.18872,-3.26328 -2.64161,-6.54093 -2.63224,-5.93822 -2.64355,-5.94401 -3.18929,-1.63392 -0.53505,4.22574 1.78311004,8.75642 4.48031,8.75642 0.74283,0 1.35059,-0.26171 1.35059,-0.58157 z"
       style="fill:#000000;stroke-width:1.53904" />
  </g>
</svg>
