<?xml version="1.0" encoding="UTF-8" standalone="no"?>
<svg
   xmlns:dc="http://purl.org/dc/elements/1.1/"
   xmlns:cc="http://creativecommons.org/ns#"
   xmlns:rdf="http://www.w3.org/1999/02/22-rdf-syntax-ns#"
   xmlns:svg="http://www.w3.org/2000/svg"
   xmlns="http://www.w3.org/2000/svg"
   xmlns:sodipodi="http://sodipodi.sourceforge.net/DTD/sodipodi-0.dtd"
   xmlns:inkscape="http://www.inkscape.org/namespaces/inkscape"
   sodipodi:docname="evo3.svg"
   inkscape:version="1.0 (4035a4f, 2020-05-01)"
   id="svg8"
   version="1.1"
   viewBox="0 0 162.16757 234.47201"
   height="234.47202mm"
   width="162.16757mm">
  <defs
     id="defs2" />
  <sodipodi:namedview
     inkscape:window-maximized="0"
     inkscape:window-y="23"
     inkscape:window-x="0"
     inkscape:window-height="811"
     inkscape:window-width="1252"
     showgrid="false"
     inkscape:document-rotation="0"
     inkscape:current-layer="layer1"
     inkscape:document-units="mm"
     inkscape:cy="584.8819"
     inkscape:cx="-28.93027"
     inkscape:zoom="0.35"
     inkscape:pageshadow="2"
     inkscape:pageopacity="0.0"
     borderopacity="1.0"
     bordercolor="#666666"
     pagecolor="#ffffff"
     id="base" />
  <metadata
     id="metadata5">
    <rdf:RDF>
      <cc:Work
         rdf:about="">
        <dc:format>image/svg+xml</dc:format>
        <dc:type
           rdf:resource="http://purl.org/dc/dcmitype/StillImage" />
        <dc:title></dc:title>
      </cc:Work>
    </rdf:RDF>
  </metadata>
  <g
     transform="translate(-113.4878,6.5833374)"
     id="layer1"
     inkscape:groupmode="layer"
     inkscape:label="Layer 1">
    <path
       id="path64742"
       d="m 206.45706,224.99707 c -0.55166,-1.43759 0.20268,-6.43873 1.67631,-11.1136 3.27391,-10.38606 3.35687,-17.24259 0.3293,-27.21902 -2.68119,-8.83511 -1.18545,-16.95707 3.98444,-21.63577 4.22299,-3.82176 4.099,-6.68028 -0.41544,-9.57767 -7.10706,-4.5613 -9.65426,-3.92984 -11.60506,2.87694 -1.50061,5.23601 -3.26311,7.07286 -10.49028,10.93278 -41.78511,22.31673 -55.83839,42.62416 -34.34138,49.62431 8.30758,2.70525 6.89749,4.59776 -3.84035,5.15425 -8.1187,0.42075 -10.276,-0.11053 -14.962,-3.6847 -3.01151,-2.297 -9.53049,-5.72812 -14.48662,-7.62473 -11.73145,-4.48936 -11.75086,-7.50616 -0.0981,-15.24085 10.98809,-7.29347 17.09167,-14.34099 17.09167,-19.73497 0,-5.80809 8.2769,-12.89873 19.00376,-16.28008 10.95083,-3.45194 11.85468,-5.32613 6.37904,-13.22748 -2.92546,-4.22144 -4.25393,-8.25312 -4.25393,-12.90993 0,-5.61993 -0.81868,-7.37677 -4.81405,-10.33067 -6.82528,-5.04615 -10.4006,-13.34381 -9.14174,-21.21629 0.91558,-5.725722 0.403,-7.095942 -4.96127,-13.262522 -3.29029,-3.7824 -7.27309,-10.83647 -8.85067,-15.675709 l -2.86832,-8.798613 6.30982,-7.536388 c 3.4704,-4.145013 10.54636,-9.812642 15.72435,-12.594728 5.17799,-2.782089 11.42804,-7.618245 13.88901,-10.747014 2.63705,-3.35263 8.81073,-7.758173 15.034,-10.728266 10.24073,-4.887448 10.55952,-5.224805 10.55952,-11.174449 0,-15.7905004 44.31048,-27.208838 55.10655,-14.20036938 10.31267,12.42600338 3.74071,33.50365138 -10.44635,33.50365138 -10.84914,0 -19.15526,4.49513 -17.93135,9.704143 3.12392,13.295606 2.95895,15.537288 -1.53655,20.879893 -8.80787,10.467556 -6.97259,14.824139 8.93896,21.219289 26.87794,10.80276 33.41047,9.45627 38.92724,-8.023692 4.67746,-14.820604 7.56371,-14.22287 6.91478,1.432024 -0.33317,8.037528 0.28519,13.031958 2.03162,16.409198 7.82409,15.130102 -4.96247,21.814992 -23.49418,12.282912 -6.07409,-3.1243 -33.00546,-8.891862 -41.52016,-8.891862 -5.6051,0 -4.45979,7.814872 1.9521,13.319872 36.72163,31.52776 40.20441,39.9128 29.23402,70.38295 -9.90962,27.52388 -7.91798,32.39384 14.98829,36.64937 16.77187,3.11588 19.68148,4.47398 15.75765,7.35508 -4.95329,3.63701 -62.36765,3.36937 -63.77467,-0.29729 z M 158.80317,79.708813 c 0,-7.584723 -0.54177,-9.751786 -2.43795,-9.751786 -2.57957,0 -3.34892,8.624834 -1.41354,15.846651 1.83861,6.86076 3.85149,3.67544 3.85149,-6.094865 z"
       style="fill:#000000;stroke-width:1.6253" />
  </g>
</svg>
