<?xml version="1.0" encoding="UTF-8" standalone="no"?>
<svg
   xmlns:dc="http://purl.org/dc/elements/1.1/"
   xmlns:cc="http://creativecommons.org/ns#"
   xmlns:rdf="http://www.w3.org/1999/02/22-rdf-syntax-ns#"
   xmlns:svg="http://www.w3.org/2000/svg"
   xmlns="http://www.w3.org/2000/svg"
   xmlns:sodipodi="http://sodipodi.sourceforge.net/DTD/sodipodi-0.dtd"
   xmlns:inkscape="http://www.inkscape.org/namespaces/inkscape"
   sodipodi:docname="evo4.svg"
   inkscape:version="1.0 (4035a4f, 2020-05-01)"
   id="svg8"
   version="1.1"
   viewBox="0 0 183.44365 254.50794"
   height="254.50795mm"
   width="183.44365mm">
  <defs
     id="defs2" />
  <sodipodi:namedview
     inkscape:window-maximized="0"
     inkscape:window-y="23"
     inkscape:window-x="0"
     inkscape:window-height="811"
     inkscape:window-width="1252"
     showgrid="false"
     inkscape:document-rotation="0"
     inkscape:current-layer="layer1"
     inkscape:document-units="mm"
     inkscape:cy="582.66759"
     inkscape:cx="80.569201"
     inkscape:zoom="0.35"
     inkscape:pageshadow="2"
     inkscape:pageopacity="0.0"
     borderopacity="1.0"
     bordercolor="#666666"
     pagecolor="#ffffff"
     id="base" />
  <metadata
     id="metadata5">
    <rdf:RDF>
      <cc:Work
         rdf:about="">
        <dc:format>image/svg+xml</dc:format>
        <dc:type
           rdf:resource="http://purl.org/dc/dcmitype/StillImage" />
        <dc:title></dc:title>
      </cc:Work>
    </rdf:RDF>
  </metadata>
  <g
     transform="translate(-84.516065,5.9974663)"
     id="layer1"
     inkscape:groupmode="layer"
     inkscape:label="Layer 1">
    <path
       id="path64812"
       d="m 201.26851,248.22845 c -4.46747,-0.51295 -6.70904,-3.73481 -4.98838,-7.16991 0.15368,-0.30681 0.45172,-0.98216 0.66231,-1.50077 0.82044,-2.02048 1.17486,-2.86 1.54315,-3.65527 0.21504,-0.46435 0.38273,-2.64276 0.38273,-4.97184 0,-4.44545 -0.15454,-5.08766 -2.36986,-9.84859 -0.49431,-1.06232 -1.35912,-2.5108 -1.92181,-3.21884 -0.56268,-0.70804 -1.02306,-1.38982 -1.02306,-1.51506 0,-0.12523 -0.65576,-0.92346 -1.45726,-1.77384 -1.98481,-2.10585 -2.3521,-2.61027 -3.34313,-4.59131 -0.47147,-0.94244 -0.97294,-1.76497 -1.11438,-1.82783 -0.14144,-0.0629 -0.25716,-0.64316 -0.25716,-1.28956 0,-1.0233 -0.70923,-3.06683 -1.74244,-5.02059 -0.36363,-0.6876 -0.43085,-6.20348 -0.0799,-6.55445 0.37623,-0.37623 1.12574,-2.72477 1.13138,-3.54508 0.003,-0.41319 0.15946,-0.84662 0.34805,-0.96317 0.18859,-0.11656 0.34288,-0.6566 0.34288,-1.2001 0,-0.5435 0.1543,-1.08355 0.34289,-1.2001 0.18859,-0.11655 0.34289,-0.43594 0.34289,-0.70975 0,-0.2738 0.29085,-1.15191 0.64634,-1.95135 3.46167,-7.7847 3.24633,-8.60839 -3.38943,-12.96457 -3.85427,-2.53023 -7.20059,-2.12059 -7.20059,0.88145 0,0.72092 -1.7984,4.03698 -2.73402,5.04126 -0.38216,0.4102 -0.69483,0.94347 -0.69483,1.18505 0,0.50537 -0.73369,1.85657 -2.53483,4.66826 -0.69739,1.08868 -1.55268,2.63166 -1.90065,3.42886 -0.34797,0.79719 -0.95818,1.79016 -1.35601,2.2066 -0.39783,0.41643 -0.72333,0.91321 -0.72333,1.10395 0,0.40074 -1.1558,2.52196 -2.09746,3.84943 -0.35509,0.50058 -0.64563,1.22881 -0.64563,1.61828 0,0.38947 -0.30859,1.25756 -0.68577,1.92909 -0.37717,0.67152 -0.68577,1.44385 -0.68577,1.71627 0,0.27242 -0.44068,1.46354 -0.97928,2.64693 -0.53861,1.18339 -1.16936,2.95404 -1.40167,3.93478 -0.23231,0.98074 -0.61691,1.94462 -0.85468,2.14195 -1.27592,1.05891 -5.16531,13.17328 -4.88115,15.20342 0.23397,1.67161 1.55187,5.82101 1.92901,6.07354 0.14084,0.0943 0.439,0.51882 0.66259,0.94339 1.07453,2.04041 9.84252,4.948 18.38338,6.09618 7.77854,1.04571 9.77933,1.70167 9.76146,3.20033 -0.0296,2.48004 -2.55866,2.94395 -14.04752,2.57677 -13.39179,-0.428 -19.84436,-0.37513 -24.17342,0.19808 -11.11296,1.47146 -15.74767,-1.26771 -12.88984,-7.61805 0.35977,-0.79944 0.73478,-1.83927 0.83336,-2.31074 0.27636,-1.32175 0.80465,-3.03214 1.74749,-5.6576 1.27842,-3.55994 1.26575,-10.49806 -0.0289,-15.81394 -1.18457,-4.86396 -1.50629,-11.99322 -0.63414,-14.05247 0.31124,-0.73489 0.80319,-2.0305 1.09321,-2.87914 0.59069,-1.72842 2.33037,-4.29752 4.27546,-6.31387 1.63363,-1.6935 2.68881,-3.91588 2.68881,-5.66314 0,-0.74527 0.13758,-1.44007 0.30574,-1.544 0.16816,-0.10393 0.77715,-1.1664 1.35332,-2.36105 0.57617,-1.19465 1.67801,-2.93173 2.44854,-3.86018 1.72144,-2.07427 1.83055,-2.48099 1.57023,-5.85317 -0.11432,-1.48095 -0.35423,-5.39285 -0.53313,-8.69312 -0.1789,-3.30027 -0.41793,-7.54347 -0.53118,-9.42934 -0.19106,-3.18161 0.0505,-5.50198 1.10107,-10.57721 0.31263,-1.51028 -0.51668,-3.45613 -2.16062,-5.06954 -0.82316,-0.80787 -1.49666,-1.57778 -1.49666,-1.71091 0,-0.13314 -0.53703,-0.79505 -1.1934,-1.47094 -1.75881,-1.81109 -1.73381,-1.55233 -1.00994,-10.45426 0.22038,-2.71004 0.0997,-3.13233 -1.64364,-5.75322 -0.52438,-0.78833 -0.95341,-1.5795 -0.95341,-1.75816 0,-0.17867 -0.2343,-0.51929 -0.52066,-0.75695 -0.28636,-0.23766 -0.77433,-0.98947 -1.08437,-1.67069 -0.31004,-0.68122 -0.89468,-1.70148 -1.29919,-2.26724 -1.20309,-1.68268 -2.92483,-4.92116 -2.92483,-5.5014 0,-0.29698 -0.6172,-1.83311 -1.37155,-3.41362 -0.75434,-1.580512 -1.37154,-3.186758 -1.37154,-3.569432 0,-0.382677 -0.30859,-1.245205 -0.68577,-1.916732 -0.37717,-0.671527 -0.68577,-1.515755 -0.68577,-1.876063 0,-0.360307 -0.1543,-0.750466 -0.34288,-0.867019 -0.44597,-0.275625 -0.44597,-2.810343 0,-3.085968 0.18858,-0.116553 0.34288,-0.590647 0.34288,-1.053546 0,-0.462895 0.13536,-1.109556 0.30079,-1.437025 0.8824,-1.746624 1.07075,-3.496422 1.07075,-9.947229 0,-4.383363 0.14286,-7.253011 0.39138,-7.86202 1.85537,-4.546628 3.65336,-7.526795 5.93014,-9.82918 1.41377,-1.429674 2.25062,-2.909269 2.25062,-3.979239 0,-0.614711 0.41344,-1.706941 0.95341,-2.518705 0.52438,-0.788328 1.17751,-1.876062 1.45139,-2.417187 1.0746,-2.123139 5.96215,-6.442674 9.05416,-8.00191 1.30487,-0.658021 2.58885,-1.41276 2.85329,-1.6772 0.26444,-0.264436 0.68939,-0.480797 0.94432,-0.480797 0.85743,0 2.57346,-1.740715 2.57346,-2.610481 0,-0.995023 -4.22783,-5.304227 -7.02915,-7.164441 -1.7572,-1.166866 -7.08138,-3.88476 -14.40118,-7.351519 -4.69945,-2.225725 -16.77743,-8.325085 -17.27585,-8.724276 -0.55418,-0.443851 -1.66243,-1.041489 -6.92174,-3.732647 -2.12941,-1.0896054 -4.03661,-2.11749 -4.23821,-2.2841895 C 109.15826,7.2265353 104.71618,5.5290148 102.3461,5.34025 98.783585,5.0565134 94.211275,3.527543 92.230985,1.9577714 c -4.62415,-3.6655476 -7.71492,-6.4801108 -7.71492,-7.0254753 0,-1.1950481 5.8235,-1.2486696 10.80089,-0.099452 0.75435,0.1741696 2.14303,0.3213946 3.08597,0.3271667 2.601895,0.015927 5.358575,1.8682269 6.706985,4.50662906 0.95123,1.86125334 5.13844,4.61043234 12.66603,8.31609474 1.79157,0.8819521 4.1832,2.1410664 5.31472,2.7980324 1.13152,0.656965 3.21455,1.779942 4.62895,2.495505 1.4144,0.715562 7.15949,3.645524 12.76687,6.511026 10.67264,5.453979 11.0338,5.589141 12.2667,4.5908 l 0.76469,-0.619207 -0.7267,-1.424446 c -0.80907,-1.585911 -0.92364,-3.357049 -0.3363,-5.199162 1.75245,-5.496388 7.98691,-10.0330034 17.00611,-12.3747987 2.16503,-0.5621395 4.26693,-1.0243174 4.67089,-1.0270618 0.40396,-0.00274 1.38947,-0.2331675 2.19002,-0.5120508 2.76982,-0.9649036 15.30857,-0.7911032 19.28901,0.2673658 8.01853,2.132264 8.82734,2.7776235 7.06319,5.6357712 l -1.23413,1.9994623 v 4.500947 4.500948 l 1.16676,1.024433 c 2.16648,1.902197 2.3563,2.86922 1.06343,5.417594 -0.98242,1.936424 -1.0662,2.824322 -0.35523,3.764315 0.27688,0.366071 0.50833,0.902982 0.51433,1.193135 0.006,0.290152 0.3195,1.132841 0.69667,1.872647 1.1321,2.220542 -0.65041,4.849382 -3.82702,5.644077 -0.81823,0.204699 -1.721,0.501308 -2.00615,0.659132 -0.28515,0.157823 -1.36524,0.544107 -2.4002,0.858406 -8.08542,2.455412 -6.99852,5.148008 4.29019,10.628233 3.39457,1.647928 8.76086,4.302244 11.92509,5.898484 8.07196,4.072007 8.3578,4.157574 14.60112,4.370958 l 5.26733,0.180029 2.96192,1.418355 c 4.43398,2.123269 5.87645,3.752972 5.87645,6.639209 0,1.697097 1.88386,3.6749 4.45751,4.67979 0.66006,0.257723 2.97453,1.34251 5.14328,2.410638 2.16875,1.068129 4.75325,2.301316 5.74333,2.740415 0.99008,0.439095 1.80015,0.908745 1.80015,1.04366 0,0.134915 0.97057,0.633848 2.15683,1.108737 1.18625,0.474889 3.21256,1.571385 4.50291,2.43666 1.29035,0.865271 2.47995,1.573222 2.64357,1.573222 0.16361,0 0.29748,0.284684 0.29748,0.632627 0,1.975839 -3.48245,2.38056 -6.34338,0.737217 -2.50414,-1.438393 -13.8841,-7.565019 -15.08696,-8.122356 -0.56576,-0.262142 -1.49155,-0.722383 -2.05731,-1.022761 -9.6872,-5.143173 -10.40185,-5.300557 -17.78027,-3.915688 -1.91324,0.359097 -5.25305,0.838436 -7.4218,1.065197 -4.26295,0.445723 -6.07329,1.072476 -9.75423,3.376981 -1.14142,0.7146 -2.31899,1.388576 -2.61682,1.497719 -0.72238,0.264732 -6.97909,4.518591 -8.75354,5.951419 -1.3506,1.090588 -1.61214,1.540896 -2.48666,4.281499 -0.7739,2.425265 -0.51156,30.147031 0.29505,31.178221 0.36879,0.47146 0.6756,1.01151 0.68179,1.2001 0.006,0.18858 0.6348,1.11437 1.3969,2.05731 0.76209,0.94293 1.86719,2.40877 2.45578,3.25741 0.58859,0.84864 1.52868,2.07519 2.08908,2.72566 0.5604,0.65047 1.29824,1.81414 1.63964,2.58593 0.3414,0.77179 0.99993,1.84456 1.4634,2.38393 0.46347,0.53937 1.02851,1.38159 1.25565,1.87158 0.22715,0.48999 0.54928,1.15883 0.71587,1.48629 0.16658,0.32747 0.30288,0.79985 0.30288,1.04973 0,0.24987 0.27113,0.75344 0.60251,1.11903 0.8105,0.89417 1.4548,2.40158 1.4548,3.40368 0,0.45147 0.1543,0.91621 0.34288,1.03276 0.18859,0.11655 0.34289,0.6678 0.34289,1.22499 0,0.55719 0.13536,1.281 0.30079,1.60847 0.80528,1.59398 1.18979,3.69294 1.42578,7.78315 0.14186,2.45869 0.50408,5.24183 0.80495,6.18477 0.30086,0.94293 0.54869,2.02738 0.55074,2.40987 0.002,0.38249 0.57355,1.84833 1.27003,3.25741 1.90055,3.84512 2.06717,6.21915 1.63552,23.30309 -0.1024,4.05273 -0.33431,7.51673 -0.51535,7.69777 -0.45487,0.45487 -0.44158,23.74117 0.0137,24.02255 0.18859,0.11656 0.34289,0.91191 0.34289,1.76746 0,1.01519 0.24255,1.89617 0.69825,2.53614 0.38404,0.53933 1.11908,1.78616 1.63343,2.77073 1.93173,3.69777 7.95608,7.24199 16.33555,9.61047 8.74095,2.47065 10.4453,2.80913 15.15745,3.01019 5.25571,0.22426 6.06132,0.6005 5.88092,2.74647 -0.12504,1.48755 -1.35206,2.19831 -4.7313,2.74063 -2.48779,0.39926 -46.78924,0.4282 -50.2327,0.0328 z m 8.91502,-179.607669 c 5.63602,-1.792858 7.77987,-3.443425 6.1701,-4.750394 -2.2206,-1.802898 -5.85203,-3.990132 -10.17347,-6.127542 -1.88551,-0.932586 -4.94372,-2.562155 -7.56104,-4.028902 -4.50189,-2.522854 -7.48756,-1.541578 -4.63916,1.524715 0.23696,0.255093 0.96518,1.15434 1.61825,1.998325 0.65307,0.843985 1.30884,1.585951 1.45727,1.648812 0.14842,0.06286 0.26985,0.262187 0.26985,0.442946 0,0.180755 0.28785,0.637616 0.63967,1.015242 0.35181,0.37763 0.99326,1.374116 1.42544,2.214418 0.43218,0.840302 0.89711,1.527822 1.03317,1.527822 0.31272,0 0.90499,1.523103 1.20001,3.085967 0.61648,3.265808 2.07265,3.512236 8.55991,1.448591 z"
       style="fill:#000000;stroke-width:0.342885" />
  </g>
</svg>
