<?xml version="1.0" encoding="UTF-8" standalone="no"?>
<svg
   xmlns:dc="http://purl.org/dc/elements/1.1/"
   xmlns:cc="http://creativecommons.org/ns#"
   xmlns:rdf="http://www.w3.org/1999/02/22-rdf-syntax-ns#"
   xmlns:svg="http://www.w3.org/2000/svg"
   xmlns="http://www.w3.org/2000/svg"
   xmlns:sodipodi="http://sodipodi.sourceforge.net/DTD/sodipodi-0.dtd"
   xmlns:inkscape="http://www.inkscape.org/namespaces/inkscape"
   sodipodi:docname="evo5.svg"
   inkscape:version="1.0 (4035a4f, 2020-05-01)"
   id="svg8"
   version="1.1"
   viewBox="0 0 193.52399 283.74971"
   height="283.74973mm"
   width="193.52399mm">
  <defs
     id="defs2" />
  <sodipodi:namedview
     inkscape:window-maximized="0"
     inkscape:window-y="23"
     inkscape:window-x="0"
     inkscape:window-height="811"
     inkscape:window-width="1252"
     showgrid="false"
     inkscape:document-rotation="0"
     inkscape:current-layer="layer1"
     inkscape:document-units="mm"
     inkscape:cy="659.65152"
     inkscape:cx="790.83188"
     inkscape:zoom="0.35"
     inkscape:pageshadow="2"
     inkscape:pageopacity="0.0"
     borderopacity="1.0"
     bordercolor="#666666"
     pagecolor="#ffffff"
     id="base" />
  <metadata
     id="metadata5">
    <rdf:RDF>
      <cc:Work
         rdf:about="">
        <dc:format>image/svg+xml</dc:format>
        <dc:type
           rdf:resource="http://purl.org/dc/dcmitype/StillImage" />
        <dc:title></dc:title>
      </cc:Work>
    </rdf:RDF>
  </metadata>
  <g
     transform="translate(103.4076,26.366132)"
     id="layer1"
     inkscape:groupmode="layer"
     inkscape:label="Layer 1">
    <path
       id="path64846"
       d="m 9.2093686,254.23733 c -4.25547,-3.58075 -10.21293,-15.24572 -12.84975,-25.1604 -8.4313496,-31.7026 -12.1278196,-45.11525 -17.2291296,-62.51596 -1.68245,-5.73884 -3.65928,-12.78197 -4.39296,-15.65139 -1.61612,-6.32061 -5.44999,-7.26657 -7.4628,-1.84134 -0.68885,1.85668 -2.10766,4.02673 -3.15292,4.82233 -1.78811,1.36102 -2.3887,4.31075 -6.57885,32.31136 -0.65673,4.38853 -2.33719,15.43657 -3.73436,24.5512 -4.26566,27.82749 -4.34118,29.90153 -1.2778,35.09357 3.49811,5.92884 1.58668,8.37533 -2.8247,3.61538 -5.54485,-5.98299 -5.49009,-10.85439 0.55927,-49.75699 0.68242,-4.38853 2.07661,-14.33176 3.09821,-22.09608 1.02159,-7.76432 2.60209,-19.64096 3.51222,-26.39254 0.91014,-6.75158 2.2983,-18.90442 3.08482,-27.00632 l 1.43004,-14.73072 -10.21141,-26.262804 -10.2114,-26.262812 -5.58471,-1.411902 c -3.07159,-0.776546 -7.49081,-2.563881 -9.82048,-3.971855 -4.80176,-2.902012 -16.66321,-6.181097 -17.89677,-4.947541 -0.44844,0.448445 0.092,5.107671 1.20106,10.353835 6.45107,30.516305 6.7463,31.581165 9.3375,33.679385 4.80467,3.89058 -0.4728,9.12673 -5.49642,5.45337 -1.99281,-1.45718 -2.09373,-2.00104 -0.68605,-3.69719 2.86596,-3.45327 -7.71601,-44.275042 -12.368859,-47.715048 -7.89118,-5.8342 0.826609,-12.27456 10.852699,-8.017548 1.90064,0.806998 8.97973,1.514905 15.73131,1.573128 6.75158,0.05822 18.52077,0.583316 26.15375,1.166874 13.5881,1.038841 13.89256,1.005961 14.56701,-1.573128 0.8675,-3.317314 3.59146,-3.427125 4.44086,-0.179023 0.81759,3.126455 22.3964096,1.541883 26.4837696,-1.944752 0.87398,-0.745525 -4.64585,-8.515159 -7.12877,-10.03436 -8.6856096,-5.314388 7.87442,-17.8694783 20.4563404,-15.509096 4.22469,0.792558 4.36169,0.707923 3.41229,-2.1082133 -0.544,-1.613654 -1.10787,-5.181177 -1.25303,-7.92782599 -0.14516,-2.74665001 -0.88953,-6.16284701 -1.65415,-7.59154801 -0.76461,-1.428702 -1.39021,-3.2447167 -1.39021,-4.0355867 0,-0.79087 -1.3810004,-3.079177 -3.0689004,-5.085125 -7.48383003,-8.894026 1.47132,-13.509362 11.8612504,-6.113096 5.47235,3.895591 51.22866,20.6026457 60.56479,22.11409371 4.92454,0.797245 10.43426,3.64163299 10.43426,5.38667599 0,1.665337 -9.6562,1.003928 -10.68015,-0.731546 -0.97397,-1.650784 -55.63185,-20.8176847 -56.60117,-19.8483607 -0.27801,0.278006 2.59372,4.158608 6.3816,8.6235597 3.7879,4.464952 6.88708,8.758323 6.88708,9.540825 0,6.752435 10.34361,33.2216223 15.21037,38.9231783 4.90979,5.751977 8.60163,14.442613 10.1789,23.961276 0.22375,1.350316 1.7109,3.559924 3.30479,4.91024 2.75037,2.33008 2.94942,3.517954 3.90817,23.323636 1.59554,32.960334 1.78601,31.022904 -3.48487,35.448204 -2.51144,2.10854 -4.56624,4.52422 -4.56621,5.36817 2.4e-4,6.72742 -19.15162,8.53407 -48.48857,4.57405 -12.36892043,-1.66961 -13.6062704,-1.65478 -14.7307204,0.17646 -0.67516,1.09954 -3.00323,4.1689 -5.1735,6.82083 -2.17026,2.65192 -4.3117396,6.86441 -4.7588296,9.3611 -0.4471,2.49668 -1.59233,5.4345 -2.54496,6.52848 -1.29987,1.49274 -1.41831,2.71798 -0.47466,4.91024 0.69157,1.60666 5.14035,16.73124 9.8861696,33.61019 4.74581997,16.87895 9.24935,32.3462 10.00784,34.37168 2.93647,7.8416 7.4614704,16.45091 9.7214804,18.49618 5.38938,4.87732 0.82381,5.85826 -4.8897804,1.0506 z M 31.031709,117.58456 c 1.30799,-0.82862 0.3019,-2.86139 -4.54793,-9.18897 -7.26118,-9.473674 -8.49334,-14.194484 -6.59705,-25.275354 1.5439,-9.021759 1.73016,-8.736574 -7.7204,-11.820403 -3.3757904,-1.10156 -9.4420404,-4.562231 -13.4805604,-7.69038 -7.25493,-5.619514 -7.46883,-5.692575 -17.8836496,-6.108255 l -10.5409,-0.42071 -0.21785,8.39985 c -0.11983,4.619918 -0.83484,14.187668 -1.58892,21.261658 -1.26266,11.84496 -1.19973,12.96105 0.79608,14.116944 1.19192,0.69032 3.03422,2.22183 4.09399,3.40336 1.05977,1.18153 3.40642,2.14823 5.21478,2.14823 2.78067,0 3.45395,0.70203 4.3641,4.55054 l 1.07617,4.55053 11.0144796,0.40703 c 8.78509,0.32466 24.7295804,1.56775 33.1105604,2.58143 0.67516,0.0816 1.98335,-0.33031 2.9071,-0.9155 z m -68.07179,-26.211644 c 1.80421,-14.669131 2.96545,-32.274749 2.17649,-32.998028 -0.46471,-0.426021 -4.84984,-1.149972 -9.74473,-1.608781 -10.87806,-1.019625 -10.72539,-1.78192 -3.49718,17.461535 2.97145,7.910794 6.12063,16.454774 6.99818,18.986614 2.1601,6.23214 3.12815,5.79389 4.06724,-1.84134 z"
       style="fill:#000000;stroke-width:1.22756" />
  </g>
</svg>
