<?xml version="1.0" encoding="UTF-8" standalone="no"?>
<svg
   xmlns:dc="http://purl.org/dc/elements/1.1/"
   xmlns:cc="http://creativecommons.org/ns#"
   xmlns:rdf="http://www.w3.org/1999/02/22-rdf-syntax-ns#"
   xmlns:svg="http://www.w3.org/2000/svg"
   xmlns="http://www.w3.org/2000/svg"
   xmlns:sodipodi="http://sodipodi.sourceforge.net/DTD/sodipodi-0.dtd"
   xmlns:inkscape="http://www.inkscape.org/namespaces/inkscape"
   width="202.608mm"
   height="148.59537mm"
   viewBox="0 0 202.608 148.59538"
   version="1.1"
   id="svg8"
   inkscape:version="1.0 (4035a4f, 2020-05-01)"
   sodipodi:docname="location.svg">
  <defs
     id="defs2" />
  <sodipodi:namedview
     id="base"
     pagecolor="#ffffff"
     bordercolor="#666666"
     borderopacity="1.0"
     inkscape:pageopacity="0.0"
     inkscape:pageshadow="2"
     inkscape:zoom="0.35"
     inkscape:cx="187.67415"
     inkscape:cy="607.5031"
     inkscape:document-units="mm"
     inkscape:current-layer="layer1"
     inkscape:document-rotation="0"
     showgrid="false"
     fit-margin-top="0"
     fit-margin-left="0"
     fit-margin-right="0"
     fit-margin-bottom="0"
     inkscape:snap-midpoints="true"
     inkscape:window-width="1252"
     inkscape:window-height="801"
     inkscape:window-x="0"
     inkscape:window-y="23"
     inkscape:window-maximized="0" />
  <metadata
     id="metadata5">
    <rdf:RDF>
      <cc:Work
         rdf:about="">
        <dc:format>image/svg+xml</dc:format>
        <dc:type
           rdf:resource="http://purl.org/dc/dcmitype/StillImage" />
        <dc:title></dc:title>
      </cc:Work>
    </rdf:RDF>
  </metadata>
  <g
     inkscape:label="Layer 1"
     inkscape:groupmode="layer"
     id="layer1"
     transform="translate(-25.939785,-18.425519)">
    <path
       d=""
       id="path63"
       style="fill:#000000;stroke-width:0.264583" />
    <path
       id="path292"
       d="m 105.51653,166.97095 c -0.80037,-0.0487 -3.89599,-0.21365 -6.879171,-0.36644 -2.983177,-0.15279 -7.626615,-0.39116 -10.31875,-0.5297 -9.598282,-0.49394 -23.99405,-1.91084 -32.543752,-3.20311 -17.487158,-2.64315 -27.769663,-5.88245 -29.540055,-9.30601 -1.754598,-3.39302 4.349912,-6.74394 17.442553,-9.57465 7.302823,-1.57892 22.438414,-3.68933 31.279795,-4.36147 1.74625,-0.13275 4.782344,-0.36977 6.746875,-0.52671 8.496639,-0.67876 17.982082,-1.14023 26.855205,-1.30651 5.23876,-0.0982 9.67868,-0.27421 9.8665,-0.3912 0.45853,-0.28562 0.5862,0.0462 -4.23183,-10.99719 -2.32186,-5.32191 -5.45309,-12.5337 -6.9583,-16.0262 -1.5052,-3.4925 -3.47212,-8.01688 -4.37093,-10.05417 -0.89881,-2.037285 -2.08522,-4.775725 -2.63647,-6.085415 -0.551242,-1.30968 -1.859136,-4.34578 -2.906428,-6.74687 -6.873204,-15.75797 -7.403379,-17.08664 -8.393256,-21.03438 -0.690505,-2.75381 -0.729351,-3.23074 -0.721911,-8.86354 0.0088,-6.69182 0.194795,-7.8246 2.213428,-13.48348 2.931263,-8.21726 8.892866,-15.48503 16.486007,-20.09802 9.66112,-5.869337 22.15335,-7.220556 32.92844,-3.561699 5.97106,2.027569 10.08083,4.579859 14.85469,9.225189 7.04121,6.85165 10.76036,14.65697 11.71315,24.58222 0.50536,5.2644 -0.20688,11.19473 -1.94182,16.16808 -0.62792,1.79999 -2.25316,5.60307 -10.40239,24.34167 -3.16427,7.276035 -6.43967,14.836505 -7.27867,16.801035 -0.839,1.96453 -2.53685,5.8936 -3.77301,8.73125 -5.59869,12.85209 -7.06282,16.29029 -7.06282,16.5855 0,0.17413 0.14883,0.41047 0.33073,0.52518 0.1819,0.11471 4.61698,0.28833 9.85573,0.3858 10.38982,0.19333 18.5555,0.63938 33.60209,1.83553 5.86714,0.46642 16.18417,1.75847 23.41562,2.93246 13.36331,2.16946 21.51526,4.77296 24.46954,7.81489 0.75089,0.77316 0.93047,1.16324 0.93047,2.02117 0,0.91457 -0.16635,1.22249 -1.19062,2.20391 -1.44382,1.38342 -2.87241,2.12943 -6.48749,3.38776 -9.66763,3.36508 -27.44056,6.17532 -48.54586,7.67603 -16.4374,1.1688 -20.00141,1.27974 -42.8625,1.33417 -12.36927,0.0295 -23.14443,0.0137 -23.94479,-0.0351 z m 28.98266,-83.847765 c 4.30616,-1.24053 8.84782,-3.88156 11.8672,-6.90094 3.03987,-3.03987 5.59438,-7.45873 6.944,-12.0119 0.69707,-2.35169 0.74337,-2.80727 0.72579,-7.14213 -0.0172,-4.23177 -0.0801,-4.83511 -0.73182,-7.01145 -2.9623,-9.89299 -10.03654,-16.69035 -19.97787,-19.19596 -2.53142,-0.63802 -9.29061,-0.72539 -11.30927,-0.14618 -0.70793,0.20312 -1.88246,0.50453 -2.61007,0.66979 -1.70023,0.38617 -5.20155,2.0522 -7.33047,3.48804 -5.15524,3.47694 -9.35293,9.42099 -10.9244,15.46924 -0.57146,2.19943 -0.66284,3.12605 -0.66284,6.72156 0,5.0094 0.58614,7.77718 2.48471,11.73292 3.2598,6.7919 8.84396,11.63609 16.20708,14.05943 2.86406,0.94261 5.05795,1.19085 9.36483,1.05962 2.82855,-0.0862 4.08163,-0.2529 5.95313,-0.79204 z"
       style="fill:#000000;stroke-width:0.264583" />
  </g>
</svg>
