<?xml version="1.0" encoding="UTF-8" standalone="no"?>
<svg
   xmlns:dc="http://purl.org/dc/elements/1.1/"
   xmlns:cc="http://creativecommons.org/ns#"
   xmlns:rdf="http://www.w3.org/1999/02/22-rdf-syntax-ns#"
   xmlns:svg="http://www.w3.org/2000/svg"
   xmlns="http://www.w3.org/2000/svg"
   xmlns:sodipodi="http://sodipodi.sourceforge.net/DTD/sodipodi-0.dtd"
   xmlns:inkscape="http://www.inkscape.org/namespaces/inkscape"
   sodipodi:docname="lodge.svg"
   inkscape:version="1.0 (4035a4f, 2020-05-01)"
   id="svg8"
   version="1.1"
   viewBox="0 0 136.12314 105.66452"
   height="105.66452mm"
   width="136.12314mm">
  <defs
     id="defs2" />
  <sodipodi:namedview
     inkscape:window-maximized="0"
     inkscape:window-y="23"
     inkscape:window-x="0"
     inkscape:window-height="816"
     inkscape:window-width="1252"
     fit-margin-bottom="0"
     fit-margin-right="0"
     fit-margin-left="0"
     fit-margin-top="0"
     showgrid="false"
     inkscape:document-rotation="0"
     inkscape:current-layer="layer1"
     inkscape:document-units="mm"
     inkscape:cy="352.1845"
     inkscape:cx="308.30948"
     inkscape:zoom="0.35"
     inkscape:pageshadow="2"
     inkscape:pageopacity="0.0"
     borderopacity="1.0"
     bordercolor="#666666"
     pagecolor="#ffffff"
     id="base" />
  <metadata
     id="metadata5">
    <rdf:RDF>
      <cc:Work
         rdf:about="">
        <dc:format>image/svg+xml</dc:format>
        <dc:type
           rdf:resource="http://purl.org/dc/dcmitype/StillImage" />
        <dc:title></dc:title>
      </cc:Work>
    </rdf:RDF>
  </metadata>
  <g
     transform="translate(-24.259784,-54.984519)"
     id="layer1"
     inkscape:groupmode="layer"
     inkscape:label="Layer 1">
    <path
       id="path92"
       d="m 33.889891,160.3938 c -0.14569,-0.17554 -0.18786,-0.66801 -0.13515,-1.5784 0.19533,-3.37429 2.46922,-5.13421 6.34069,-4.9075 3.20348,0.1876 5.18008,2.02205 5.58028,5.17899 0.0922,0.72737 0.057,0.95537 -0.18939,1.22767 -0.28959,0.31999 -0.54126,0.33439 -5.84365,0.33439 -4.72989,0 -5.57202,-0.0374 -5.75278,-0.25515 z m 105.155099,-0.001 c -0.24059,-0.2899 -0.14728,-2.12192 0.16041,-3.14946 0.25226,-0.84243 1.06798,-1.92375 1.82982,-2.4256 2.03822,-1.34265 5.90541,-1.19632 7.86817,0.29774 1.02045,0.77677 1.83318,2.40957 1.95504,3.92775 0.0792,0.98689 0.0481,1.18238 -0.21933,1.37793 -0.24609,0.17994 -1.47587,0.22788 -5.84654,0.22788 -4.73484,0 -5.56565,-0.037 -5.74757,-0.25624 z m -89.502269,-3.83907 c -1.63106,-2.3946 -1.98099,-3.01682 -1.97605,-3.51367 0.004,-0.40863 0.32127,-1.17839 0.98151,-2.38176 0.53654,-0.9779 1.24013,-2.3339 1.56353,-3.01334 l 0.58802,-1.23533 11.44989,0.05 c 10.99837,0.048 11.48259,0.0634 12.27892,0.38867 1.54598,0.63155 1.54164,0.61495 1.54164,5.89707 0,4.48229 -0.0101,4.62058 -0.39093,5.33399 -0.27973,0.52406 -0.59282,0.82405 -1.10067,1.05461 -0.6743,0.30614 -1.26493,0.32241 -11.83176,0.32594 l -11.12204,0.004 z m 60.568789,2.6772 c -0.73253,-0.26501 -1.31468,-0.94523 -1.54685,-1.80742 -0.11581,-0.43009 -0.16462,-2.29144 -0.1328,-5.06397 0.0499,-4.35007 0.0534,-4.38721 0.45274,-4.81196 0.22133,-0.23542 0.75473,-0.56339 1.18534,-0.72881 0.71713,-0.27549 1.74327,-0.30499 12.21291,-0.35104 l 11.43,-0.0503 1.57271,3.09408 c 0.9242,1.81825 1.57008,3.29306 1.56633,3.57661 -0.004,0.32744 -0.63975,1.42957 -1.97695,3.429 l -1.97058,2.94648 -11.11042,-0.0129 c -8.30003,-0.01 -11.25511,-0.0652 -11.68243,-0.21981 z m -31.239569,-0.38306 -0.44642,-0.44642 v -22.1219 c 0,-19.74798 0.0283,-22.16228 0.2636,-22.49824 l 0.2636,-0.37635 h 13.44644 c 13.120799,0 13.450689,0.008 13.621729,0.32754 0.25957,0.485 0.2426,44.21281 -0.0174,44.7834 -0.10597,0.23258 -0.42214,0.50287 -0.7026,0.60063 -0.33859,0.11804 -4.78949,0.17777 -13.246239,0.17777 h -12.73628 z m 4.63912,-19.96111 c 1.08538,-0.56127 1.3156,-1.92381 0.48492,-2.8699 -0.44929,-0.51171 -0.63169,-0.59856 -1.25701,-0.59856 -0.53988,0 -0.86793,0.11482 -1.25246,0.43838 -0.45976,0.38686 -0.52036,0.54111 -0.51561,1.31234 0.006,0.91957 0.15179,1.21404 0.83663,1.68605 0.51755,0.35671 1.05566,0.36672 1.70353,0.0317 z m 8.03779,-10.7498 v -3.302 l -3.02584,-0.0463 c -2.08817,-0.032 -3.0983,0.0138 -3.25967,0.14774 -0.29053,0.24111 -0.34008,5.73364 -0.0565,6.26351 0.1675,0.31296 0.34809,0.32876 3.25967,0.2852 l 3.08234,-0.0461 z m 7.5185,3.15296 c 0.13411,-0.16161 0.1797,-1.19349 0.14773,-3.34434 l -0.0462,-3.11062 h -3.21733 -3.21734 l -0.0462,3.11062 c -0.032,2.15085 0.0136,3.18273 0.14773,3.34434 0.15122,0.1822 0.83791,0.23371 3.11584,0.23371 2.27792,0 2.96461,-0.0515 3.11583,-0.23371 z m -7.63703,-7.75882 c 0.28615,-0.28616 0.28615,-6.25011 0,-6.53627 -0.28554,-0.28554 -5.91206,-0.28554 -6.1976,0 -0.14239,0.14238 -0.2032,1.07997 -0.2032,3.13267 0,3.8543 -0.23589,3.6068 3.43746,3.6068 1.92099,0 2.82191,-0.0618 2.96334,-0.2032 z m 7.49566,0.0279 c 0.30547,-0.16349 0.32754,-0.38364 0.32754,-3.26814 0,-2.17976 -0.06,-3.15283 -0.2032,-3.29604 -0.28554,-0.28554 -5.91206,-0.28554 -6.1976,0 -0.14278,0.14277 -0.2032,1.09665 -0.2032,3.20773 0,3.78633 -0.24156,3.53174 3.35081,3.53174 1.46712,0 2.7407,-0.0763 2.92565,-0.17529 z m -61.6385,26.65057 c -1.53491,-0.53724 -2.83145,-1.68267 -3.61304,-3.19195 -0.46286,-0.89382 -0.53428,-1.21964 -0.59388,-2.70933 -0.0576,-1.43927 -0.0119,-1.84181 0.3047,-2.68286 0.58228,-1.54698 1.56099,-2.61874 3.11684,-3.41314 1.28054,-0.65384 1.38309,-0.67711 2.95599,-0.67071 1.28819,0.005 1.83321,0.0875 2.60253,0.39296 1.18854,0.47186 2.61133,1.73497 3.20458,2.84495 1.88613,3.52893 0.29895,7.99811 -3.32151,9.3527 -1.17653,0.44019 -3.50888,0.47895 -4.65621,0.0774 z m 105.127829,-0.11163 c -1.72127,-0.7219 -2.75878,-1.70222 -3.52067,-3.32659 -0.3868,-0.82466 -0.44046,-1.15567 -0.44046,-2.71706 0,-1.64336 0.0404,-1.86329 0.53362,-2.90428 0.67718,-1.42932 1.65212,-2.40426 3.08144,-3.08144 1.03053,-0.48825 1.27024,-0.53354 2.81961,-0.53271 1.48161,8.5e-4 1.81477,0.0577 2.66454,0.45517 1.34706,0.63006 2.05316,1.20715 2.72388,2.22619 0.90112,1.36909 1.18259,2.43743 1.09958,4.17357 -0.0593,1.24112 -0.15973,1.66476 -0.61247,2.5844 -0.64337,1.30686 -1.714,2.35162 -3.05187,2.97813 -0.80487,0.37691 -1.23608,0.45756 -2.65432,0.49644 -1.46097,0.0401 -1.82364,-0.008 -2.64288,-0.35182 z M 49.427181,139.67115 c -1.09431,-1.66157 -1.98966,-3.15429 -1.98966,-3.31717 0,-0.16287 0.73038,-1.69935 1.62308,-3.41439 l 1.62309,-3.11826 11.63195,0.0468 11.63196,0.0468 0.84196,0.43253 c 1.24667,0.64045 1.29842,0.89217 1.234,6.00214 -0.0599,4.7481 -0.15945,5.20304 -1.30608,5.96677 l -0.57538,0.38323 -11.36263,-0.004 -11.36262,-0.004 -1.98967,-3.02103 z m 60.318619,2.64808 c -0.31238,-0.21052 -0.72449,-0.6492 -0.91579,-0.97485 -0.32332,-0.55037 -0.35152,-0.91049 -0.40018,-5.11079 -0.0606,-5.22819 -0.0366,-5.33843 1.29204,-5.95248 0.7845,-0.36254 0.90721,-0.36662 12.43826,-0.41299 l 11.64594,-0.0468 0.91973,1.9095 c 0.50585,1.05022 1.23853,2.50718 1.62819,3.23768 0.85216,1.59757 0.96499,1.2399 -1.58432,5.02182 l -1.76924,2.62466 -11.34333,0.0435 -11.34332,0.0435 z m -71.613949,-8.09436 c -1.90735,-0.39299 -3.66608,-1.756 -4.526,-3.50762 -0.43914,-0.8945 -0.477,-1.12622 -0.477,-2.91896 0,-1.80892 0.0351,-2.0189 0.49432,-2.95411 0.65286,-1.32968 1.72058,-2.36836 3.11236,-3.0277 1.03204,-0.48891 1.28013,-0.53693 2.74332,-0.5309 2.18552,0.009 3.26456,0.4343 4.67148,1.84122 0.75209,0.75209 1.13559,1.30555 1.41827,2.04682 1.37093,3.59492 -0.22076,7.42891 -3.61066,8.69723 -1.07054,0.40055 -2.8163,0.56207 -3.82609,0.35402 z m 105.507389,-0.0135 c -1.96689,-0.32669 -3.85062,-1.7885 -4.73456,-3.67411 -0.39815,-0.84934 -0.4505,-1.16757 -0.4505,-2.73899 0,-1.58337 0.0507,-1.88621 0.46309,-2.76649 0.84647,-1.80686 2.12077,-2.92476 3.9932,-3.5031 1.3688,-0.42277 2.59072,-0.42431 3.93815,-0.005 2.08143,0.64781 3.4402,1.94927 4.23396,4.05536 0.50898,1.35048 0.41052,3.5939 -0.2176,4.95816 -0.8879,1.92849 -2.65403,3.28634 -4.78745,3.68072 -1.11279,0.20571 -1.16075,0.20558 -2.43829,-0.007 z M 49.686941,123.3579 c -2.52918,-3.83269 -2.44403,-3.54393 -1.5483,-5.25076 0.40414,-0.7701 1.13486,-2.22186 1.62382,-3.22612 l 0.88902,-1.82593 11.55868,0.0479 11.55869,0.0479 0.84667,0.42334 c 1.42741,0.7137 1.46054,0.8556 1.40343,6.01133 -0.0458,4.1349 -0.071,4.44386 -0.41365,5.08 -0.20069,0.37253 -0.61979,0.82973 -0.93133,1.016 -0.54911,0.3283 -0.91239,0.3401 -11.86732,0.38561 l -11.30086,0.047 z m 60.732689,2.58649 c -0.82389,-0.25001 -1.17591,-0.53102 -1.55589,-1.2421 -0.36943,-0.69131 -0.38156,-0.86276 -0.38156,-5.39511 0,-5.30872 -0.0511,-5.10266 1.43934,-5.79981 0.74806,-0.3499 0.97262,-0.35723 12.27666,-0.4009 l 11.51467,-0.0445 1.64429,3.21326 c 1.57796,3.08364 1.63602,3.23571 1.43934,3.76981 -0.11273,0.30611 -1.03613,1.79481 -2.052,3.30823 l -1.84704,2.75166 -11.0223,-0.0146 c -6.06226,-0.008 -11.21724,-0.0737 -11.45551,-0.14601 z M 37.785511,117.8848 c -2.11679,-0.58904 -3.91552,-2.2685 -4.48561,-4.1882 -0.32596,-1.09766 -0.32854,-3.2023 -0.005,-4.29094 0.56907,-1.91627 2.19227,-3.48488 4.27032,-4.12673 2.45797,-0.75919 4.80731,-0.16565 6.67001,1.68512 2.52849,2.5123 2.42527,7.02666 -0.21523,9.41218 -1.59545,1.4414 -4.20573,2.07304 -6.23423,1.50857 z m 105.774059,0.0933 c -1.92484,-0.34515 -3.77001,-1.80872 -4.65156,-3.68956 -0.4021,-0.85791 -0.45383,-1.17132 -0.45383,-2.74982 0,-1.67046 0.0346,-1.8518 0.55442,-2.90774 0.69085,-1.40332 2.02726,-2.67044 3.38315,-3.20774 1.37508,-0.54491 3.6217,-0.54383 5.00062,0.002 1.37006,0.54272 2.81231,1.91578 3.43992,3.27488 0.44335,0.96008 0.49123,1.23705 0.49123,2.84176 0,1.60471 -0.0479,1.88167 -0.49123,2.84176 -0.62701,1.35781 -2.0801,2.74457 -3.38897,3.23428 -1.10183,0.41225 -2.7432,0.5643 -3.88375,0.35979 z m -93.175419,-8.95979 c -0.66529,-0.30214 -0.69865,-0.35449 -0.80557,-1.26426 -0.1522,-1.29495 -0.73204,-2.5296 -1.77852,-3.78696 -0.6957,-0.8359 -1.12515,-1.17065 -2.06144,-1.60687 -1.7953,-0.83643 -1.76641,-1.21449 0.20184,-2.640636 3.05989,-2.21715 4.00185,-2.81971 4.71439,-3.01575 0.59743,-0.16438 9.61195,-0.20295 41.74067,-0.17861 l 40.978659,0.0311 0.762,0.3977 c 0.4191,0.21873 1.96697,1.19285 3.4397,2.16471 2.4582,1.622176 2.67335,1.804496 2.62467,2.224256 -0.0432,0.37281 -0.27191,0.57475 -1.23837,1.09364 -1.89656,1.01825 -3.5703,3.09401 -4.40659,5.46502 -0.16425,0.46567 -0.44855,0.98002 -0.63178,1.143 -0.31537,0.28052 -2.53449,0.29613 -41.589389,0.29261 -39.86618,-0.004 -41.27962,-0.0143 -41.95027,-0.31891 z m -23.04535,-2.57053 c -0.94658,-1.17415 -2.51033,-2.98774 -2.78923,-3.23487 -0.28459,-0.25218 -0.31707,-0.49105 -0.27443,-2.01825 l 0.0484,-1.732206 0.508,-0.15993 c 0.71043,-0.22366 4.98988,-1.89668 5.87336,-2.29614 0.40186,-0.1817 1.22594,-0.53726 1.83131,-0.79015 2.46637,-1.0303 6.11062,-3.08569 7.12806,-4.02029 0.44887,-0.41231 0.40249,-1.083842 -0.11753,-1.701854 -0.90372,-1.074002 -0.0673,-2.414998 1.95832,-3.139701 0.88184,-0.315495 4.90467,-1.969197 6.01715,-2.473526 0.2794,-0.126663 1.2319,-0.545777 2.11667,-0.931367 3.75141,-1.6349 6.604,-3.591955 6.604,-4.530766 0,-0.233326 -0.1905,-0.650626 -0.42334,-0.927334 -0.80809,-0.960365 -0.42854,-1.491527 1.65725,-2.319269 4.32446,-1.716146 10.15677,-4.599994 12.58147,-6.221042 2.26423,-1.513768 2.57317,-2.080576 1.69979,-3.118535 -0.24448,-0.29054 -0.4445,-0.594942 -0.4445,-0.676447 0,-0.185358 1.18739,-1.349826 1.37639,-1.349826 0.0765,0 1.22688,-0.466657 2.55636,-1.037018 5.51443,-2.365735 9.18874,-4.5096 12.15391,-7.091483 2.02793,-1.76579 1.82335,-1.692832 4.74676,-1.692832 h 2.57782 l 1.12138,0.825023 c 4.01852,2.956519 12.496009,7.626562 15.397919,8.482346 1.91261,0.564036 2.26415,1.10775 1.47146,2.275854 -0.52263,0.770136 -0.53159,1.047084 -0.0423,1.308201 0.20955,0.111837 1.7907,1.129711 3.51367,2.261943 3.04719,2.002436 7.65878,4.734689 8.93543,5.294023 0.34755,0.152269 1.31068,0.509747 2.14028,0.794398 1.06407,0.365095 1.60624,0.649664 1.8406,0.966067 l 0.33222,0.448523 -0.43644,0.953295 c -0.24004,0.524312 -0.40019,1.046376 -0.35589,1.160145 0.0443,0.113766 0.36493,0.36862 0.71251,0.566338 0.34758,0.197721 1.88926,1.118616 3.42596,2.046436 4.36763,2.637062 8.58724,4.827887 10.54874,5.476916 1.70804,0.565162 2.1215,1.236333 1.52978,2.483295 -0.18406,0.387877 -0.22841,0.675455 -0.127,0.823555 0.13597,0.1986 5.38211,3.442532 7.01381,4.336972 0.32597,0.17868 1.16417,0.66358 1.86267,1.07756 2.07688,1.23089 5.93636,3.12311 6.37007,3.12311 0.39624,0 0.40326,0.0277 0.40326,1.594556 0,0.877 -0.0612,1.61995 -0.13597,1.651 -0.18658,0.0774 -2.68496,3.10349 -2.91093,3.52573 -0.10029,0.18739 -0.28934,0.34071 -0.42012,0.34071 -0.13077,0 -1.17584,-0.70066 -2.32237,-1.55703 -1.14654,-0.85637 -2.86466,-2.09462 -3.81805,-2.75167 -1.45942,-1.00578 -3.90172,-2.765706 -8.35501,-6.020626 -0.44598,-0.32597 -2.62572,-1.90628 -4.84387,-3.51181 -2.21816,-1.605522 -4.7843,-3.472426 -5.70255,-4.148665 -2.27208,-1.673274 -4.28911,-3.111848 -5.1038,-3.64009 -0.37253,-0.241552 -1.40123,-0.973028 -2.286,-1.625503 -1.75184,-1.291905 -3.37141,-2.492419 -3.64,-2.698159 -0.37798,-0.289548 -12.56372,-9.080375 -15.32533,-11.055747 -1.62983,-1.165814 -4.17125,-3.012094 -5.647589,-4.102845 -1.47634,-1.090752 -3.39598,-2.478485 -4.26585,-3.083851 -0.86988,-0.605367 -2.00089,-1.39617 -2.51335,-1.75734 l -0.93175,-0.656673 -0.6444,0.498277 c -0.35441,0.274053 -1.40121,1.017328 -2.3262,1.651722 -0.92499,0.634395 -2.7368,1.943563 -4.02625,2.909263 -1.28945,0.965701 -2.89484,2.135224 -3.56753,2.598942 -0.6727,0.463719 -2.09938,1.480308 -3.17041,2.259089 -1.07104,0.778781 -4.80484,3.483813 -8.29734,6.011185 -3.4925,2.527371 -6.4262,4.656453 -6.51933,4.731295 -0.0931,0.07484 -0.43603,0.322451 -0.762,0.55024 -0.32597,0.227789 -0.66887,0.473749 -0.762,0.546578 -0.0931,0.07283 -0.62654,0.469741 -1.18534,0.88203 -0.5588,0.412289 -1.2065,0.89545 -1.43933,1.073689 -0.23283,0.178238 -1.18533,0.844551 -2.11667,1.480696 -0.93133,0.636145 -2.53153,1.776312 -3.556,2.533706 -2.73915,2.025066 -6.87146,5.029151 -11.76654,8.553971 -0.45269,0.32597 -2.41001,1.74314 -4.3496,3.14928 -1.93959,1.406126 -4.02182,2.892886 -4.62719,3.303896 -0.60537,0.41101 -1.86267,1.32398 -2.794,2.02883 -2.62739,1.98844 -2.54641,1.94688 -2.91138,1.49416 z m 27.76105,-13.332276 c -0.24175,-0.0343 -0.381,-0.17117 -0.381,-0.37441 0,-0.39947 0.48524,-0.87298 1.73354,-1.691642 0.53435,-0.350436 2.15612,-1.50266 3.60394,-2.560499 1.44782,-1.057837 2.99182,-2.178319 3.43112,-2.489958 1.99036,-1.411954 5.77206,-4.210152 6.37934,-4.720264 1.32341,-1.111678 0.31011,-1.06312 22.18522,-1.06312 22.574719,0 21.024869,-0.09456 22.884609,1.396204 1.48648,1.191553 9.56222,7.002375 12.46336,8.967885 1.27771,0.865652 2.36636,1.682694 2.41922,1.815644 0.27932,0.70262 1.39975,0.68076 -37.341719,0.72859 -20.34815,0.0251 -37.16808,0.0213 -37.37763,-0.008 z M 135.00791,78.781159 c -1.49348,-0.732971 -1.88773,-0.999324 -1.88773,-1.275341 0,-0.616522 -0.66329,-2.341815 -1.25262,-3.258193 -0.63467,-0.98689 -1.82802,-1.81314 -3.2397,-2.243098 -0.46292,-0.140992 -2.67048,-1.20227 -4.90568,-2.358393 l -4.064,-2.102042 -0.0521,-0.693085 -0.0521,-0.693084 8.85747,0.04385 8.85748,0.04385 0.0443,6.731001 c 0.0368,5.592408 0.005,6.731 -0.18661,6.731 -0.12699,0 -1.08037,-0.416907 -2.11861,-0.926462 z M 77.748181,76.508108 c -0.30199,-0.08401 -0.42333,-0.234818 -0.42333,-0.526176 0,-0.335737 0.40681,-0.681447 2.286,-1.94264 1.2573,-0.84382 3.34793,-2.285438 4.64585,-3.203592 1.29792,-0.918156 2.89812,-2.014311 3.556,-2.4359 0.65788,-0.42159 1.53905,-1.054832 1.95815,-1.407204 1.86289,-1.566286 3.26899,-1.389646 6.1853,0.777025 4.926019,3.659792 7.058329,5.202287 8.933169,6.462173 2.33212,1.567182 2.71055,1.960385 2.16681,2.251383 -0.37391,0.200113 -28.591869,0.224116 -29.307949,0.02493 z M 118.05611,61.895691 c -0.31881,-0.342203 -0.34526,-0.586695 -0.34526,-3.191089 0,-2.652061 0.0213,-2.839756 0.35635,-3.14307 0.34031,-0.308061 0.78961,-0.324666 9.98346,-0.368961 l 9.62712,-0.04638 0.55753,0.498021 0.55754,0.49802 v 2.781719 c 0,2.108686 -0.0562,2.84954 -0.2324,3.062029 -0.21146,0.255049 -1.13029,0.28031 -10.19574,0.28031 h -9.96333 z"
       style="fill:#000000;stroke-width:0.169333" />
  </g>
</svg>
