<?xml version="1.0" encoding="UTF-8" standalone="no"?>
<svg
   xmlns:dc="http://purl.org/dc/elements/1.1/"
   xmlns:cc="http://creativecommons.org/ns#"
   xmlns:rdf="http://www.w3.org/1999/02/22-rdf-syntax-ns#"
   xmlns:svg="http://www.w3.org/2000/svg"
   xmlns="http://www.w3.org/2000/svg"
   xmlns:sodipodi="http://sodipodi.sourceforge.net/DTD/sodipodi-0.dtd"
   xmlns:inkscape="http://www.inkscape.org/namespaces/inkscape"
   width="68.522194mm"
   height="37.306301mm"
   viewBox="0 0 68.522193 37.306303"
   version="1.1"
   id="svg8"
   inkscape:version="1.0 (4035a4f, 2020-05-01)"
   sodipodi:docname="logo.svg">
  <defs
     id="defs2" />
  <sodipodi:namedview
     id="base"
     pagecolor="#ffffff"
     bordercolor="#666666"
     borderopacity="1.0"
     inkscape:pageopacity="0.0"
     inkscape:pageshadow="2"
     inkscape:zoom="0.35"
     inkscape:cx="-77.906112"
     inkscape:cy="120.49872"
     inkscape:document-units="mm"
     inkscape:current-layer="layer1"
     inkscape:document-rotation="0"
     showgrid="false"
     fit-margin-top="0"
     fit-margin-left="0"
     fit-margin-right="0"
     fit-margin-bottom="0"
     inkscape:snap-midpoints="true"
     inkscape:window-width="1252"
     inkscape:window-height="801"
     inkscape:window-x="0"
     inkscape:window-y="23"
     inkscape:window-maximized="0" />
  <metadata
     id="metadata5">
    <rdf:RDF>
      <cc:Work
         rdf:about="">
        <dc:format>image/svg+xml</dc:format>
        <dc:type
           rdf:resource="http://purl.org/dc/dcmitype/StillImage" />
        <dc:title></dc:title>
      </cc:Work>
    </rdf:RDF>
  </metadata>
  <g
     inkscape:label="Layer 1"
     inkscape:groupmode="layer"
     id="layer1"
     transform="translate(-96.207896,-147.27876)">
    <path
       d=""
       id="path63"
       style="fill:#000000;stroke-width:0.264583" />
    <path
       id="path206"
       d="m 97.927687,184.27949 c -0.722482,-0.39517 -1.190625,-1.02315 -1.190625,-1.59713 0,-0.68241 0.488972,-0.59172 0.828599,0.15368 0.765274,1.6796 3.933899,1.50399 3.933899,-0.21801 0,-0.80891 -0.41812,-1.1216 -1.962574,-1.46772 -2.214817,-0.49635 -2.970502,-1.2175 -2.643034,-2.52223 0.368572,-1.46851 3.295478,-1.99184 4.485348,-0.80197 0.66485,0.66486 0.86837,1.46723 0.37216,1.46723 -0.15251,0 -0.55038,-0.3175 -0.88417,-0.70555 -0.78881,-0.91705 -2.147685,-0.9685 -2.844702,-0.10773 -0.713461,0.88109 -0.256585,1.48521 1.42093,1.87887 2.397642,0.56264 2.839132,0.9177 2.845742,2.28865 0.006,1.1876 -1.0125,1.93992 -2.611317,1.92938 -0.671599,-0.004 -1.459214,-0.13829 -1.750256,-0.29747 z m 11.244793,-3.39865 v -3.70416 h 2.51354 c 2.02564,0 2.51354,0.0749 2.51354,0.38574 0,0.29811 -0.46585,0.4033 -2.05052,0.46302 l -2.05052,0.0773 -0.0814,1.12448 -0.0814,1.12448 h 1.99959 c 1.57428,0 1.99959,0.0819 1.99959,0.38528 0,0.29475 -0.45077,0.40355 -1.91823,0.46302 l -1.91823,0.0777 v 1.19062 1.19063 l 2.05052,0.0773 c 1.58467,0.0597 2.05052,0.16491 2.05052,0.46302 0,0.31087 -0.4879,0.38575 -2.51354,0.38575 h -2.51354 z m 11.14817,3.49454 c 0.0531,-0.14309 0.69193,-1.82383 1.41954,-3.73498 1.7435,-4.57956 1.86894,-4.57153 3.75568,0.24044 0.77028,1.96453 1.40123,3.60164 1.4021,3.63802 7.9e-4,0.0364 -0.21044,0.0662 -0.46959,0.0662 -0.31696,0 -0.5984,-0.36804 -0.85989,-1.12448 l -0.38872,-1.12448 -1.47905,-0.0781 c -1.60156,-0.0846 -1.84752,0.0667 -2.27766,1.401 -0.14074,0.43656 -0.4681,0.83489 -0.72746,0.88516 -0.25936,0.0503 -0.42809,-0.0257 -0.37495,-0.16875 z m 4.46225,-2.94183 c 0,-0.48905 -1.14095,-3.20413 -1.28565,-3.05942 -0.22292,0.22292 -1.09514,2.58762 -1.09539,2.96973 -1.4e-4,0.21562 0.41418,0.33073 1.19041,0.33073 0.65484,0 1.19063,-0.10847 1.19063,-0.24104 z m 8.46666,-0.57986 v -3.73131 l 2.22137,0.0933 c 1.72309,0.0724 2.34626,0.20636 2.77812,0.59733 0.72854,0.65953 0.74696,2.11642 0.0345,2.72647 -0.45026,0.38552 -0.47155,0.50376 -0.15442,0.85731 0.20231,0.22556 0.48062,1.03518 0.61846,1.79917 0.22332,1.23785 0.20067,1.38906 -0.20804,1.38906 -0.34729,0 -0.49121,-0.28902 -0.59282,-1.19048 -0.19267,-1.70934 -0.51829,-1.98452 -2.34828,-1.98452 h -1.55511 v 1.5875 c 0,1.23472 -0.0882,1.5875 -0.39687,1.5875 -0.33402,0 -0.39688,-0.59098 -0.39688,-3.73132 z m 4.59243,-0.81878 c 0.19088,-0.30391 0.19806,-0.68876 0.0222,-1.19063 -0.24561,-0.70098 -0.35728,-0.74584 -2.04036,-0.8198 l -1.78052,-0.0782 v 1.34709 1.3471 l 1.75832,-0.0782 c 1.30686,-0.0581 1.83073,-0.19353 2.04036,-0.52729 z m 9.22326,4.13716 c -0.89068,-0.62385 -1.38027,-1.79128 -1.38027,-3.29123 0,-2.36464 1.19754,-3.70416 3.31154,-3.70416 1.41128,0 2.74188,0.8593 2.76546,1.78593 0.0139,0.54735 -0.50829,0.37473 -1.16061,-0.38364 -1.47826,-1.71858 -4.12264,-0.31584 -4.12264,2.1869 0,1.95767 1.05265,3.28997 2.59941,3.28997 0.66537,0 1.62998,-0.74894 1.90866,-1.4819 0.13273,-0.34912 0.43089,-0.63476 0.66258,-0.63476 0.62342,0 0.24761,1.03336 -0.6976,1.91823 -0.62284,0.58306 -1.02751,0.7276 -2.0371,0.7276 -0.71345,0 -1.51557,-0.1791 -1.84943,-0.41294 z m 11.84889,-3.29123 c 0,-3.1162 0.063,-3.70416 0.39688,-3.70416 0.30868,0 0.39687,0.35277 0.39687,1.5875 v 1.5875 h 1.98438 1.98438 v -1.5875 c 0,-1.23473 0.0882,-1.5875 0.39687,-1.5875 0.33388,0 0.39688,0.58796 0.39688,3.70416 0,3.11621 -0.063,3.70417 -0.39688,3.70417 -0.31207,0 -0.39687,-0.36748 -0.39687,-1.71979 v -1.71979 h -1.98438 -1.98438 v 1.71979 c 0,1.35231 -0.0848,1.71979 -0.39687,1.71979 -0.33388,0 -0.39688,-0.58796 -0.39688,-3.70417 z m -61.550344,-5.42821 c 1.634353,-0.4489 2.683514,-1.45136 3.052464,-2.91661 0.18519,-0.73545 0.28746,-4.80306 0.28374,-11.28536 -0.005,-9.37466 -0.0434,-10.21829 -0.50699,-11.23929 -0.592661,-1.30532 -1.452896,-1.93347 -2.916701,-2.12981 -0.587627,-0.0788 -1.068413,-0.24669 -1.068413,-0.37305 0,-0.12636 4.925714,-0.22975 10.946034,-0.22975 h 10.94603 l 0.15801,1.52136 c 0.42635,4.10524 0.48976,5.35781 0.27122,5.35781 -0.13017,0 -0.45393,-0.6117 -0.71946,-1.35933 -0.30606,-0.86172 -0.9398,-1.81633 -1.73119,-2.60773 -1.75466,-1.75465 -3.2105,-2.19078 -7.42482,-2.22428 l -3.3177,-0.0264 -0.071,6.32089 -0.071,6.32089 1.78277,-0.18265 c 0.98053,-0.10045 2.26264,-0.39492 2.84915,-0.65436 1.39027,-0.61499 2.69037,-2.1191 3.05387,-3.53307 0.15948,-0.62037 0.33369,-1.24701 0.38712,-1.39253 0.0534,-0.14552 0.10655,2.56315 0.11804,6.01927 0.0196,5.89761 -0.21792,7.87747 -0.60568,5.04851 -0.40511,-2.95562 -2.31721,-4.5822 -5.63695,-4.79525 l -1.93857,-0.12441 0.002,5.39261 c 8.2e-4,2.96592 0.11912,5.81608 0.26291,6.33368 0.35582,1.28082 1.5306,2.33391 3.07763,2.75883 1.16262,0.31932 0.6176,0.35381 -5.59097,0.35381 -6.208572,0 -6.753592,-0.0345 -5.590976,-0.35381 z m 23.538314,-0.073 c -3.10555,-1.10869 -4.62177,-3.23991 -4.62315,-6.49836 -0.001,-3.36604 1.18024,-5.46096 4.43665,-7.86553 l 1.88585,-1.39252 -0.91727,-1.43393 c -1.69165,-2.64447 -2.30715,-4.85367 -1.88284,-6.75799 0.60195,-2.70157 2.68728,-4.15253 5.96803,-4.15253 3.81816,0 5.89434,1.69705 5.89133,4.81551 -0.002,2.18041 -0.99134,3.50156 -4.03307,5.38627 -0.69096,0.42814 -1.25651,0.87571 -1.25677,0.99461 -7.9e-4,0.31163 6.70606,9.1512 6.95364,9.16499 0.11398,0.006 0.73906,-1.08115 1.38906,-2.41665 1.45296,-2.98527 1.5746,-4.3682 0.46124,-5.24396 -0.39632,-0.31175 -1.05116,-0.63293 -1.45521,-0.71374 -1.79886,-0.35977 -0.41169,-0.60994 3.38204,-0.60994 3.89132,0 5.01252,0.24671 2.91201,0.64077 -1.29251,0.24248 -2.7261,1.97879 -4.57273,5.53833 -0.84144,1.62196 -1.56943,3.10324 -1.61775,3.29173 -0.12949,0.50511 3.14687,4.05206 4.78524,5.18045 1.97631,1.36114 3.05764,1.49809 4.14388,0.52483 0.51554,-0.46192 0.93918,-1.16829 1.08834,-1.81466 0.3298,-1.42915 0.32438,-19.00909 -0.006,-20.79982 -0.32775,-1.77422 -1.54747,-3.04748 -3.16749,-3.30653 -2.55917,-0.40923 -0.60273,-0.63219 5.54741,-0.63219 6.12537,0 8.10668,0.22294 5.57672,0.6275 -1.33863,0.21405 -2.58061,1.26944 -2.943,2.50086 -0.19007,0.64583 -0.25835,4.35836 -0.20322,11.04815 l 0.083,10.07546 0.79375,1.27766 c 1.12972,1.81846 2.29971,2.36101 5.33698,2.47489 3.17923,0.11919 5.00091,-0.39335 6.58381,-1.85242 1.22785,-1.13179 2.32576,-3.12585 2.63728,-4.78992 0.10246,-0.54731 0.29186,-1.06035 0.42088,-1.14009 0.26636,-0.16461 0.31783,5.82964 0.0633,7.36987 l -0.16548,1.00133 -13.3915,-0.0753 -13.3915,-0.0753 -1.29992,-0.64474 c -0.71496,-0.3546 -2.02912,-1.32685 -2.92036,-2.16056 l -1.62043,-1.51584 -1.26965,1.44007 c -1.7775,2.01609 -3.44243,2.81422 -6.11881,2.93322 -1.57606,0.0701 -2.46586,-0.0306 -3.48391,-0.394 z m 6.93795,-1.13573 c 0.71092,-0.21914 2.28757,-1.63898 3.25391,-2.93027 0.28255,-0.37757 -0.24996,-1.18426 -3.79967,-5.75614 -4.54496,-5.85371 -4.32961,-5.70855 -5.832,-3.93103 -1.33621,1.58088 -1.81529,3.02451 -1.82392,5.49606 -0.01,2.80487 0.68769,4.55249 2.42849,6.0848 1.688,1.48584 3.34851,1.78399 5.77319,1.03658 z m -0.8545,-17.39273 c 1.87198,-1.91708 2.5094,-4.92033 1.51107,-7.11954 -0.70541,-1.55397 -1.88448,-2.25008 -3.56503,-2.10478 -1.09051,0.0943 -1.45138,0.27105 -2.18281,1.06918 -1.00508,1.09672 -1.15994,2.41882 -0.47527,4.05746 0.42621,1.02006 3.2726,5.10861 3.55654,5.10861 0.0926,0 0.61257,-0.45492 1.1555,-1.01093 z"
       style="fill:#000000;stroke-width:0.264583" />
  </g>
</svg>
