<?xml version="1.0" encoding="UTF-8" standalone="no"?>
<svg
   xmlns:dc="http://purl.org/dc/elements/1.1/"
   xmlns:cc="http://creativecommons.org/ns#"
   xmlns:rdf="http://www.w3.org/1999/02/22-rdf-syntax-ns#"
   xmlns:svg="http://www.w3.org/2000/svg"
   xmlns="http://www.w3.org/2000/svg"
   xmlns:sodipodi="http://sodipodi.sourceforge.net/DTD/sodipodi-0.dtd"
   xmlns:inkscape="http://www.inkscape.org/namespaces/inkscape"
   sodipodi:docname="Mainlogo.svg"
   inkscape:version="1.0 (4035a4f, 2020-05-01)"
   id="svg8"
   version="1.1"
   viewBox="0 0 225.93291 122.23421"
   height="122.23421mm"
   width="225.93291mm">
  <defs
     id="defs2" />
  <sodipodi:namedview
     inkscape:window-maximized="0"
     inkscape:window-y="23"
     inkscape:window-x="0"
     inkscape:window-height="811"
     inkscape:window-width="1252"
     showgrid="false"
     inkscape:document-rotation="0"
     inkscape:current-layer="layer1"
     inkscape:document-units="mm"
     inkscape:cy="396.36466"
     inkscape:cx="296.41941"
     inkscape:zoom="0.62543484"
     inkscape:pageshadow="2"
     inkscape:pageopacity="0.0"
     borderopacity="1.0"
     bordercolor="#666666"
     pagecolor="#ffffff"
     id="base" />
  <metadata
     id="metadata5">
    <rdf:RDF>
      <cc:Work
         rdf:about="">
        <dc:format>image/svg+xml</dc:format>
        <dc:type
           rdf:resource="http://purl.org/dc/dcmitype/StillImage" />
        <dc:title></dc:title>
      </cc:Work>
    </rdf:RDF>
  </metadata>
  <g
     transform="translate(-45.205952,-61.23214)"
     id="layer1"
     inkscape:groupmode="layer"
     inkscape:label="Layer 1">
    <path
       d=""
       id="path24"
       style="fill:#ff00ff;stroke-width:0.264583" />
    <path
       id="path40"
       d="M 72.16411,172.99351 C 70.322117,162.81559 54.362128,98.765041 53.038218,96.237571 c -0.211831,-0.4044 -1.462032,-1.095524 -2.778225,-1.535834 -4.880888,-1.63279 -3.450386,-1.987046 8.023808,-1.987046 10.730312,0 13.030481,0.387406 8.808544,1.483576 -1.102111,0.28614 -2.907547,0.75492 -4.012079,1.04172 -1.709965,0.444004 -1.971812,0.685824 -1.762976,1.628124 0.134896,0.60866 1.026351,5.051719 1.981012,9.873459 2.855545,14.4226 10.814369,46.61449 11.801972,47.73666 0.44243,0.50271 3.544195,-11.02698 7.721038,-28.70019 3.896687,-16.4878 6.588811,-29.448069 6.198139,-29.838739 -0.156161,-0.15616 -1.715807,-0.607604 -3.46588,-1.003194 -1.750072,-0.39559 -3.689171,-0.8361 -4.309109,-0.97892 -0.619938,-0.14281 -1.12716,-0.4808 -1.12716,-0.75108 0,-0.619021 17.863864,-0.671922 18.245746,-0.054 0.14867,0.24056 -1.049165,0.91849 -2.66186,1.50651 l -2.932175,1.069124 -1.564731,5.381689 c -2.061543,7.09041 -15.839455,65.0296 -17.094008,71.88411 -0.340394,1.85982 -0.779838,3.38148 -0.976542,3.38148 -0.196704,0 -0.633034,-1.52166 -0.969622,-3.38148 z m 0.873861,-6.38012 c 0.410077,-1.48517 -0.22608,-4.68695 -4.255126,-21.41604 -2.605508,-10.81838 -6.320671,-26.30881 -8.255918,-34.42317 -1.935247,-8.11435 -3.630059,-14.933669 -3.76625,-15.154029 -0.444113,-0.718594 -1.691369,-0.421274 -1.691369,0.40319 0,0.7477 2.089161,9.594989 8.741414,37.018619 1.470389,6.06162 3.986367,16.48784 5.591064,23.1694 1.604697,6.68155 2.970819,12.14827 3.035827,12.14827 0.06501,0 0.33517,-0.78581 0.600358,-1.74624 z m 169.666159,5.63775 C 239.92953,159.11627 227.664,109.08451 225.2328,100.98465 l -1.65278,-5.506439 -2.47365,-0.913884 c -1.36051,-0.50263 -2.68782,-1.12442 -2.94957,-1.38176 -0.2951,-0.2901 3.74965,-0.467876 10.6454,-0.467876 6.11672,0 11.12131,0.188556 11.12131,0.419016 0,0.23046 -1.80346,0.83091 -4.00768,1.33434 -2.59273,0.59217 -4.00768,1.155524 -4.00768,1.595624 0,3.6718 11.24801,51.590449 13.4424,57.267169 0.3686,0.95354 0.55766,1.07187 0.79227,0.49588 1.97978,-4.86055 14.1522,-57.161989 13.53577,-58.159389 -0.10718,-0.17343 -2.12591,-0.720574 -4.48605,-1.215864 -2.36015,-0.49529 -4.40746,-1.08868 -4.54959,-1.31865 -0.14213,-0.22997 3.92538,-0.418126 9.03891,-0.418126 5.11353,0 9.29732,0.178746 9.29732,0.397216 0,0.21847 -1.24425,0.82016 -2.765,1.33707 l -2.765,0.939864 -1.22954,4.04824 c -0.67625,2.226539 -2.34661,8.669599 -3.71191,14.317929 -5.9866,24.76681 -11.66553,48.87252 -13.0208,55.2702 -0.80713,3.81017 -1.56659,7.02666 -1.68768,7.14775 -0.1211,0.12109 -0.6139,-1.64372 -1.09512,-3.92182 z m 1.19185,-7.35413 c 0.0194,-0.66456 -3.43222,-15.65579 -7.67018,-33.31383 -4.23796,-17.65804 -7.9088,-33.007249 -8.15741,-34.109369 -0.3484,-1.54448 -0.71727,-2.04194 -1.60913,-2.170054 -0.91987,-0.13213 -1.10197,0.0219 -0.88814,0.751444 0.14794,0.50471 2.64841,10.836659 5.55661,22.959889 8.63689,36.00417 11.30562,47.0336 11.63655,48.09214 l 0.31324,1.00192 0.39162,-1.00192 c 0.2154,-0.55105 0.40747,-1.54565 0.42684,-2.21022 z M 113.00005,163.5034 c -0.17619,-0.17619 -0.32035,-1.87578 -0.32035,-3.77685 0,-3.45212 0.002,-3.4563 1.339,-3.29799 1.09021,0.12906 1.47735,0.57527 2.08352,2.40138 0.79484,2.3945 0.80457,2.38924 2.06771,-1.1157 0.36632,-1.01646 0.83384,-1.37764 1.78323,-1.37764 1.27573,0 1.28549,0.0308 1.13956,3.59188 -0.1743,4.25359 -1.25254,5.3888 -1.49606,1.57512 l -0.154,-2.41172 -1.13836,2.46855 c -1.26478,2.7427 -1.64027,2.67582 -3.15062,-0.56113 l -0.89,-1.90742 -0.0406,2.09951 c -0.039,2.01901 -0.55004,2.98505 -1.22307,2.31201 z m 12.48991,-0.43963 c -1.22614,-1.22613 -0.99771,-3.5604 0.44065,-4.50285 2.24171,-1.46883 4.65613,0.37146 3.9867,3.03869 -0.53282,2.12296 -2.96441,2.9271 -4.42735,1.46416 z m 2.71949,-2.21853 c 0,-1.61225 -1.28851,-2.14346 -1.82267,-0.75144 -0.40794,1.06304 0.14984,2.25432 1.05551,2.25432 0.51843,0 0.76716,-0.48727 0.76716,-1.50288 z m 5.32996,2.65816 c -0.1762,-0.17619 -0.32036,-1.38366 -0.32036,-2.68326 0,-2.1782 0.10769,-2.38404 1.37764,-2.63325 1.92302,-0.37737 2.68422,0.54333 1.2524,1.51482 -0.72148,0.48952 -1.12716,1.27304 -1.12716,2.17699 0,1.41828 -0.58508,2.22214 -1.18252,1.6247 z m 13.12817,-2.38257 c -0.14999,-2.41027 -0.0525,-2.78167 0.72976,-2.78108 0.7729,5.1e-4 0.88106,0.3736 0.75144,2.59135 -0.21062,3.60356 -1.2604,3.73803 -1.4812,0.18973 z m 5.32227,2.11981 c -0.16417,-0.42785 -0.22792,-1.73545 -0.14166,-2.9058 0.14816,-2.01004 0.24818,-2.13494 1.80579,-2.25503 2.27156,-0.17512 3.19815,0.88765 3.01073,3.4532 -0.21457,2.93732 -1.5964,2.86615 -1.8095,-0.0932 -0.18643,-2.58894 -1.26671,-2.62835 -1.50825,-0.055 -0.18789,2.00175 -0.91799,3.00017 -1.35711,1.85587 z m 9.15771,0.0693 c -1.68907,-0.9838 -0.70826,-5.47043 1.19587,-5.47043 1.22612,0 2.43609,1.12843 2.43609,2.27194 0,1.04329 -0.23765,1.23478 -1.53245,1.23478 -0.98199,0 -1.41076,0.19689 -1.19368,0.54813 0.18632,0.30147 0.87593,0.44545 1.53245,0.31995 1.35266,-0.25858 1.68362,0.84055 0.40126,1.33264 -1.09457,0.42003 -1.81467,0.35992 -2.83954,-0.23701 z m 2.12908,-3.46659 c 0,-0.27553 -0.33815,-0.50096 -0.75144,-0.50096 -0.4133,0 -0.75144,0.22543 -0.75144,0.50096 0,0.27552 0.33814,0.50096 0.75144,0.50096 0.41329,0 0.75144,-0.22544 0.75144,-0.50096 z m 18.86364,3.09155 c -0.93036,-1.02803 -1.10253,-4.14938 -0.3105,-5.62929 0.58774,-1.09821 2.9373,-1.32039 3.88986,-0.36783 0.33063,0.33063 0.60115,1.64829 0.60115,2.92811 0,3.47396 -2.29158,5.15625 -4.18051,3.06901 z m 2.42715,-2.88282 c 0,-1.40208 -0.21252,-1.96209 -0.74458,-1.96209 -0.88091,0 -1.22156,1.33834 -0.78418,3.08096 0.474,1.88858 1.52876,1.11661 1.52876,-1.11887 z m 13.49989,3.35545 c -0.47846,-0.47846 -0.18948,-1.05938 0.52699,-1.05938 0.5427,0 0.75144,-0.55663 0.75144,-2.00384 0,-1.44722 -0.20874,-2.00384 -0.75144,-2.00384 -0.41329,0 -0.75144,-0.14423 -0.75144,-0.3205 0,-0.56034 1.72012,-1.65088 2.63004,-1.66741 0.73929,-0.0134 0.87668,0.4551 0.87668,2.98983 0,1.66986 0.22264,3.00576 0.50096,3.00576 0.27553,0 0.50096,0.20175 0.50096,0.44833 0,0.46054 -3.88114,1.0141 -4.28419,0.61105 z m -58.83676,-0.37406 c 0,-0.17412 0.46925,-1.07585 1.04278,-2.00384 l 1.04278,-1.68724 h -1.04278 c -0.57353,0 -1.04278,-0.22544 -1.04278,-0.50096 0,-0.27553 0.90173,-0.50096 2.00384,-0.50096 2.16525,0 2.48461,0.57463 1.23647,2.22482 -0.93719,1.23908 -0.93233,1.78286 0.0159,1.78286 0.41329,0 0.75144,0.22543 0.75144,0.50096 0,0.27552 -0.90173,0.50096 -2.00384,0.50096 -1.10211,0 -2.00384,-0.14247 -2.00384,-0.3166 z m 34.06527,-0.11548 c 0,-0.23764 0.67301,-1.27894 1.49556,-2.314 1.56783,-1.97285 1.54821,-3.02228 -0.0487,-2.60468 -0.51968,0.1359 -1.05534,0.0684 -1.19034,-0.15007 -0.44101,-0.71357 1.1535,-1.58871 2.59373,-1.42357 1.87115,0.21455 2.18739,2.33941 0.63965,4.29785 l -1.08597,1.37415 1.30284,0.15851 c 2.2905,0.27868 1.39476,1.09389 -1.20198,1.09389 -1.37764,0 -2.5048,-0.19444 -2.5048,-0.43208 z m 16.53168,-0.12181 c 0,-0.30463 0.56358,-1.22366 1.2524,-2.04227 1.68445,-2.00186 1.66755,-3.12722 -0.0405,-2.69851 -1.06089,0.26626 -1.26243,0.16362 -1.12299,-0.5719 0.11998,-0.63286 0.71603,-0.94181 2.02749,-1.05087 1.646,-0.13688 1.89533,-0.004 2.18933,1.16745 0.23705,0.94449 0.0273,1.73374 -0.73456,2.76423 -1.35235,1.82915 -1.33785,1.98384 0.18606,1.98384 0.68882,0 1.2524,0.22543 1.2524,0.50096 0,0.27552 -1.12716,0.50096 -2.5048,0.50096 -1.49545,0 -2.5048,-0.2232 -2.5048,-0.55389 z M 146.4675,157.2949 c -0.51625,-0.83531 0.64484,-1.79319 1.33592,-1.10211 0.57807,0.57806 0.21628,1.64672 -0.5575,1.64672 -0.24301,0 -0.59329,-0.24508 -0.77842,-0.54461 z m -57.33292,-5.21646 c 0,-0.66431 7.987525,-0.75144 68.88198,-0.75144 60.89447,0 68.88199,0.0871 68.88199,0.75144 0,0.6643 -7.98752,0.75144 -68.88199,0.75144 -60.894455,0 -68.88198,-0.0871 -68.88198,-0.75144 z m 4.25816,-2.28032 c 0.826583,-0.23357 2.112943,-0.55052 2.858577,-0.70434 1.081076,-0.223 1.43511,-0.65938 1.747734,-2.15422 0.507377,-2.42607 0.522841,-27.99793 0.01803,-29.80307 -0.313956,-1.12266 -0.684837,-1.38689 -2.00384,-1.42758 -0.890227,-0.0275 -2.182166,-0.23043 -2.870985,-0.45102 -0.720892,-0.23087 2.680761,-0.39713 8.015364,-0.39176 5.26175,0.005 8.61813,0.17464 7.76488,0.39176 -0.82659,0.21032 -2.21759,0.40909 -3.09113,0.44169 -1.57,0.0586 -1.5921,0.0952 -1.92356,3.19034 -0.18441,1.72209 -0.25872,9.05703 -0.16511,16.29988 0.18594,14.38698 0.11565,14.07358 3.17596,14.1609 0.82658,0.0236 1.95374,0.23662 2.5048,0.47342 0.60502,0.25999 -2.66937,0.42423 -8.26584,0.41461 -5.943054,-0.0102 -8.728622,-0.16828 -7.764884,-0.44061 z m 7.5144,-17.29886 c 0,-14.32375 -0.0987,-16.48993 -0.75144,-16.48993 -0.649532,0 -0.769406,2.17354 -0.883886,16.02638 -0.07284,8.81451 -0.01638,16.32887 0.125506,16.69858 0.141872,0.3697 0.539619,0.57829 0.88388,0.46354 0.48371,-0.16124 0.62594,-3.95563 0.62594,-16.69857 z m 11.52208,17.32189 c 0.82658,-0.24624 2.09588,-0.56927 2.82066,-0.71785 0.81098,-0.16625 1.43648,-0.70574 1.62643,-1.40278 0.54404,-1.99637 0.89356,-22.00547 0.47035,-26.92618 l -0.4088,-4.75323 -2.72276,-0.39083 c -1.49752,-0.21496 -2.85011,-0.52093 -3.00576,-0.67994 -0.15565,-0.159 5.57823,-0.19679 12.74195,-0.084 15.57653,0.24529 17.08704,0.61627 21.83308,5.36231 3.59468,3.59468 4.72002,6.6015 4.70182,12.56282 -0.0109,3.57951 -0.23431,4.73721 -1.40158,7.26392 -1.80026,3.89691 -4.72021,6.83682 -8.54282,8.60124 l -3.06459,1.41453 -13.27543,0.0988 c -8.42648,0.0627 -12.7265,-0.0647 -11.77255,-0.34886 z m 7.5144,-17.32189 c 0,-14.32375 -0.0987,-16.48993 -0.75144,-16.48993 -0.64953,0 -0.76941,2.17354 -0.88389,16.02638 -0.0728,8.81451 -0.0164,16.32887 0.12551,16.69858 0.14187,0.3697 0.53962,0.57829 0.88388,0.46354 0.4837,-0.16124 0.62594,-3.95563 0.62594,-16.69857 z m 14.85566,15.2239 c 3.10527,-0.90533 6.50873,-3.87858 8.17958,-7.14567 1.38597,-2.71004 1.51178,-3.3759 1.51178,-8.00106 0,-4.52482 -0.14627,-5.3429 -1.41853,-7.93383 -1.71845,-3.49954 -4.832,-6.05187 -8.81263,-7.22414 -2.85523,-0.84085 -10.23229,-1.15044 -10.9256,-0.45852 -0.21148,0.21106 -0.45315,7.11627 -0.53704,15.34491 l -0.15254,14.96115 1.9059,0.49726 c 4.12797,1.07702 6.44848,1.06794 10.24908,-0.0401 z m 3.76073,0.13046 c 2.88618,-1.31046 6.03435,-4.61188 7.6044,-7.97458 1.1255,-2.41056 1.31949,-3.50013 1.31041,-7.36039 -0.009,-3.89916 -0.2003,-4.91861 -1.37066,-7.31075 -2.40157,-4.90865 -6.80207,-8.29756 -11.88319,-9.1515 -1.31249,-0.22058 -1.09624,-0.0622 0.86008,0.62985 7.51304,2.65782 11.00208,8.2698 10.56387,16.99156 -0.34629,6.89192 -3.06806,11.4116 -8.4384,14.01246 -2.74749,1.33062 -1.53862,1.47652 1.35349,0.16335 z m 15.44887,1.97233 c 0.55105,-0.23722 1.61776,-0.56338 2.37045,-0.72479 1.80136,-0.3863 1.96889,-0.73273 9.21978,-19.06496 5.33649,-13.49212 6.28046,-15.52975 7.19442,-15.52975 0.90115,0 1.8019,1.79571 6.28219,12.52399 2.87662,6.8882 6.30349,14.6656 7.61528,17.28312 2.15913,4.30829 2.54171,4.78921 4.03861,5.07677 3.61715,0.69486 1.8834,0.93253 -6.4544,0.88481 -5.15146,-0.0295 -8.2121,-0.21421 -7.47266,-0.45102 0.68882,-0.2206 1.9287,-0.42701 2.75528,-0.4587 2.73308,-0.10476 2.88972,-0.50229 1.70888,-4.33687 -0.58776,-1.90865 -1.38757,-4.09021 -1.77735,-4.84791 l -0.7087,-1.37764 h -7.18971 c -5.15783,0 -7.32747,0.17697 -7.67715,0.6262 -0.93151,1.19668 -3.26124,8.35959 -2.96773,9.12447 0.18968,0.49429 0.97277,0.78208 2.18961,0.8047 1.04187,0.0193 2.34518,0.22895 2.89624,0.46575 0.62217,0.26736 -1.65628,0.43103 -6.01152,0.43184 -4.36136,0.001 -6.63457,-0.16179 -6.01152,-0.43001 z m 31.30999,-0.91742 c 0,-0.22804 -2.91783,-7.38088 -6.48408,-15.8952 -4.4356,-10.58985 -6.59159,-15.20043 -6.82436,-14.59384 -0.29122,0.75892 3.85955,11.28232 11.25083,28.52411 0.88901,2.0738 2.05761,3.18977 2.05761,1.96493 z m -7.68492,-11.77186 c 0.41501,-0.415 -0.90685,-3.89324 -3.93592,-10.35671 -1.917,-4.09052 -2.56762,-5.07916 -2.92617,-4.44639 -0.5369,0.94751 -5.99234,14.28829 -5.99234,14.65371 0,0.73717 12.12572,0.87809 12.85443,0.14939 z m 17.45364,12.66562 c 0.82658,-0.23587 2.10913,-0.55373 2.85011,-0.70638 1.15814,-0.23858 1.40171,-0.61125 1.73534,-2.65518 0.50295,-3.08128 0.53149,-27.50444 0.0343,-29.30424 -0.31046,-1.12371 -0.67897,-1.38685 -1.99919,-1.42758 -0.89024,-0.0275 -2.18218,-0.23043 -2.871,-0.45102 -0.71986,-0.23054 2.6884,-0.39502 8.01536,-0.38679 8.40796,0.013 8.98949,0.0677 6.26832,0.58965 -2.97123,0.56994 -3.00276,0.59407 -3.35261,2.5658 -0.19425,1.09475 -0.36616,8.01283 -0.38204,15.37351 -0.0288,13.31855 -0.0235,13.38591 1.08111,13.97709 1.32558,0.70943 9.5681,1.21393 12.09333,0.74019 1.63824,-0.30733 1.87576,-0.58255 2.88014,-3.33716 1.29273,-3.54541 2.09511,-4.32485 1.67867,-1.63065 -0.16285,1.05351 -0.45265,3.04263 -0.64402,4.42027 l -0.34794,2.5048 -14.27137,0.0783 c -8.61135,0.0472 -13.67531,-0.0918 -12.76847,-0.35057 z m 7.26392,-17.26129 c 0,-14.5835 -0.0984,-16.78215 -0.75144,-16.78215 -0.65269,0 -0.75144,2.16154 -0.75144,16.44818 0,9.0465 0.15029,16.59847 0.33397,16.78215 0.18368,0.18369 0.52183,0.33398 0.75144,0.33398 0.22961,0 0.41747,-7.55197 0.41747,-16.78216 z m -94.30569,-19.66249 c -12.027306,-0.0874 -18.91124,-0.31764 -18.91124,-0.63241 0,-0.32173 13.71845,-0.49477 39.20011,-0.49447 49.6191,5e-4 98.56386,0.53866 98.56386,1.08356 0,0.3755 -69.66321,0.40089 -118.85273,0.0433 z m 17.78407,-8.39357 c -1.14347,-0.81761 -1.54232,-2.25201 -0.6262,-2.25201 0.27553,0 0.50096,0.2175 0.50096,0.48333 0,0.94915 1.9397,1.59009 3.03621,1.00326 1.46277,-0.78286 0.98893,-1.56426 -1.4394,-2.37371 -1.81592,-0.60531 -2.09777,-0.89319 -2.09777,-2.142759 0,-1.45845 1.12181,-2.48068 2.72235,-2.48068 0.8711,0 2.78821,1.72224 2.78821,2.5048 0,0.787629 -1.3635,0.58483 -1.68404,-0.25048 -0.15859,-0.41329 -0.87554,-0.75144 -1.59321,-0.75144 -2.08537,0 -1.35799,1.61605 1.02692,2.281539 1.55765,0.43465 2.02855,0.82566 2.12963,1.76829 0.0714,0.66564 -0.0525,1.48865 -0.27539,1.82891 -0.68763,1.04998 -3.24858,1.26735 -4.48827,0.38095 z m 50.64041,0.014 c -2.2824,-1.59866 -2.04519,-5.795709 0.39901,-7.059649 1.68448,-0.87108 2.90184,-0.63899 4.20575,0.80182 1.1308,1.24952 0.56103,1.936339 -0.67692,0.816 -1.15068,-1.04134 -2.77455,-1.06971 -3.60999,-0.0631 -0.90917,1.095489 -0.71227,3.838719 0.33025,4.601029 1.21658,0.88959 1.55482,0.82042 2.98593,-0.6107 1.4429,-1.44289 1.70782,-1.52624 1.70782,-0.53732 0,0.89196 -2.3564,2.79164 -3.46281,2.79164 -0.45259,0 -1.29816,-0.33289 -1.87904,-0.73975 z m -38.74262,-3.51841 v -3.757199 h 2.75528 c 1.5154,0 2.75528,0.22544 2.75528,0.50096 0,0.27553 -1.03012,0.50096 -2.28916,0.50096 -2.08741,0 -2.27506,0.0993 -2.12908,1.12716 0.12859,0.905399 0.52968,1.157749 2.03868,1.282639 2.51182,0.20789 2.41031,1.09692 -0.12524,1.09692 -1.66986,0 -2.00384,0.16699 -2.00384,1.00192 0,0.85349 0.33398,1.00192 2.25432,1.00192 1.23988,0 2.25432,0.22543 2.25432,0.50096 0,0.27553 -1.23988,0.50096 -2.75528,0.50096 h -2.75528 z m 11.52208,3.31723 c 0,-1.25699 2.49711,-6.844179 3.11471,-6.969039 0.75573,-0.15279 3.82933,6.643469 3.26137,7.211439 -0.45404,0.45404 -1.36648,-0.27004 -1.36648,-1.0844 0,-1.20313 -3.36609,-0.95224 -3.7572,0.28005 -0.31453,0.99098 -1.2524,1.4118 -1.2524,0.56195 z m 4.00001,-3.44247 c -0.0154,-1.756219 -0.78683,-2.231339 -1.40832,-0.867319 -0.77084,1.691799 -0.75844,1.743999 0.41407,1.743999 0.62316,0 0.99902,-0.33142 0.99425,-0.87668 z m 9.02495,0.12524 v -3.757199 h 2.4046 c 2.65776,0 3.60691,0.61959 3.60691,2.35452 0,0.633709 -0.27051,1.152199 -0.60115,1.152199 -0.46756,0 -0.46756,0.13359 0,0.60115 0.8813,0.88129 0.76989,3.40653 -0.15028,3.40653 -0.50096,0 -0.75144,-0.50096 -0.75144,-1.50288 0,-1.3836 -0.13916,-1.50288 -1.75336,-1.50288 -1.61421,0 -1.75336,0.11928 -1.75336,1.50288 0,0.82658 -0.22544,1.50288 -0.50096,1.50288 -0.28945,0 -0.50096,-1.58637 -0.50096,-3.7572 z m 4.41824,-1.628119 c 0.14036,-0.98829 -0.0602,-1.12716 -1.62812,-1.12716 -1.58523,0 -1.7882,0.14576 -1.7882,1.28414 0,1.146999 0.17387,1.267379 1.62812,1.127159 1.24786,-0.12032 1.6655,-0.42023 1.7882,-1.284139 z m 21.63167,1.628119 c 0,-2.932109 0.15805,-3.757199 0.7197,-3.757199 0.44579,0 0.77944,0.61964 0.87668,1.62812 0.14432,1.496839 0.29837,1.628119 1.91034,1.628119 1.61197,0 1.76602,-0.13128 1.91034,-1.628119 0.30223,-3.1346 1.09542,-1.59294 1.09542,2.129079 0,2.17083 -0.21152,3.7572 -0.50096,3.7572 -0.27553,0 -0.50096,-0.6763 -0.50096,-1.50288 0,-1.41939 -0.11132,-1.50288 -2.00384,-1.50288 -1.89252,0 -2.00384,0.0835 -2.00384,1.50288 0,1.00192 -0.25048,1.50288 -0.75144,1.50288 -0.60115,0 -0.75144,-0.75144 -0.75144,-3.7572 z m -63.80131,-5.105519 c -0.19052,-0.19052 0.38596,-0.585034 1.28108,-0.876684 2.6823,-0.87396 2.89045,-1.87269 2.89863,-13.907381 0.008,-11.904434 -0.23047,-13.176822 -2.56662,-13.689928 -0.78852,-0.173188 -1.43368,-0.522409 -1.43368,-0.776044 0,-0.758767 22.03201,-0.595472 22.26795,0.165044 0.38398,1.237717 0.67406,6.887918 0.35297,6.875274 -0.18051,-0.0071 -0.73974,-0.905607 -1.24272,-1.996664 -1.4237,-3.088266 -3.11765,-3.9994 -8.0876,-4.350135 l -4.27332,-0.301572 v 6.336407 6.336407 h 1.98641 c 2.40554,0 5.09552,-2.105267 5.90083,-4.618197 0.42624,-1.330041 0.53655,-0.323372 0.57793,5.273962 0.0332,4.496773 -0.12418,6.809409 -0.44982,6.608153 -0.27553,-0.170286 -0.50096,-0.809726 -0.50096,-1.420978 0,-2.410798 -3.00533,-4.841021 -5.98663,-4.841021 h -1.52776 v 5.535437 c 0,6.440136 0.65433,8.346776 3.02732,8.821376 0.81472,0.16295 1.48131,0.493524 1.48131,0.734604 0,0.51417 -13.19459,0.60268 -13.70532,0.0919 z m 25.62384,-0.14875 c -3.80986,-1.148464 -5.74112,-4.200555 -5.27495,-8.336359 0.29711,-2.635926 1.80064,-4.973403 4.40165,-6.843045 l 1.9161,-1.377318 -1.47106,-2.796532 c -1.64489,-3.126988 -1.83413,-5.048211 -0.71114,-7.219828 1.43917,-2.783057 6.05504,-3.894899 9.26931,-2.232736 1.84262,0.952861 2.49905,2.169879 2.47884,4.59576 -0.0181,2.17154 -0.4686,2.876097 -3.11507,4.871894 -2.04733,1.543955 -2.19819,1.894114 -1.24525,2.890135 0.34835,0.36409 1.86303,2.334181 3.36596,4.377979 l 2.7326,3.715996 1.40459,-3.019039 c 1.59407,-3.426297 1.44663,-4.408603 -0.81024,-5.398234 -1.48119,-0.649499 -1.3259,-0.688543 2.89226,-0.727214 l 4.45748,-0.04086 -1.64782,1.12716 c -1.57449,1.076993 -5.51378,7.249919 -5.51378,8.640168 0,1.098191 5.05099,5.691909 6.64296,6.041569 2.93582,0.64481 3.1104,-0.022 3.25788,-12.444295 0.14678,-12.363058 -0.0382,-13.305963 -2.76939,-14.113596 -0.89149,-0.263625 -1.6209,-0.65813 -1.6209,-0.87668 0,-0.591945 13.40885,-0.491112 13.7764,0.103597 0.17029,0.275528 -0.1648,0.50096 -0.74465,0.50096 -0.57984,0 -1.60758,0.553332 -2.28388,1.229628 -1.22739,1.227387 -1.22963,1.248791 -1.22963,11.739945 0,5.780674 0.21981,11.088468 0.48847,11.795098 1.09376,2.876793 6.33936,4.217347 10.19641,2.605763 2.12604,-0.88832 4.15479,-3.33462 4.95694,-5.977178 l 0.63938,-2.106301 0.14685,4.216284 c 0.0808,2.318955 0.0315,4.516915 -0.10952,4.884359 -0.20482,0.53374 -2.90379,0.66587 -13.42229,0.65708 -14.36705,-0.012 -15.17156,-0.14768 -18.73972,-3.160154 l -1.56614,-1.322237 -1.83048,1.726367 c -2.56679,2.420794 -5.74135,3.229504 -8.91817,2.271874 z m 8.45126,-3.176183 1.81955,-1.667494 -3.99372,-5.220704 c -2.19654,-2.871388 -4.29055,-5.220706 -4.65336,-5.220706 -1.13018,0 -2.61969,2.537801 -2.88832,4.921075 -0.37128,3.293981 0.1982,5.562697 1.83654,7.316557 1.20284,1.287641 1.81461,1.538761 3.74859,1.538761 1.92027,0 2.61893,-0.28203 4.13072,-1.667489 z M 157.04767,74.61626 c 1.07492,-2.078666 0.92249,-5.242601 -0.31205,-6.477142 -1.48519,-1.48519 -4.4455,-1.176918 -5.41807,0.564213 -0.92497,1.655898 -0.51804,3.107834 1.7202,6.137807 1.95405,2.645243 2.54279,2.612226 4.00992,-0.224878 z"
       style="fill:#000000;stroke-width:0.50096" />
  </g>
</svg>
