<?xml version="1.0" encoding="UTF-8" standalone="no"?>
<svg
   xmlns:dc="http://purl.org/dc/elements/1.1/"
   xmlns:cc="http://creativecommons.org/ns#"
   xmlns:rdf="http://www.w3.org/1999/02/22-rdf-syntax-ns#"
   xmlns:svg="http://www.w3.org/2000/svg"
   xmlns="http://www.w3.org/2000/svg"
   xmlns:sodipodi="http://sodipodi.sourceforge.net/DTD/sodipodi-0.dtd"
   xmlns:inkscape="http://www.inkscape.org/namespaces/inkscape"
   sodipodi:docname="Mainlogo2.svg"
   inkscape:version="1.0 (4035a4f, 2020-05-01)"
   id="svg8"
   version="1.1"
   viewBox="0 0 85.012581 140.55791"
   height="140.55791mm"
   width="85.012581mm">
  <defs
     id="defs2" />
  <sodipodi:namedview
     inkscape:window-maximized="0"
     inkscape:window-y="23"
     inkscape:window-x="0"
     inkscape:window-height="811"
     inkscape:window-width="1252"
     showgrid="false"
     inkscape:document-rotation="0"
     inkscape:current-layer="layer1"
     inkscape:document-units="mm"
     inkscape:cy="333.94765"
     inkscape:cx="403.57878"
     inkscape:zoom="0.62543484"
     inkscape:pageshadow="2"
     inkscape:pageopacity="0.0"
     borderopacity="1.0"
     bordercolor="#666666"
     pagecolor="#ffffff"
     id="base" />
  <metadata
     id="metadata5">
    <rdf:RDF>
      <cc:Work
         rdf:about="">
        <dc:format>image/svg+xml</dc:format>
        <dc:type
           rdf:resource="http://purl.org/dc/dcmitype/StillImage" />
        <dc:title></dc:title>
      </cc:Work>
    </rdf:RDF>
  </metadata>
  <g
     transform="translate(-16.85337,-77.746639)"
     id="layer1"
     inkscape:groupmode="layer"
     inkscape:label="Layer 1">
    <path
       d=""
       id="path24"
       style="stroke-width:0.264583" />
    <path
       d=""
       id="path74"
       style="stroke-width:0.264583" />
    <path
       id="path90"
       d="m 59.133353,217.43758 c -0.14178,-0.66685 -1.09058,-5.19972 -2.10845,-10.07305 -2.03268,-9.73208 -5.1319,-22.99916 -9.81704,-42.02455 -1.68012,-6.82266 -4.66134,-19.12624 -6.62492,-27.34128 -8.30735,-34.75551 -13.80642,-54.893959 -15.31516,-56.086447 -0.33859,-0.267621 -2.12027,-0.980096 -3.95929,-1.583277 -1.83902,-0.603181 -3.77569,-1.423716 -4.30372,-1.823412 -0.83982,-0.635711 1.38285,-0.728736 17.74847,-0.742823 12.2503,-0.01054 18.5368,0.155623 18.21106,0.481361 -0.27361,0.273605 -3.21678,1.188966 -6.54038,2.034136 -3.32361,0.84517 -6.25726,1.751006 -6.51922,2.012968 -1.0057,1.005703 6.1772,36.383524 10.53952,51.910094 0.3912,1.39238 2.21672,8.79731 4.0567,16.4554 3.95381,16.45584 7.98399,31.38334 8.47433,31.38831 1.46692,0.0148 16.94711,-63.14322 22.25908,-90.815408 1.59584,-8.313385 1.61415,-8.560641 0.68462,-9.240339 -0.52531,-0.384112 -1.38081,-0.698385 -1.90112,-0.698385 -1.64859,0 -12.2251,-2.52941 -12.74329,-3.047605 -0.32463,-0.324632 4.8868,-0.496634 15.04739,-0.496634 8.54921,0 15.544017,0.180459 15.544017,0.40102 0,0.220561 -2.037907,1.162068 -4.528687,2.092238 -4.13782,1.545244 -4.59161,1.849318 -5.25757,3.522958 -1.83854,4.620456 -4.9569,16.796005 -11.49166,44.868935 -3.30298,14.18937 -4.43772,18.94858 -8.14877,34.17659 -4.13201,16.9554 -9.70072,41.50035 -11.08522,48.85987 -1.18515,6.29976 -1.77958,7.84408 -2.22069,5.76933 z m 0.42364,-15.51601 c 0.77806,-3.00833 0.76779,-3.37693 -0.20805,-7.46822 -0.56458,-2.36703 -1.46982,-6.18341 -2.01165,-8.48084 -4.40392,-18.67307 -6.15463,-25.97447 -9.62132,-40.12585 -2.183,-8.91123 -4.69358,-19.27812 -5.57908,-23.03755 -0.88549,-3.75942 -2.26068,-9.56945 -3.05596,-12.91116 -2.27467,-9.55793 -4.93567,-20.926057 -5.83696,-24.936253 l -0.82502,-3.670819 h -1.73154 c -2.02854,0 -2.18684,0.752757 -1.01879,4.844722 0.39201,1.373304 2.69719,10.927143 5.12264,21.23075 2.42545,10.30361 6.335,26.70837 8.68789,36.45503 2.35289,9.74666 4.7989,19.88572 5.43557,22.53124 0.63667,2.64552 2.89846,11.98712 5.02619,20.75911 2.12774,8.772 3.99511,16.48861 4.14971,17.14805 0.37281,1.59014 0.5048,1.37967 1.46637,-2.33821 z"
       style="stroke-width:0.50632" />
  </g>
</svg>
