<?xml version="1.0" encoding="UTF-8" standalone="no"?>
<svg
   xmlns:dc="http://purl.org/dc/elements/1.1/"
   xmlns:cc="http://creativecommons.org/ns#"
   xmlns:rdf="http://www.w3.org/1999/02/22-rdf-syntax-ns#"
   xmlns:svg="http://www.w3.org/2000/svg"
   xmlns="http://www.w3.org/2000/svg"
   xmlns:sodipodi="http://sodipodi.sourceforge.net/DTD/sodipodi-0.dtd"
   xmlns:inkscape="http://www.inkscape.org/namespaces/inkscape"
   width="152.90106mm"
   height="223.30833mm"
   viewBox="0 0 152.90106 223.30834"
   version="1.1"
   id="svg8"
   inkscape:version="1.0 (4035a4f, 2020-05-01)"
   sodipodi:docname="passport.svg">
  <defs
     id="defs2" />
  <sodipodi:namedview
     id="base"
     pagecolor="#ffffff"
     bordercolor="#666666"
     borderopacity="1.0"
     inkscape:pageopacity="0.0"
     inkscape:pageshadow="2"
     inkscape:zoom="0.35"
     inkscape:cx="329.83374"
     inkscape:cy="398.28572"
     inkscape:document-units="mm"
     inkscape:current-layer="layer1"
     inkscape:document-rotation="0"
     showgrid="false"
     fit-margin-top="0"
     fit-margin-left="0"
     fit-margin-right="0"
     fit-margin-bottom="0"
     inkscape:snap-midpoints="true"
     inkscape:window-width="1252"
     inkscape:window-height="801"
     inkscape:window-x="0"
     inkscape:window-y="23"
     inkscape:window-maximized="0" />
  <metadata
     id="metadata5">
    <rdf:RDF>
      <cc:Work
         rdf:about="">
        <dc:format>image/svg+xml</dc:format>
        <dc:type
           rdf:resource="http://purl.org/dc/dcmitype/StillImage" />
        <dc:title></dc:title>
      </cc:Work>
    </rdf:RDF>
  </metadata>
  <g
     inkscape:label="Layer 1"
     inkscape:groupmode="layer"
     id="layer1"
     transform="translate(-18.564823,-42.786902)">
    <path
       id="path65"
       d="m 36.89277,265.5876 c -0.45608,-0.2781 -1.17046,-0.96217 -1.5875,-1.52015 -0.41703,-0.55797 -0.97641,-1.25272 -1.24305,-1.54388 -0.87648,-0.95707 -4.29476,-6.3008 -5.66998,-8.86375 -3.80123,-7.08426 -6.77768,-15.88946 -8.13269,-24.05889 -0.35164,-2.12006 -0.76718,-4.56903 -0.92342,-5.44215 -1.21134,-6.76948 -0.9394,-23.98438 0.42076,-26.6362 0.19946,-0.38886 0.55777,-1.28183 0.79625,-1.98437 0.51714,-1.52341 1.4626,-2.94452 3.28712,-4.94084 1.72921,-1.89204 3.90392,-3.33588 6.66128,-4.42259 2.15618,-0.84978 2.28545,-0.86708 7.61736,-1.01939 l 5.42396,-0.15495 0.13229,-65.0875 0.13229,-65.087496 0.56624,-1.478272 c 0.31143,-0.813049 0.76532,-1.863254 1.00864,-2.333788 0.79671,-1.540665 2.83405,-4.013846 3.81836,-4.635217 0.53049,-0.334883 1.11628,-0.791735 1.30177,-1.015227 0.18548,-0.223493 1.01717,-0.668012 1.8482,-0.987821 0.83102,-0.319809 1.74908,-0.678981 2.04012,-0.79816 1.84812,-0.756787 4.08996,-0.790057 53.23759,-0.790057 49.98473,0 50.2346,0.0026 52.20231,0.547903 5.9056,1.636528 9.83608,5.73699 11.22024,11.705495 0.37544,1.61889 0.41767,9.01185 0.41485,72.62812 -0.003,59.3174 -0.0624,71.04824 -0.36768,72.19493 -1.38692,5.20911 -5.30213,9.40509 -10.60939,11.37018 -1.24591,0.46131 -2.87857,0.49753 -28.04583,0.62212 l -26.72292,0.13229 -0.0665,0.66146 c -0.13691,1.36253 -0.66925,3.59621 -1.02049,4.28194 -0.20004,0.39054 -1.04026,1.44083 -1.86716,2.33397 l -1.50345,1.62391 0.63059,1.63478 c 0.45353,1.17575 0.6571,2.31528 0.72502,4.0583 0.0872,2.23848 0.0298,2.57865 -0.75137,4.45523 -1.95097,4.68645 -5.92508,6.96941 -12.19181,7.0037 -1.15414,0.006 -1.53209,0.10992 -1.66505,0.4564 -0.0946,0.24653 -0.16261,1.82411 -0.15113,3.50573 0.0485,7.09609 -1.50793,12.6025 -6.07057,21.47752 -0.95521,1.85802 -2.08147,2.61435 -3.89305,2.61435 -1.16781,0 -1.40971,-0.10811 -2.31408,-1.03428 -0.88866,-0.91006 -1.01236,-1.1936 -1.02997,-2.36081 -0.0162,-1.07397 0.15859,-1.62007 0.91808,-2.86832 2.13114,-3.50265 4.06341,-8.50423 4.90826,-12.70475 0.51931,-2.58196 0.75083,-10.05743 0.36718,-11.85579 -0.15522,-0.72761 -0.47017,-2.21589 -0.6999,-3.3073 -0.22973,-1.0914 -0.81221,-2.9964 -1.29441,-4.23333 -0.48221,-1.23693 -0.95236,-2.4697 -1.0448,-2.7395 -0.58083,-1.69527 -5.31755,-8.6017 -6.64987,-9.69592 -0.7672,-0.63009 -1.98035,-2.69089 -1.98035,-3.36406 0,-0.33804 0.30753,-1.47559 0.68341,-2.52788 0.37587,-1.0523 1.14385,-3.22295 1.70663,-4.82368 0.56277,-1.60073 1.33834,-3.74386 1.72349,-4.7625 0.38515,-1.01865 0.9795,-2.68552 1.32079,-3.70417 0.34128,-1.01864 0.97478,-2.80458 1.40778,-3.96875 0.87198,-2.34443 2.8505,-7.84462 3.99738,-11.1125 0.40856,-1.16416 1.17982,-3.30729 1.71389,-4.7625 0.53408,-1.45521 1.26078,-3.47927 1.61489,-4.49791 0.35412,-1.01865 0.76394,-2.05883 0.91071,-2.31152 0.41927,-0.72182 0.32516,-4.75248 -0.13832,-5.9244 -1.01468,-2.56561 -2.4957,-4.17672 -4.87482,-5.30297 -1.83979,-0.87095 -3.33483,-0.99552 -5.94776,-0.49559 -2.40595,0.46034 -3.30194,1.00045 -4.79146,2.88837 -1.13008,1.43234 -1.68623,2.76824 -5.41124,12.99819 -0.74184,2.03729 -1.75987,4.73276 -2.26229,5.98993 -0.50243,1.25717 -0.9135,2.42586 -0.9135,2.59708 0,0.17123 -0.1447,0.57138 -0.32155,0.88924 -0.30998,0.55712 -1.00941,2.44776 -2.56389,6.93054 -0.4042,1.16561 -0.8672,2.35624 -1.0289,2.64583 -0.1617,0.2896 -0.54756,1.30045 -0.85747,2.24634 -0.30991,0.94588 -0.72353,2.07698 -0.91914,2.51354 -0.36319,0.81052 -1.82133,4.73394 -2.89211,7.78179 -0.81451,2.3184 -2.29282,3.728 -3.90826,3.72659 -1.45519,-0.001 -2.7744,-0.80098 -3.26731,-1.98068 -0.59498,-1.42398 -0.46697,-2.31412 0.68528,-4.7652 0.13682,-0.29104 0.59548,-1.5412 1.01925,-2.77813 0.42377,-1.23692 1.0804,-3.08188 1.45917,-4.09989 0.37877,-1.01802 0.68868,-2.12811 0.68868,-2.46687 v -0.61594 l -6.94531,0.0856 -6.94531,0.0856 -1.65962,0.76641 c -1.89851,0.87674 -4.32079,3.26989 -5.28036,5.21686 -1.55257,3.15018 -1.6483,16.8094 -0.19263,27.48652 0.81717,5.99379 3.52479,15.51371 5.68151,19.97604 0.28133,0.58208 0.75993,1.59411 1.06355,2.24896 1.64047,3.53817 4.30315,7.73916 6.91853,10.91558 1.67803,2.03799 2.03071,3.22953 1.42518,4.81507 -0.25121,0.6578 -0.79328,1.43562 -1.20459,1.7285 -0.96735,0.68881 -2.76887,0.70038 -3.87666,0.0249 z m 57.60202,-36.19306 c 0.91507,-0.98162 1.03869,-1.26824 1.03869,-2.40827 0,-1.50461 -0.70587,-2.74432 -2.09595,-3.68109 -0.82513,-0.55606 -1.17906,-0.60161 -4.67444,-0.60161 -2.36094,0 -3.84636,0.10459 -3.95378,0.27841 -0.16911,0.27362 0.52612,2.62177 1.49883,5.0623 0.27175,0.68182 0.49409,1.46565 0.49409,1.74184 0,0.27619 0.0887,0.59085 0.19707,0.69924 0.10839,0.10838 1.6055,0.15799 3.32693,0.11024 l 3.12987,-0.0868 z m 1.61831,-14.14568 c 1.23838,-0.37103 2.13667,-1.49863 2.01769,-2.53277 l -0.0838,-0.72815 -9.98802,-0.0693 c -5.49341,-0.0381 -9.98802,-0.002 -9.98802,0.0793 0,0.37769 0.83632,1.70983 1.07343,1.70983 0.14635,0 0.33999,0.20836 0.4303,0.46302 0.49747,1.40275 0.41637,1.38907 8.23002,1.38907 4.80474,0 7.62248,-0.10546 8.30837,-0.31096 z m 63.00818,-11.25926 c 2.27248,-1.04879 4.08502,-2.99201 4.66698,-5.00348 0.21512,-0.74354 0.2743,-20.40529 0.21772,-72.33237 l -0.0777,-71.311272 -0.87445,-1.362693 c -0.97886,-1.525407 -2.1438,-2.511078 -3.87049,-3.274876 -1.14222,-0.505256 -2.12751,-0.513702 -52.05236,-0.446193 l -50.88811,0.06881 -1.47102,0.956699 c -1.86563,1.213347 -2.98453,2.625212 -3.52633,4.449666 -0.38722,1.303922 -0.42661,7.269003 -0.42661,64.608329 0,39.89393 0.0932,63.22939 0.25296,63.32812 0.34803,0.21509 0.94848,-0.79226 1.4151,-2.37406 0.21464,-0.72761 0.88998,-2.63117 1.50075,-4.23015 0.61078,-1.59897 1.26253,-3.32538 1.44834,-3.83646 1.34152,-3.68986 1.85538,-5.03679 2.29207,-6.00794 0.27451,-0.61048 0.49911,-1.24336 0.49911,-1.40641 0,-0.16304 0.41672,-1.19837 0.92604,-2.30073 0.50933,-1.10236 0.92604,-2.17032 0.92604,-2.37325 0,-0.92083 2.16132,-4.32428 3.8583,-6.0757 2.39079,-2.4675 3.96777,-3.41341 7.00109,-4.19942 2.00953,-0.52072 6.39761,-0.50509 8.79984,0.0313 2.66805,0.5958 4.47496,1.6863 6.96828,4.2055 2.22494,2.24803 3.60649,4.57449 4.32049,7.27551 0.1731,0.65484 0.43714,1.61807 0.58676,2.14051 0.47596,1.66204 -0.227,5.74875 -1.63431,9.50115 -1.3874,3.6993 -3.39336,9.37895 -4.48544,12.7 -0.59815,1.81901 -1.24868,3.66448 -1.44562,4.10105 -0.19694,0.43656 -0.55728,1.44859 -0.80076,2.24895 -0.24348,0.80037 -0.55729,1.66498 -0.69735,1.92136 -0.14007,0.25638 -0.54522,1.32794 -0.90034,2.38125 -0.35512,1.0533 -1.00625,2.97667 -1.44695,4.27414 -0.60538,1.78232 -0.72896,2.44617 -0.50551,2.71541 0.24599,0.2964 6.84639,0.34466 39.22042,0.2868 l 38.92465,-0.0696 z m -65.60416,-17.647 c -1.10564,-0.4845 -2.23357,-2.01648 -2.4004,-3.26029 -0.11471,-0.85525 0.002,-1.19305 0.75678,-2.18205 0.49087,-0.64357 1.18776,-1.25237 1.54863,-1.35288 0.36088,-0.1005 12.45852,-0.1946 26.88364,-0.20911 22.05015,-0.0222 26.27614,-0.085 26.53286,-0.3943 0.20403,-0.24584 0.28062,-1.45302 0.23083,-3.63802 l -0.0745,-3.27009 -24.34167,-0.13229 -24.34167,-0.13229 -1.01343,-0.63399 c -0.5574,-0.34869 -1.12294,-0.92199 -1.25678,-1.274 -0.38174,-1.00406 -0.28761,-3.07042 0.16961,-3.7232 1.01014,-1.44218 -0.25817,-1.38244 28.74424,-1.3539 14.74121,0.0145 27.09852,0.10886 27.46068,0.20966 0.36217,0.10082 0.92772,0.5828 1.25677,1.07109 0.59053,0.87627 0.59828,0.99804 0.5973,9.38148 -0.001,7.95223 -0.0339,8.54759 -0.51653,9.33921 -0.28355,0.46503 -0.84338,1.06035 -1.24406,1.32292 -0.68945,0.4518 -2.2681,0.48051 -29.44752,0.53565 -23.80887,0.0483 -28.8602,-0.004 -29.54476,-0.3036 z m 8.76324,-32.19503 c -2.44896,-0.3791 -8.12176,-1.7693 -8.41457,-2.06211 -0.15962,-0.15962 -0.47477,-0.29063 -0.70033,-0.29113 -0.67513,-0.002 -4.2123,-1.52814 -6.30354,-2.72061 -1.0754,-0.61322 -2.28292,-1.29354 -2.68337,-1.51182 -0.81797,-0.44586 -3.32403,-2.25973 -4.10694,-2.97257 -0.2821,-0.25686 -0.60361,-0.46701 -0.71446,-0.46701 -0.27872,0 -6.29348,-6.02801 -7.107,-7.12266 -2.45511,-3.30352 -3.51467,-5.0192 -5.16013,-8.35547 -3.66928,-7.43971 -5.3865,-17.03922 -4.42539,-24.73854 1.04131,-8.341845 2.86429,-13.632723 6.99007,-20.287494 1.35019,-2.177814 5.51926,-7.35571 6.69649,-8.316883 0.14552,-0.118814 1.1218,-0.969142 2.16951,-1.889617 1.04772,-0.920478 2.77412,-2.251231 3.83646,-2.957232 1.06234,-0.706001 2.22918,-1.485987 2.59299,-1.733304 1.52388,-1.035952 5.89599,-3.024381 8.73125,-3.970959 7.38309,-2.464917 14.21597,-3.104127 21.49571,-2.010905 5.02133,0.754069 13.36076,3.754968 16.58411,5.967701 0.3749,0.257357 1.7407,1.164677 3.03511,2.016268 4.51547,2.970725 11.11933,10.161664 13.29142,14.473018 0.38216,0.75856 0.89418,1.676857 1.1378,2.040659 0.47739,0.712865 2.44243,5.3632 2.90686,6.879167 1.84757,6.030761 2.24375,9.101041 2.04845,15.875001 -0.18859,6.54112 -0.87567,9.96413 -3.13335,15.61041 -0.84692,2.11807 -3.25054,6.78969 -4.24476,8.25 -0.59965,0.88077 -2.89052,3.89216 -3.64427,4.79046 -1.66421,1.98338 -7.02421,6.74459 -8.64539,7.67958 -0.54913,0.3167 -1.51128,0.93797 -2.73169,1.76388 -0.90759,0.6142 -6.22469,3.18067 -6.58959,3.18067 -0.16244,0 -0.80006,0.22622 -1.41694,0.50272 -1.70071,0.76229 -2.73198,1.06326 -5.58136,1.62886 -1.43422,0.28469 -2.69642,0.57246 -2.80488,0.6395 -0.36031,0.22268 -11.76261,0.31873 -13.10827,0.11042 z m 2.38125,-13.75147 v -5.66649 l -3.37344,-0.30434 c -1.8554,-0.16739 -3.96185,-0.4455 -4.681,-0.61802 -2.32051,-0.55668 -2.97225,0.12593 -1.79273,1.87762 0.33214,0.49325 0.82646,1.37307 1.0985,1.95516 1.50529,3.22088 7.15429,8.87939 8.48408,8.49837 0.1658,-0.0475 0.26459,-2.19157 0.26459,-5.7423 z m 11.93307,2.55741 c 2.83381,-2.8285 3.14203,-3.25224 4.89386,-6.72817 1.23976,-2.45989 1.15689,-2.83795 -0.55506,-2.53216 -1.79523,0.32067 -2.27723,0.38007 -5.29166,0.65213 -1.67349,0.15103 -3.19154,0.32532 -3.37344,0.38729 -0.25042,0.0853 -0.33073,1.45327 -0.33073,5.63315 0,3.03625 0.0696,5.59011 0.15478,5.67524 0.44421,0.4442 2.10498,-0.69469 4.50225,-3.08748 z m -26.35287,-0.93224 c 0,-0.28246 -0.13551,-0.59731 -0.30113,-0.69967 -0.40462,-0.25007 -3.01201,-5.77761 -3.38504,-7.17613 -0.16333,-0.61232 -0.41278,-1.18489 -0.55435,-1.27239 -0.14157,-0.0875 -0.25739,-0.38743 -0.25739,-0.66653 0,-0.65788 -0.73829,-1.12043 -3.175,-1.9892 -1.09141,-0.38912 -3.39024,-1.42124 -5.10853,-2.29361 -1.71828,-0.87236 -3.1851,-1.52516 -3.2596,-1.45066 -0.22727,0.22728 0.88739,2.18944 2.62088,4.61358 2.03623,2.8475 8.51446,9.33149 9.3232,9.33149 0.0983,0 0.55391,0.26789 1.01235,0.59531 2.1237,1.51675 3.08461,1.8307 3.08461,1.00781 z m 38.76146,-0.67158 c 0.72761,-0.4589 1.82991,-1.15622 2.44956,-1.5496 1.64822,-1.04634 7.18088,-6.66629 8.37788,-8.51006 0.56685,-0.87313 1.36889,-2.09949 1.78233,-2.72525 0.71089,-1.07598 0.96242,-1.90496 0.57801,-1.90496 -0.0955,0 -1.37538,0.6082 -2.84413,1.35156 -1.46875,0.74336 -3.79636,1.75912 -5.17247,2.25725 -1.3761,0.49813 -2.69698,1.08214 -2.93529,1.29781 -0.2383,0.21565 -0.58916,1.04192 -0.77969,1.83614 -0.19053,0.79422 -1.15611,3.07517 -2.14574,5.06878 -0.98963,1.99361 -1.74153,3.71826 -1.67089,3.83255 0.17512,0.28335 0.79659,0.0321 2.36043,-0.95422 z m -24.27151,-21.60328 0.0701,-7.57486 -0.59932,-0.16059 c -1.05358,-0.2823 -13.69295,-0.18816 -14.24275,0.10608 -0.42539,0.22766 -0.50852,0.55146 -0.49246,1.91823 0.0106,0.90439 0.11928,2.23965 0.24146,2.96726 0.12219,0.7276 0.41209,2.57307 0.64422,4.10104 0.51204,3.3703 0.8397,4.42936 1.42645,4.6106 0.55384,0.17107 6.54322,1.20909 8.51647,1.47599 0.80037,0.10826 2.11006,0.18205 2.91042,0.16398 l 1.45521,-0.0329 z m 13.4236,7.17913 c 0.43656,-0.12412 2.10344,-0.42237 3.70416,-0.66279 3.2365,-0.4861 3.70561,-0.77717 3.97456,-2.46608 0.0853,-0.53532 0.32195,-1.76847 0.52601,-2.74033 0.20406,-0.97186 0.5142,-3.3344 0.6892,-5.2501 0.27001,-2.9559 0.26176,-3.51879 -0.0546,-3.71904 -0.53341,-0.33768 -13.90988,-0.31024 -14.54532,0.0298 -0.48713,0.26071 -0.51177,0.62801 -0.51177,7.62882 0,4.04521 0.0893,7.44556 0.19844,7.55633 0.23502,0.23853 4.87714,-0.0519 6.01927,-0.37665 z m -34.91897,-4.5652 c 0.067,-0.1819 -0.0676,-1.64042 -0.29907,-3.24115 -0.23144,-1.60073 -0.47725,-3.82154 -0.54624,-4.93513 -0.11168,-1.80255 -0.18864,-2.04167 -0.70142,-2.1792 -0.93625,-0.25111 -10.33144,-0.17519 -10.74553,0.0868 -0.32587,0.2062 -0.31299,0.38898 0.0905,1.28372 0.44867,0.99498 2.67958,3.52952 4.15776,4.72365 1.70424,1.37675 7.10346,4.58976 7.71556,4.59144 0.11371,2.7e-4 0.26151,-0.14826 0.32846,-0.33016 z m 52.78566,-0.6892 c 2.91187,-1.50217 4.56316,-2.67249 6.68989,-4.74132 2.85184,-2.77421 3.84443,-4.35058 3.05454,-4.85107 -0.39384,-0.24954 -9.80994,-0.3193 -10.70396,-0.0793 -0.50847,0.1365 -0.58254,0.45445 -0.87751,3.7667 -0.1772,1.98969 -0.39008,4.36176 -0.47308,5.27126 -0.0851,0.93303 -0.0454,1.65365 0.0911,1.65365 0.13308,0 1.13165,-0.45897 2.21904,-1.01993 z M 82.38076,102.64888 c 0.0642,-1.12779 0.2502,-3.003019 0.41332,-4.167186 0.16311,-1.164167 0.35917,-2.563151 0.43569,-3.108854 0.11873,-0.846736 0.0655,-0.992188 -0.36279,-0.992188 -0.89343,0 -3.17073,1.197661 -6.01833,3.165113 -3.11107,2.149491 -6.55645,6.075595 -6.05033,6.894525 0.0964,0.15601 2.40933,0.25911 5.81292,0.25911 h 5.65278 z m 22.28085,-5.490103 v -7.408333 l -1.32292,-0.08485 c -1.95387,-0.125325 -9.09383,0.767448 -11.42493,1.428565 -0.75219,0.213329 -0.83583,0.456473 -1.44901,4.21254 -0.28508,1.74625 -0.62177,3.770313 -0.74819,4.497917 -0.28114,1.618034 -0.33444,4.476074 -0.0881,4.722444 0.0992,0.0992 3.52228,0.14884 7.60677,0.11024 l 7.42635,-0.0702 z m 22.51881,7.162973 c 0.21225,-0.5531 -0.35922,-5.906138 -1.00167,-9.382843 -0.63899,-3.45795 -0.92248,-3.879831 -2.7788,-4.135231 -0.70171,-0.09655 -1.69256,-0.276788 -2.20188,-0.400539 -1.59391,-0.387274 -6.15222,-0.825111 -7.67292,-0.737005 l -1.45521,0.08431 -0.0703,7.474479 -0.0703,7.474479 h 7.55305 c 6.29887,0 7.57711,-0.0627 7.69796,-0.37765 z m 18.88848,-0.066 c 0,-0.75254 -1.88043,-3.22181 -3.56068,-4.675665 -2.64561,-2.289144 -3.61356,-2.960839 -5.9162,-4.105431 -2.30437,-1.145461 -2.95719,-1.313763 -2.96056,-0.763262 -0.004,0.641659 0.84533,9.331008 0.94387,9.657288 0.0759,0.25125 1.46891,0.33073 5.79672,0.33073 5.15446,0 5.69685,-0.0422 5.69685,-0.44366 z m -4.19844,-15.627521 c -0.28896,-0.566412 -0.71268,-1.185283 -0.9416,-1.375267 -0.22892,-0.189984 -0.41621,-0.48823 -0.41621,-0.662771 0,-0.78182 -5.48862,-6.699043 -8.11167,-8.745109 -2.82754,-2.205577 -5.51491,-3.792704 -5.85168,-3.455929 -0.0724,0.0724 0.53586,1.474711 1.35168,3.116257 0.81582,1.641544 1.84813,3.996471 2.29402,5.233165 0.44589,1.236697 0.95547,2.381639 1.13241,2.544315 0.17693,0.162677 1.51232,0.778304 2.96753,1.368063 2.50185,1.013933 5.81532,2.550903 7.27604,3.375027 0.89727,0.50623 1.00775,-0.0094 0.29948,-1.397751 z m -63.73309,-0.03808 c 1.78249,-0.856446 4.13387,-1.905508 5.22528,-2.331249 2.1911,-0.854715 2.41183,-1.124961 3.41522,-4.181367 0.28664,-0.873125 1.18239,-2.897187 1.99056,-4.497916 0.80817,-1.60073 1.4703,-2.940183 1.47139,-2.976563 0.001,-0.03638 -0.23209,-0.06615 -0.5182,-0.06615 -0.60959,0 -2.39022,0.805455 -2.39022,1.081204 0,0.104193 -0.40693,0.429535 -0.90428,0.722979 -0.93546,0.551935 -1.00738,0.608256 -3.17875,2.48933 -2.11513,1.832346 -2.98038,2.734887 -5.83108,6.082382 -0.21265,0.249711 -0.70615,0.964086 -1.09665,1.5875 -0.39051,0.623414 -0.79467,1.193012 -0.89813,1.265772 -0.26187,0.184166 -1.0557,1.765895 -1.0557,2.103527 0,0.472192 0.4252,0.327912 3.77056,-1.279453 z m 19.64507,-5.752468 c 1.45521,-0.227533 3.59834,-0.491649 4.7625,-0.586922 l 2.11667,-0.173226 0.0714,-5.622396 0.0714,-5.622395 h -0.62703 c -0.34486,0 -1.09137,0.340217 -1.65891,0.756039 -1.06538,0.780584 -4.33918,3.875283 -4.33918,4.101803 0,0.07031 -0.53691,0.928505 -1.19314,1.907112 -1.52782,2.278393 -2.88019,5.022614 -2.65484,5.387231 0.21919,0.35465 0.24945,0.353359 3.45111,-0.147246 z m 24.73854,0.05534 c 0,-1.078629 -3.02272,-6.016738 -5.23595,-8.553788 -1.41706,-1.624396 -4.25523,-3.771075 -4.98582,-3.771075 -0.31024,0 -0.36006,0.953847 -0.30057,5.754688 l 0.0713,5.754687 1.85208,0.171667 c 2.4365,0.225838 6.54465,0.749295 6.87917,0.876538 0.68126,0.259139 1.71979,0.118605 1.71979,-0.232717 z"
       style="fill:#000000;stroke-width:0.264583" />
    <path
       d=""
       id="path63"
       style="fill:#000000;stroke-width:0.264583" />
  </g>
</svg>
