<?xml version="1.0" encoding="UTF-8" standalone="no"?>
<svg
   xmlns:dc="http://purl.org/dc/elements/1.1/"
   xmlns:cc="http://creativecommons.org/ns#"
   xmlns:rdf="http://www.w3.org/1999/02/22-rdf-syntax-ns#"
   xmlns:svg="http://www.w3.org/2000/svg"
   xmlns="http://www.w3.org/2000/svg"
   xmlns:sodipodi="http://sodipodi.sourceforge.net/DTD/sodipodi-0.dtd"
   xmlns:inkscape="http://www.inkscape.org/namespaces/inkscape"
   width="237.57059mm"
   height="158.39282mm"
   viewBox="0 0 237.57058 158.39283"
   version="1.1"
   id="svg8"
   inkscape:version="1.0 (4035a4f, 2020-05-01)"
   sodipodi:docname="Plane.svg">
  <defs
     id="defs2" />
  <sodipodi:namedview
     id="base"
     pagecolor="#ffffff"
     bordercolor="#666666"
     borderopacity="1.0"
     inkscape:pageopacity="0.0"
     inkscape:pageshadow="2"
     inkscape:zoom="0.35"
     inkscape:cx="538.59519"
     inkscape:cy="378.21587"
     inkscape:document-units="mm"
     inkscape:current-layer="layer1"
     inkscape:document-rotation="0"
     showgrid="false"
     fit-margin-top="0"
     fit-margin-left="0"
     fit-margin-right="0"
     fit-margin-bottom="0"
     inkscape:snap-midpoints="true"
     inkscape:window-width="1252"
     inkscape:window-height="801"
     inkscape:window-x="0"
     inkscape:window-y="23"
     inkscape:window-maximized="0" />
  <metadata
     id="metadata5">
    <rdf:RDF>
      <cc:Work
         rdf:about="">
        <dc:format>image/svg+xml</dc:format>
        <dc:type
           rdf:resource="http://purl.org/dc/dcmitype/StillImage" />
        <dc:title></dc:title>
      </cc:Work>
    </rdf:RDF>
  </metadata>
  <g
     inkscape:label="Layer 1"
     inkscape:groupmode="layer"
     id="layer1"
     transform="translate(36.669978,-48.09705)">
    <path
       d=""
       id="path63"
       style="fill:#000000;stroke-width:0.264583" />
    <path
       id="path138"
       d="m 124.14263,205.62829 c -1.24517,-1.51684 -1.46207,-2.56175 -0.98534,-4.74695 0.82978,-3.80356 2.64578,-11.78532 3.54012,-15.55973 0.50245,-2.12051 0.91355,-4.51767 0.91355,-5.32702 0,-1.38125 -0.065,-1.53028 -1.0591,-2.42839 -0.5825,-0.52626 -1.20758,-0.95678 -1.38906,-0.95673 -0.18149,6e-5 -1.04434,-0.34981 -1.91747,-0.77749 -0.87312,-0.42769 -2.95672,-1.39626 -4.63021,-2.1524 -1.67349,-0.75614 -3.75708,-1.70452 -4.63021,-2.10753 -0.87312,-0.403 -2.54,-1.16672 -3.70416,-1.69716 -1.16417,-0.53043 -3.72401,-1.86003 -5.68854,-2.95467 -5.946483,-3.31336 -7.817753,-4.4905 -12.471993,-7.84558 -1.25704,-0.90616 -3.19531,-2.3024 -4.30726,-3.10277 -3.09186,-2.22546 -5.17348,-3.33114 -10.07596,-5.35195 -6.54117,-2.69629 -7.23314,-2.9204 -8.59896,-2.78498 -1.187,0.11769 -2.90518,0.97357 -10.01184,4.9872 l -3.00039,1.69452 0.137,1.38907 0.137,1.38906 h -2.32982 c -1.47241,0 -2.67939,-0.14606 -3.27968,-0.39688 -1.0905,-0.45564 -2.37156,-0.51332 -3.07223,-0.13833 -0.78992,0.42275 -1.79856,2.42287 -2.12239,4.20866 -0.41057,2.26417 -0.67036,2.87549 -1.81211,4.26405 -1.44329,1.75528 -2.37,3.21167 -2.57341,4.04432 -0.12286,0.50287 -0.46437,0.85581 -1.07495,1.11093 -1.94058,0.81083 -4.10562,2.77442 -6.42252,5.82496 -3.46203,4.55826 -5.36433,6.27795 -9.63049,8.70605 -2.37574,1.35217 -2.81798,1.84525 -7.69557,8.58029 -0.85498,1.18058 -2.18731,2.74497 -2.96072,3.47644 -1.38537,1.31023 -1.43093,1.32983 -3.07569,1.32374 -1.3637499,-0.005 -1.9117499,-0.14853 -2.9923999,-0.78353 -2.06263,-1.21201 -4.97524,-2.64987 -5.36774,-2.64987 -0.19557,0 -0.56638,-0.11281 -0.82401,-0.25069 -0.54225996,-0.29021 -0.62478996,0.10076 1.9578,-9.27431 0.82178,-2.98318 1.95725,-7.15036 2.52325,-9.26042 2.2054,-8.22169 3.14086,-11.63916 4.09193,-14.94895 1.6661599,-5.79834 3.2914099,-12.13407 3.2995699,-12.86276 0.0128,-1.1393 -0.90108,-1.96249 -4.0304099,-3.63065 -4.83227,-2.57595 -7.362,-4.37183 -10.86895,-7.71597 -3.57083,-3.40505 -4.26509,-5.38066 -3.04157,-8.65518 0.41717,-1.11647 1.00846,-1.96456 2.18281,-3.13079 2.18427004,-2.16915 3.25442004,-2.42793 7.02093,-1.69779 1.47305,0.28555 3.19518,0.51918 3.82694,0.51918 1.12231,0 1.16141,0.0296 1.70391,1.29071 0.7140799,1.65993 3.9359499,4.70474 6.3151499,5.9681 0.95796,0.50868 1.83294,0.86851 1.9444,0.79962 0.36285,-0.22425 3.69377,-10.68482 4.22601,-13.27154 0.58571,-2.84658 0.66509,-5.39195 0.20958,-6.7198 -0.37231,-1.08532 -1.68546,-2.76633 -3.69698,-4.73262 -1.39517,-1.3638 -1.89129,-1.78856 -4.48481,-3.83968 -1.41705,-1.12069 -4.15037,-3.07849 -5.1714399,-3.704161 -0.94656,-0.58002 -5.99197,-4.00395 -8.29865996,-5.63166 -0.80036,-0.56478 -2.94349004,-2.07569 -4.76250004,-3.35757 -1.81901,-1.281891 -4.34411,-3.117472 -5.61133,-4.079073 -1.2672201,-0.961602 -2.8699101,-2.165086 -3.5615201,-2.674409 -3.91893,-2.886008 -11.78741,-10.206288 -14.36206,-13.361458 -3.83057,-4.694262 -7.82106,-11.417074 -8.7354,-14.716613 -0.98404,-3.551014 -0.58755,-5.317116 1.50217,-6.691197 1.6789,-1.103946 3.05182,-1.252096 9.98044,-1.076974 6.59091,0.166587 7.40208,0.264605 11.39499,1.376922 2.02912,0.565257 7.3206001,2.736112 8.5989601,3.527761 0.21828,0.135175 1.07665,0.603158 1.90748,1.039962 2.42577004,1.27534 7.34294,4.452012 9.86519,6.373283 0.87383,0.665625 2.12457,1.551803 2.77941,1.969284 0.6548499,0.41748 1.4882899,1.019411 1.8520899,1.337622 0.3638,0.318212 2.38786,1.748355 4.49791,3.178095 3.38055,2.290612 7.16846,4.97439 10.05417,7.123497 2.02477,1.507929 4.73989,3.491526 6.15386,4.495858 0.81951,0.582083 2.79602,2.010833 4.39225,3.175 1.59624,1.164167 3.89472,2.840389 5.10776,3.724939 1.21303,0.88455 3.3366,2.406766 4.71905,3.382706 1.38244,0.975939 3.22791,2.305445 4.10104,2.954455 0.87312,0.64902 2.12328,1.49843 2.77812,1.88759 0.65485,0.38915 1.37898,0.86634 1.60918,1.06042 1.07748,0.9084 6.95993,1.08174 7.29257,0.21489 0.0725,-0.1889 -0.3827,-1.0971 -1.01154,-2.01822 -1.098,-1.60837 -1.14333,-1.7536 -1.14333,-3.662652 0,-1.683332 0.1267,-2.251353 0.82702,-3.70767 1.66911,-3.470931 3.99904,-5.222835 6.57737,-4.94561 2.95741,0.317982 8.75157,3.795363 14.29144,8.577051 0.7276,0.628023 1.54595,1.332701 1.81855,1.565941 1.69411,1.44956 3.73085,1.49165 11.54291,0.23854 3.1287,-0.50187 7.950733,-1.27323 10.715623,-1.714137 2.7649,-0.440904 6.27724,-1.037883 7.80521,-1.326618 4.37771,-0.827238 11.43554,-2.10826 15.47813,-2.809338 2.03729,-0.353314 5.60916,-1.006382 7.9375,-1.451263 8.30543,-1.586942 12.48045,-2.360885 15.61041,-2.893772 1.74625,-0.297304 3.94891,-0.709326 4.8948,-0.915603 0.94588,-0.20628 2.91041,-0.568479 4.36562,-0.804892 3.26757,-0.530849 12.2348,-2.212181 26.93469,-5.050187 3.79836,-0.733319 5.46193,-0.938202 7.03709,-0.866671 2.96505,0.134651 2.93759,0.09298 2.93759,4.459059 0,4.022093 0.0483,3.903023 -1.85208,4.567899 -0.65484,0.229108 -2.14312,0.766903 -3.30729,1.195099 -4.67249,1.718604 -9.89646,3.57591 -11.77396,4.186058 -1.0914,0.354684 -2.2225,0.760129 -2.51354,0.900988 -0.29104,0.140859 -2.19604,0.835234 -4.23333,1.543055 l -3.70417,1.286953 v 1.41441 1.41441 l -2.64583,1.0412 c -1.45521,0.57266 -3.89599,1.54492 -5.42396,2.16058 l -2.77813,1.11939 0.06,1.38487 c 0.0529,1.222301 0.006,1.361981 -0.39687,1.189861 -0.25126,-0.10725 -1.15262,-0.2531 -2.00302,-0.32411 -1.20295,-0.10045 -1.81966,-0.006 -2.77813,0.42632 -1.17624,0.53032 -4.97664,2.05447 -8.37569,3.35909 -3.86022,1.48163 -8.7865,3.60229 -9.3927,4.04338 -0.36381,0.26471 -0.86087,0.87218 -1.10458,1.34994 l -0.44312,0.86864 -2.335,0.0407 c -2.04091,0.0356 -2.55945,0.14844 -4.11692,0.89624 -2.57308,1.23546 -3.52808,1.41612 -8.53684,1.61493 -4.07581,0.16179 -4.63449,0.24268 -5.95313,0.86194 -0.80036,0.37586 -1.97249,1.11834 -2.60472,1.64995 -0.74545,0.62681 -1.41972,0.96657 -1.91823,0.96657 -0.42279,0 -0.76871,0.0654 -0.76871,0.14543 0,0.32452 0.78591,1.63535 1.17317,1.95676 0.73974,0.61392 0.4433,1.08912 -1.10703,1.77458 -0.83674,0.36996 -1.61401,0.80989 -1.72725,0.97763 -0.11324,0.16773 -0.13572,0.81099 -0.0499,1.42945 0.14991,1.08081 0.12856,1.12448 -0.54966,1.12448 -1.91976,0 -6.27908,1.72987 -7.1879,2.8523 -0.43643,0.53901 -0.0413,1.2187 1.19175,2.05002 0.53944,0.36369 1.58328,1.1061 2.31965,1.64978 1.68634,1.24511 9.28585,6.67657 10.17053,7.26902 0.61924,0.41468 6.18241,4.43751 10.05417,7.27034 5.61427,4.10778 7.84635,5.36904 9.49249,5.36386 0.91676,-0.003 4.34324,-0.96248 7.44085,-2.08381 0.80036,-0.28973 3.41974,-1.13911 5.82083,-1.8875 2.4011,-0.74838 6.09203,-1.93675 8.20209,-2.6408 6.41333,-2.13992 7.50941,-2.21626 10.45103,-0.72796 1.39649,0.70656 3.93965,2.91846 4.61858,4.01699 1.02831,1.66384 0.94637,1.9253 -2.9496,9.41151 -0.56799,1.09141 -1.31597,2.46063 -1.66217,3.04271 -0.3462,0.58208 -0.71482,1.40245 -0.81915,1.82304 l -0.18969,0.7647 2.48539,-0.19272 c 3.52973,-0.2737 15.71368,-1.6205 20.87393,-2.30738 5.11207,-0.68047 10.55275,-0.79717 11.8401,-0.25398 l 0.8599,0.36283 v 2.4455 2.44549 l -1.12448,0.4321 c -0.61846,0.23766 -1.73546,0.89618 -2.48222,1.46338 -0.74675,0.56721 -1.61405,1.11264 -1.92734,1.21207 -0.31328,0.0994 -1.77335,0.70724 -3.24459,1.35069 -1.47125,0.64345 -2.77358,1.1699 -2.89407,1.1699 -0.1205,0 -0.84742,0.29517 -1.61537,0.65593 -1.28167,0.60208 -5.13448,2.17997 -9.06921,3.71423 -0.87314,0.34046 -3.07579,1.2361 -4.89479,1.99032 -1.81902,0.75422 -4.02167,1.64532 -4.89481,1.98024 -4.31943,1.65683 -6.62955,2.6246 -6.77378,2.8377 -0.13904,0.20544 1.13947,3.6484 2.31586,6.23646 0.21961,0.48313 0.33935,1.0346 0.26609,1.22551 -0.21575,0.56227 -2.71707,1.02459 -4.64257,0.8581 -0.96191,-0.0832 -2.51566,-0.34985 -3.4528,-0.5926 -1.02493,-0.26551 -2.30804,-0.39768 -3.2201,-0.33171 -1.38913,0.10048 -1.65661,0.23075 -3.19091,1.55405 -0.92108,0.79441 -2.21047,1.87352 -2.86532,2.39802 -0.65484,0.52451 -3.2053,2.72512 -5.66769,4.89026 -2.46239,2.16514 -5.49848,4.81797 -6.74689,5.89518 -1.24838,1.0772 -2.36501,2.119 -2.48138,2.3151 -0.16196,0.27292 -1.06175,0.35207 -3.83646,0.33744 l -3.62487,-0.0191 z"
       style="fill:#000000;stroke-width:0.264583" />
  </g>
</svg>
