<?xml version="1.0" encoding="UTF-8" standalone="no"?>
<svg
   xmlns:dc="http://purl.org/dc/elements/1.1/"
   xmlns:cc="http://creativecommons.org/ns#"
   xmlns:rdf="http://www.w3.org/1999/02/22-rdf-syntax-ns#"
   xmlns:svg="http://www.w3.org/2000/svg"
   xmlns="http://www.w3.org/2000/svg"
   xmlns:sodipodi="http://sodipodi.sourceforge.net/DTD/sodipodi-0.dtd"
   xmlns:inkscape="http://www.inkscape.org/namespaces/inkscape"
   width="175.68379mm"
   height="163.53517mm"
   viewBox="0 0 175.68379 163.53518"
   version="1.1"
   id="svg8"
   inkscape:version="1.0 (4035a4f, 2020-05-01)"
   sodipodi:docname="skiiers.svg">
  <defs
     id="defs2" />
  <sodipodi:namedview
     id="base"
     pagecolor="#ffffff"
     bordercolor="#666666"
     borderopacity="1.0"
     inkscape:pageopacity="0.0"
     inkscape:pageshadow="2"
     inkscape:zoom="0.35"
     inkscape:cx="376.30818"
     inkscape:cy="493.9987"
     inkscape:document-units="mm"
     inkscape:current-layer="layer1"
     inkscape:document-rotation="0"
     showgrid="false"
     fit-margin-top="0"
     fit-margin-left="0"
     fit-margin-right="0"
     fit-margin-bottom="0"
     inkscape:snap-midpoints="true"
     inkscape:window-width="1252"
     inkscape:window-height="801"
     inkscape:window-x="0"
     inkscape:window-y="23"
     inkscape:window-maximized="0" />
  <metadata
     id="metadata5">
    <rdf:RDF>
      <cc:Work
         rdf:about="">
        <dc:format>image/svg+xml</dc:format>
        <dc:type
           rdf:resource="http://purl.org/dc/dcmitype/StillImage" />
        <dc:title></dc:title>
      </cc:Work>
    </rdf:RDF>
  </metadata>
  <g
     inkscape:label="Layer 1"
     inkscape:groupmode="layer"
     id="layer1"
     transform="translate(-6.26846,-17.462843)">
    <path
       d=""
       id="path63"
       style="fill:#000000;stroke-width:0.264583" />
    <path
       id="path172"
       d="m 36.59152,180.40597 c -0.35324,-0.50431 -0.35373,-0.65476 -0.004,-1.33037 0.21665,-0.41898 0.4656,-1.52946 0.55322,-2.46775 0.25306,-2.7099 -0.38846,-3.03473 -3.66162,-1.85403 -1.15208,0.41558 -2.87156,0.75276 -4.66222,0.91425 -2.51145,0.22649 -5.89112,0.65825 -12.49427,1.59615 -1.0914,0.15502 -3.47855,0.4497 -5.30477,0.65484 -1.82622,0.20514 -3.64192,0.45368 -4.0349,0.55231 l -0.7145,0.17933 v -43.25579 c 0,-42.554291 0.008,-43.261671 0.51485,-43.618781 0.68179,-0.4807 0.98058,-2.13707 0.47645,-2.6412 -0.56278,-0.56277 -0.7793,-3.33495 -0.32856,-4.20659 0.60947,-1.17858 2.16005,-2.3385 3.74018,-2.79786 2.83567,-0.82435 6.06881,0.38224 7.22441,2.6961 0.34743,0.69567 0.62577,1.39067 0.61852,1.54445 -0.007,0.15378 -0.0879,1.38441 -0.17918,2.73473 -0.17894,2.64636 0.0797,3.60938 1.17557,4.37695 0.29989,0.21006 0.63498,0.7174 0.74464,1.12742 0.1328,0.49657 0.55291,0.93245 1.25812,1.30538 0.58231,0.30793 1.57276,1.11751 2.20099,1.79906 0.62823,0.68155 1.25116,1.23918 1.38429,1.23918 0.26783,0 0.82094,0.41805 1.48776,1.124481 0.24038,0.25466 0.62491,0.46302 0.85451,0.46302 0.22959,0 0.53056,0.1051 0.6688,0.23354 0.13824,0.12845 1.00876,0.42149 1.93448,0.65121 0.92572,0.22972 1.84467,0.63064 2.04211,0.89094 0.19744,0.2603 0.36276,0.34266 0.36739,0.18302 0.0174,-0.59962 -0.9827,-1.3905 -2.92206,-2.31081 -2.68135,-1.272411 -5.00702,-3.009791 -5.00702,-3.740471 0,-0.31025 -0.1398,-0.7039 -0.31067,-0.87476 -0.53018,-0.53018 -0.61749,-5.812 -0.12413,-7.50909 0.34844,-1.19861 0.36595,-1.60711 0.0992,-2.31391 -0.28269,-0.74893 -0.26508,-0.8913 0.13812,-1.11694 0.75463,-0.42232 0.63386,-2.80712 -0.19936,-3.93648 -0.75247,-1.01991 -0.83515,-1.78589 -0.273,-2.52912 0.21366,-0.28247 0.39225,-0.99733 0.39688,-1.58857 0.007,-0.85083 0.17874,-1.23701 0.82528,-1.85208 l 0.81683,-0.777104 -0.18774,-2.116667 c -0.10325,-1.164167 -0.18252,-2.29526 -0.17615,-2.513542 0.006,-0.218281 -0.11131,-0.651793 -0.26153,-0.963358 -0.16515,-0.342532 -0.18014,-0.732653 -0.0379,-0.986806 0.12937,-0.231174 0.18017,-0.928756 0.1129,-1.550181 -0.11771,-1.087231 -0.12929,-1.099912 -0.30693,-0.336113 -0.18351,0.789014 -0.1848,0.787964 -0.21592,-0.17639 -0.0172,-0.533574 0.0999,-1.013857 0.26016,-1.067292 0.20941,-0.06981 0.21371,-0.429813 0.0153,-1.278818 -0.27122,-1.16032 -0.27543,-1.163998 -0.23318,-0.203671 0.0237,0.537897 -0.0427,1.063757 -0.14754,1.168577 -0.10482,0.10482 -0.19058,-0.119195 -0.19058,-0.497808 0,-0.378617 -0.35895,-3.345257 -0.79766,-6.592536 -0.43871,-3.247279 -1.10041,-8.225864 -1.47043,-11.06352 -0.37003,-2.837657 -0.98078,-7.421563 -1.35723,-10.186459 -0.87889,-6.455136 -0.87587,-6.330718 -0.15638,-6.433056 0.39114,-0.05563 0.84721,0.206443 1.38131,0.79375 0.92822,1.020683 0.97319,1.230418 0.36,1.678796 -0.54267,0.39681 -0.52216,1.021746 0.19077,5.812594 0.28151,1.891771 0.86926,6.297083 1.30609,9.789583 0.43684,3.4925 0.97369,7.77875 1.193,9.525 0.65319,5.200999 0.92362,7.972496 1.20948,12.395285 0.26663,4.125206 0.5278,5.229276 1.41021,5.961616 0.2165,0.17967 0.47348,0.79928 0.57107,1.37689 0.14594,0.86383 0.34916,1.13785 1.14516,1.54411 0.53225,0.27165 1.17948,0.72806 1.43827,1.01423 0.53702,0.59383 0.38468,1.13653 -0.76104,2.71099 -0.37062,0.50933 -0.73755,1.24292 -0.81538,1.63021 -0.0778,0.3873 -0.3459,0.75762 -0.59571,0.82295 -0.38379,0.10036 -0.43812,0.38082 -0.35053,1.80937 0.057,0.92983 0.21464,2.03579 0.35029,2.45768 0.13564,0.4219 0.24662,1.04112 0.24662,1.37604 0,0.33493 0.12898,1.21035 0.28662,1.94538 0.33915,1.58143 1.01763,1.9203 2.46737,1.23235 0.49382,-0.23433 1.55174,-0.42606 2.35092,-0.42606 1.62542,0 1.77426,-0.15718 1.77426,-1.87372 0,-0.72625 0.11417,-1.0367 0.38126,-1.0367 0.6629,0 0.70004,-0.45131 0.15163,-1.84263 -0.65189,-1.65387 -0.74107,-5.53332 -0.15912,-6.92245 0.84867,-2.0258 2.98444,-2.95126 5.50769,-2.38658 1.79462,0.40161 2.90147,1.3617 3.50918,3.04384 0.40982,1.13439 0.42659,1.52175 0.14323,3.30729 -0.17652,1.11232 -0.4415,2.34436 -0.58885,2.73785 -0.22365,0.59728 -0.1214,1.0275 0.61906,2.60478 l 0.88696,1.88933 1.58589,-0.17782 c 0.87224,-0.0978 1.62155,-0.21348 1.66514,-0.25707 0.0436,-0.0436 -0.0543,-1.13571 -0.21746,-2.42695 -0.16319,-1.29124 -0.3332,-3.68803 -0.37779,-5.32619 -0.0705,-2.58967 -0.17169,-3.15957 -0.77515,-4.36563 -0.92302,-1.84472 -1.25272,-3.66417 -0.7809,-4.30942 0.19551,-0.26738 0.35548,-0.70363 0.35548,-0.96943 0,-0.2658 -0.9031,-3.130309 -2.00689,-6.365576 -1.10379,-3.235264 -2.22635,-6.537142 -2.49457,-7.337507 -0.26822,-0.800364 -1.15822,-3.241146 -1.97776,-5.423958 -0.81955,-2.182813 -1.72901,-4.613479 -2.02102,-5.401482 -0.29202,-0.788003 -0.82865,-2.020231 -1.19251,-2.738287 -0.36387,-0.718055 -0.59556,-1.371576 -0.51487,-1.452263 0.0807,-0.08069 -0.21525,-0.492617 -0.65765,-0.915395 -0.79551,-0.76023 -0.9625,-1.694072 -0.37952,-2.122376 0.152,-0.111673 0.0807,-0.19611 -0.16758,-0.198438 -0.40256,-0.0038 -0.74645,-0.713457 -0.75485,-1.5578 -0.006,-0.563732 0.67009,0.09601 1.05835,1.033356 0.23328,0.563166 0.50534,0.784977 0.96282,0.784977 0.78724,0 1.06135,0.635569 0.69393,1.608971 -0.33539,0.88855 -0.32996,0.902628 6.68624,17.334825 2.72779,6.388568 5.13437,12.032297 5.34796,12.54162 0.37578,0.896053 0.37239,0.912063 -0.10468,0.494313 -0.61732,-0.540562 -1.82953,-0.944401 -1.56888,-0.522657 0.0996,0.16111 0.32285,0.296687 0.49616,0.301287 0.33954,0.009 1.77032,1.18303 1.77032,1.45263 0,0.0899 0.38695,0.72069 0.8599,1.40175 0.81284,1.17054 0.85574,1.34971 0.78401,3.2743 -0.0689,1.84797 -0.0238,2.06387 0.48796,2.33776 0.39514,0.21147 0.5206,0.46709 0.41932,0.85436 -0.0795,0.30394 0.0974,1.27066 0.39303,2.14827 0.29565,0.87761 0.64483,2.61304 0.77595,3.85651 0.13113,1.24347 0.31257,2.76514 0.40321,3.38149 0.13957,0.94908 0.0346,1.35137 -0.68582,2.62785 -0.74653,1.32279 -0.80061,1.54378 -0.44195,1.80604 0.23312,0.17047 0.44467,0.80231 0.49247,1.47091 0.11157,1.560501 0.72568,1.678391 1.32092,0.25357 0.35267,-0.8442 0.581,-1.0613 1.11617,-1.0613 0.47471,0 0.63006,-0.1114 0.52762,-0.37836 -0.0799,-0.20809 0.0707,-0.83317 0.33457,-1.38906 0.26387,-0.55589 0.44507,-1.2158 0.40267,-1.46647 -0.0424,-0.25068 0.24183,-0.99996 0.63162,-1.66509 0.70689,-1.20621 0.71167,-1.20887 1.86748,-1.03554 l 1.15879,0.17377 0.002,-1.94827 c 7.9e-4,-1.07155 0.12223,-2.38303 0.26982,-2.91441 0.35471,-1.27704 2.03996,-2.78996 3.35094,-3.00828 1.75902,-0.29292 1.76749,-0.30188 1.18407,-1.25108 -0.2907,-0.47296 -0.6093,-1.33617 -0.70799,-1.91825 -0.0987,-0.58208 -0.39449,-2.07037 -0.65734,-3.30729 -0.26284,-1.23693 -0.62009,-3.52879 -0.79389,-5.093015 L 64.16262,70.1146 64.98144,68.878395 c 0.45025,-0.67991 0.81872,-1.437298 0.81872,-1.683086 0,-0.245784 0.31299,-0.9081 0.69554,-1.47181 0.38254,-0.563711 0.7206,-1.324468 0.75123,-1.690569 0.0306,-0.366101 0.13732,-0.848495 0.23707,-1.071986 0.1627,-0.36454 -0.70358,-2.106229 -2.75887,-5.546778 C 63.98891,56.181727 57.418,44.789808 56.39552,42.973192 55.95239,42.185901 55.44637,41.398294 55.27104,41.22296 c -0.17534,-0.175337 -0.3188,-0.420592 -0.3188,-0.545015 0,-0.279342 -4.68751,-8.072818 -7.75717,-12.897112 -1.25002,-1.964531 -2.87747,-4.545535 -3.61657,-5.735564 -0.73909,-1.190029 -1.48729,-2.211515 -1.66265,-2.26997 -0.24849,-0.08283 -0.24812,-0.261496 0.002,-0.809738 0.17628,-0.386902 0.25446,-0.913228 0.17373,-1.169614 -0.13967,-0.443545 -0.12829,-0.443697 0.2347,-0.0031 0.20983,0.254661 0.6958,0.463021 1.07994,0.463021 0.75833,0 0.86454,0.27037 0.39902,1.015775 -0.24936,0.399301 -0.0233,0.9404 1.3524,3.237556 0.90849,1.51697 1.8469,3.099802 2.08535,3.517404 0.96616,1.692085 6.09772,10.189613 7.00346,11.597284 0.53389,0.829755 0.9707,1.583046 0.9707,1.673981 0,0.09093 0.47359,0.826699 1.05243,1.635032 0.57883,0.808334 0.98853,1.573089 0.91043,1.699456 -0.0781,0.126371 -0.0317,0.229762 0.10304,0.229762 0.39643,0 1.67505,2.107692 1.47498,2.431399 -0.11975,0.19377 -0.0619,0.221303 0.16737,0.07962 0.25657,-0.158567 0.30376,-0.09497 0.1762,0.237445 -0.0958,0.249711 -0.0702,0.389721 0.057,0.311132 0.12716,-0.07859 2.57563,3.576399 5.44105,8.122197 2.86542,4.545796 5.67819,8.919927 6.25059,9.720292 0.95322,1.332831 1.02761,1.558787 0.88455,2.68687 -0.12923,1.018993 -0.0725,1.279097 0.3282,1.506374 0.46307,0.262617 0.46382,0.295534 0.0171,0.74754 -0.38819,0.392785 -0.55555,0.417716 -0.9886,0.147273 -2.24478,-1.401887 -2.85786,1.752473 -1.63374,8.405689 0.28827,1.56673 1.22328,3.34354 1.96602,3.73601 0.32695,0.17276 1.60648,1.3571 2.84341,2.63186 1.79245,1.84728 2.45095,2.35532 3.24404,2.50285 1.53555,0.28563 1.879,-0.15128 1.66115,-2.11315 -0.50219,-4.52247 -0.28601,-6.61859 0.76396,-7.40757 0.90756,-0.68197 2.69271,-1.119 4.04433,-0.9901 0.77458,0.0739 1.36666,0.36003 2.06123,0.99623 0.89519,0.81997 0.96034,0.97631 0.80064,1.92155 -0.15182,0.89861 -0.078,1.12586 0.58246,1.79387 0.69491,0.70281 0.73903,0.86157 0.54338,1.95554 -0.12543,0.70134 -0.1076,1.40808 0.0434,1.71979 0.14098,0.29104 0.29104,0.82682 0.33347,1.19062 0.0624,0.5348 0.20382,0.64616 0.73862,0.58153 0.79488,-0.0961 2.38125,-1.69462 2.38125,-2.39957 0,-0.2766 0.47625,-1.2161 1.05833,-2.08777 0.58208,-0.87168 1.05833,-1.81126 1.05833,-2.08795 0,-0.27669 0.16119,-0.73793 0.35819,-1.02497 0.46155,-0.67248 0.65114,-2.13091 0.8037,-6.182257 0.10333,-2.744168 0.052,-3.39162 -0.31466,-3.96875 -0.24097,-0.379299 -0.55994,-0.777108 -0.70882,-0.884021 -0.56447,-0.405339 -1.65081,-0.184237 -2.25507,0.45897 -0.72489,0.771602 -1.12039,0.827419 -1.61762,0.228296 -0.31022,-0.373787 -0.28046,-0.485637 0.21709,-0.815993 0.49988,-0.331912 0.55676,-0.550154 0.42759,-1.640748 -0.12137,-1.024789 -0.01,-1.561547 0.60305,-2.896285 0.68246,-1.486816 0.8139,-1.62478 1.42091,-1.491459 0.92697,0.203597 2.74065,-1.426453 2.32241,-2.087282 -0.0364,-0.05748 0.17198,-0.367639 0.46302,-0.689237 0.29105,-0.321598 0.4994,-0.631753 0.46302,-0.689237 -0.18022,-0.284755 -0.0124,-0.663125 0.50992,-1.149744 0.31683,-0.295175 0.50558,-0.607155 0.41944,-0.69329 -0.0861,-0.08614 0.0687,-0.652942 0.34418,-1.259565 0.42911,-0.945113 0.50161,-1.763133 0.50659,-5.716112 0.005,-4.229758 -0.0375,-4.659254 -0.51529,-5.167844 -0.52018,-0.553701 -0.51976,-0.555961 0.23513,-1.268452 0.71576,-0.675558 0.76356,-0.685726 0.89321,-0.189968 0.0962,0.36794 0.36207,0.523795 0.89348,0.523795 0.61457,0 1.3346,-0.583326 3.83746,-3.108854 2.55912,-2.582298 3.26186,-3.472861 4.14907,-5.257996 0.58747,-1.182028 1.26056,-2.222984 1.49575,-2.313235 0.2352,-0.09025 0.35721,-0.278024 0.27115,-0.417271 -0.0861,-0.139247 0.0949,-0.387703 0.40212,-0.552124 0.44876,-0.240169 0.6583,-0.208707 1.06574,0.160024 0.7104,0.6429 0.66969,1.446825 -0.0692,1.366024 -0.66518,-0.07274 -0.50426,-0.340346 -3.3828,5.625516 -1.15853,2.401093 -2.75559,5.55625 -3.54902,7.011458 -0.79343,1.455208 -2.1218,3.955521 -2.95192,5.55625 -0.83012,1.600729 -1.6737,3.145269 -1.87461,3.43231 -0.28524,0.407503 -0.36531,1.869744 -0.36531,6.671418 0,5.878741 0.0233,6.162001 0.52917,6.43273 0.62446,0.334201 0.69374,0.938565 0.13229,1.154015 -0.44888,0.172249 -0.53692,1.109451 -0.12798,1.362194 0.14789,0.0914 0.19459,0.28643 0.10376,0.433393 -0.0908,0.146963 -0.0182,0.791916 0.16133,1.433235 0.25931,0.92616 0.25846,1.873668 -0.004,4.605886 -0.28825,2.99915 -0.27949,3.51787 0.0684,4.04879 0.24108,0.36794 0.43945,1.44261 0.50124,2.7154 0.0625,1.28807 0.27998,2.45634 0.55972,3.00701 0.25161,0.4953 0.45747,1.16533 0.45747,1.48895 0,0.32363 0.16269,0.72344 0.36154,0.88847 0.20912,0.17355 0.41957,1.05174 0.49917,2.08292 0.19445,2.51898 1.89401,7.47141 2.56403,7.47141 0.12988,0 0.44281,0.0793 0.69539,0.17623 0.4136,0.15871 0.44493,0.0183 0.3152,-1.41241 -0.0792,-0.87375 -0.29357,-1.82806 -0.47631,-2.12067 -0.67483,-1.08057 -0.30526,-1.56135 3.62277,-4.71295 0.51814,-0.41572 1.0382,-0.52546 2.42585,-0.51187 2.33694,0.0229 2.83027,0.32811 3.38751,2.09587 0.42806,1.35795 0.42864,1.47701 0.009,1.9403 -0.37484,0.41419 -0.41422,0.78748 -0.24487,2.32109 0.19206,1.7392 0.23698,1.83158 0.92942,1.91125 0.41996,0.0483 0.7276,0.2456 0.7276,0.46659 0,0.53949 2.94095,-2.98785 3.31179,-3.97215 0.16817,-0.44632 0.6229,-1.4995 1.01052,-2.34039 0.38763,-0.8409 0.7076,-1.67434 0.71105,-1.85209 0.003,-0.17775 0.30838,-1.03756 0.67762,-1.91068 0.36923,-0.87313 0.7082,-2.24235 0.75327,-3.04271 0.0537,-0.95451 0.36675,-2.04695 0.90968,-3.175 0.45525,-0.94589 0.82783,-1.85256 0.82794,-2.01484 1.2e-4,-0.16228 0.24638,-0.608 0.54725,-0.99049 0.30088,-0.38249 0.57622,-0.96913 0.61189,-1.30364 0.0357,-0.33451 0.16508,-0.77039 0.28759,-0.96862 0.14168,-0.22924 0.12226,-0.29831 -0.0533,-0.18979 -0.30632,0.18932 -0.77803,-6.465005 -0.49118,-6.929126 0.0907,-0.14681 0.0397,-0.344342 -0.11337,-0.43896 -0.15311,-0.09462 -0.26366,-0.608859 -0.24569,-1.142762 0.018,-0.5339 -0.20774,-4.483073 -0.50157,-8.775938 -0.29383,-4.292865 -0.6776,-10.424583 -0.85281,-13.626042 -0.17522,-3.201458 -0.41461,-6.008471 -0.53198,-6.237806 -0.13942,-0.272399 0.008,-0.776955 0.42446,-1.455209 0.61545,-1.001757 0.63816,-1.013133 0.64612,-0.323778 0.005,0.393132 0.2165,0.837189 0.47128,0.987347 0.3682,0.217003 0.39141,0.320115 0.11336,0.503484 -0.51616,0.340398 -0.16196,7.702623 1.28007,26.606036 0.14312,1.876226 0.26022,4.397801 0.26022,5.603496 0,1.640107 0.10471,2.29688 0.41578,2.607948 0.44486,0.444862 0.76274,0.559697 0.53664,0.193865 -0.0754,-0.122052 0.3045,-0.471924 0.84428,-0.777494 0.53979,-0.305572 1.55056,-1.136171 2.24616,-1.845778 l 1.26472,-1.290193 0.51168,-6.955695 c 0.30073,-4.08804 0.63687,-7.106544 0.81534,-7.321587 0.17992,-0.216791 0.22844,-0.663784 0.11907,-1.096928 -0.10144,-0.402074 -0.17442,-1.921666 -0.16209,-3.376874 0.0221,-2.61093 0.1435,-4.79819 1.03911,-18.723525 0.2505,-3.895022 0.35976,-7.252877 0.24278,-7.461901 -0.14321,-0.255905 -0.0378,-0.473616 0.32259,-0.666513 0.316,-0.169115 0.55004,-0.580729 0.57131,-1.004766 0.032,-0.638429 0.0489,-0.650983 0.15201,-0.112908 0.0638,0.332963 0.34136,0.746135 0.61682,0.91816 0.48771,0.304585 0.48636,0.328166 -0.0516,0.900824 -0.53224,0.566542 -0.56043,0.963632 -0.77075,10.855799 -0.12006,5.647262 -0.35837,13.839622 -0.52957,18.205247 -0.17121,4.365625 -0.32651,9.538015 -0.34512,11.494201 l -0.0338,3.556701 0.66146,0.163552 c 0.54819,0.135546 0.64828,0.30022 0.5845,0.961702 -0.0423,0.438984 0.0455,1.120291 0.19521,1.514018 0.30163,0.793345 0.0768,1.369573 -1.016,2.604433 -0.56385,0.63712 -0.61728,0.89058 -0.48811,2.31511 0.14085,1.5533 0.12661,1.59966 -0.49132,1.59966 -0.38486,0 -0.63637,-0.15445 -0.63637,-0.39078 0,-0.55807 -1.10194,-1.20497 -1.75961,-1.03298 -0.69995,0.18304 -1.20406,1.25174 -0.99096,2.1008 0.11506,0.45842 0.009,0.78141 -0.36585,1.10932 -0.64767,0.56727 -1.12055,1.94134 -1.10609,3.21406 0.009,0.83598 0.22831,1.1472 1.78594,2.5402 l 1.77511,1.5875 h 2.08691 c 2.70818,0 2.91217,-0.25311 2.07823,-2.57866 -0.80444,-2.24326 -0.76818,-3.72901 0.13434,-5.50553 1.13744,-2.2389 2.91212,-2.90307 6.08542,-2.27745 0.95123,0.18754 1.12448,0.15569 1.12448,-0.20674 0,-0.23564 -0.20836,-0.50233 -0.46302,-0.59264 -1.34648,-0.47751 -1.83786,-1.85455 -0.89786,-2.516163 0.60266,-0.424169 0.95255,-1.430446 0.57789,-1.661996 -0.48511,-0.299815 -0.29635,-0.597763 0.47665,-0.752361 l 0.75198,-0.1504 0.30543,-3.917569 c 0.40668,-5.216194 0.55805,-12.33166 0.56559,-26.585291 l 0.006,-11.819805 0.65996,-0.784325 c 0.40399,-0.480114 1.03021,-0.853782 1.61454,-0.963403 1.10702,-0.207678 1.45065,-0.01631 0.8136,0.45309 -0.3742,0.275718 -0.48644,1.159151 -0.70421,5.542756 -0.25555,5.144257 -0.39055,7.118689 -1.19919,17.539406 -0.22585,2.910417 -0.48389,8.704014 -0.57342,12.874657 -0.1458,6.791939 -0.20687,7.56697 -0.58547,7.429402 -0.53256,-0.193513 0.64912,1.015228 1.57429,1.610339 0.63227,0.406707 0.73478,0.40104 1.65364,-0.09144 0.53877,-0.288766 0.99224,-0.435499 1.00771,-0.326075 0.0155,0.109424 0.0452,0.431207 0.0661,0.715073 0.0219,0.297101 0.29019,0.577797 0.63225,0.661459 0.32683,0.07994 0.81713,0.562054 1.08956,1.071376 0.31591,0.59062 0.7017,0.93701 1.06511,0.95634 0.31338,0.0167 0.8028,0.24117 1.0876,0.49891 0.49987,0.45238 0.55314,0.43757 1.53662,-0.42717 0.56033,-0.49268 1.20994,-1.01485 1.44356,-1.16037 0.29357,-0.182857 0.50971,-0.959258 0.69974,-2.513542 0.71362,-5.836844 2.71026,-21.597017 3.05029,-24.077084 1.61448,-11.775448 1.55323,-11.113183 1.07657,-11.639887 -0.41539,-0.458994 -0.40984,-0.506251 0.0908,-0.774192 0.29326,-0.156947 0.61157,-0.532302 0.70737,-0.834121 0.15902,-0.501043 0.21368,-0.472308 0.62853,0.330449 0.35936,0.695394 0.38797,0.962184 0.13684,1.276085 -0.17463,0.218281 -0.3971,1.051718 -0.49437,1.852083 -0.0973,0.800365 -0.47657,3.657865 -0.84287,6.35 -0.3663,2.692135 -0.70941,5.313622 -0.76246,5.825527 -0.0531,0.511905 -0.57557,4.56003 -1.16113,8.995833 -1.90778,14.451894 -2.09445,15.995819 -1.96021,16.213029 0.0729,0.11791 0.27041,0.16799 0.43898,0.11129 0.50388,-0.16949 0.95762,1.81011 0.66107,2.88413 -0.20137,0.72931 -0.16703,1.07243 0.1568,1.56666 0.51284,0.78268 0.53131,1.54817 0.0471,1.95005 -0.7069,0.58667 -0.65894,1.58008 0.13266,2.74783 0.41495,0.61212 0.75661,1.2933 0.75926,1.51374 0.003,0.22043 0.2255,0.81574 0.49521,1.32291 0.26972,0.50717 0.56901,1.34856 0.66509,1.86975 0.0961,0.5212 0.47072,1.20502 0.83252,1.51961 0.36181,0.31459 0.65783,0.73677 0.65783,0.93819 0,0.4724 2.83598,2.81317 3.40383,2.80947 0.23795,-0.002 0.84046,-0.42251 1.33891,-0.93547 l 0.90627,-0.93266 -0.45857,-2.83323 c -0.45566,-2.81527 -0.45512,-2.83603 0.0859,-3.27413 0.32048,-0.2595 0.54448,-0.753 0.54448,-1.19951 0,-1.61706 1.62275,-2.72844 3.98384,-2.72844 2.1819,0 3.53379,0.80086 4.48624,2.65764 0.41683,0.81262 0.45288,1.27191 0.26995,3.43959 -0.1847,2.18859 -0.14051,2.7276 0.35307,4.30619 l 0.5642,1.80445 1.12903,-0.14637 c 1.26774,-0.16435 2.54766,-0.74384 3.43503,-1.55523 l 0.59531,-0.54434 v 4.57343 4.573441 l -1.22028,2.55029 -1.22029,2.55029 0.55908,1.71979 c 0.30749,0.94589 0.75013,2.31511 0.98364,3.04271 0.23352,0.72761 0.55449,2.60235 0.71329,4.16609 0.2593,2.55351 0.24383,2.87698 -0.15183,3.175 -0.37576,0.28304 -0.39926,0.5069 -0.15976,1.52245 0.15443,0.65485 0.29948,3.39329 0.32232,6.08542 0.0366,4.31291 -0.0267,5.13069 -0.53223,6.87917 -0.605,2.0924 -0.57915,2.98517 0.13024,4.49791 0.37428,0.79815 0.44757,2.38338 0.53066,11.47793 0.0531,5.80854 -0.007,10.62549 -0.13377,10.71562 -0.49847,0.35462 -1.17631,1.68226 -1.0401,2.0372 0.0793,0.20653 0.38595,0.3755 0.68156,0.3755 0.52395,0 0.53747,0.14642 0.53747,5.82084 0,3.62879 -0.0977,5.82083 -0.25954,5.82083 -0.14275,0 -0.34018,-0.32742 -0.43873,-0.7276 -0.0986,-0.40019 -0.35207,-0.99463 -0.56337,-1.32099 -0.22985,-0.35501 -0.31726,-0.86006 -0.21758,-1.25722 0.10669,-0.42512 -0.0255,-1.04044 -0.36771,-1.71117 -0.36018,-0.70601 -0.53946,-1.58973 -0.55009,-2.71154 -0.009,-0.9153 -0.12826,-2.2595 -0.26574,-2.9871 -0.13748,-0.72761 -0.32463,-1.79917 -0.41589,-2.38125 -0.0913,-0.58209 -0.34073,-1.25941 -0.55436,-1.50516 -0.21364,-0.24576 -0.54128,-1.43638 -0.72808,-2.64584 -0.18681,-1.20945 -0.55338,-2.61106 -0.81461,-3.11469 -0.31832,-0.61369 -0.54979,-1.92259 -0.70185,-3.96875 -0.12479,-1.67918 -0.4012,-3.74729 -0.61425,-4.59579 -0.21305,-0.8485 -0.38737,-2.0515 -0.38737,-2.67334 0,-0.83928 -0.17044,-1.31454 -0.66145,-1.84435 -0.70553,-0.76128 -0.74224,-1.05937 -0.41033,-3.33229 0.11687,-0.80037 0.12247,-1.57427 0.0124,-1.71979 -0.11004,-0.14553 -0.27987,-1.21709 -0.3774,-2.38125 -0.28502,-3.40209 -1.10897,-4.67595 -1.52617,-2.35952 -0.5419,3.0088 -0.74128,4.50847 -0.99966,7.51889 -0.31383,3.65646 -0.67083,5.59368 -1.22661,6.65596 -0.25989,0.49673 -0.37696,1.83339 -0.39921,4.55807 -0.0239,2.92452 -0.11963,3.92838 -0.39655,4.15821 -0.26286,0.21816 -0.36506,0.99754 -0.36506,2.78411 v 2.48115 l -1.12447,-0.004 c -1.49288,-0.005 -3.1394,-0.60145 -3.60727,-1.30609 -0.20804,-0.31333 -0.40558,-1.33758 -0.43897,-2.27611 -0.0399,-1.1229 -0.2253,-1.95506 -0.54205,-2.43355 -0.95881,-1.44839 -0.51119,-9.62987 0.74813,-13.67437 l 0.81843,-2.62848 -0.33254,-3.58923 c -0.18289,-1.97407 -0.36187,-4.00594 -0.39774,-4.51526 -0.0359,-0.50933 -0.15386,-1.46755 -0.26222,-2.12938 -0.13283,-0.8113 -0.0548,-1.84569 0.23953,-3.175 0.72232,-3.26235 0.80505,-4.5228 0.32015,-4.87737 -0.35661,-0.26076 -0.38346,-0.56836 -0.17532,-2.0084 0.13518,-0.93526 0.24818,-2.72335 0.25111,-3.97353 0.003,-1.25018 0.1727,-2.82924 0.37729,-3.50902 0.35058,-1.16488 0.33302,-1.3385 -0.30516,-3.01861 -1.2297,-3.2374 -1.62156,-3.88465 -3.38268,-5.58737 -0.9595,-0.927681 -2.6923,-2.951441 -3.85067,-4.497241 -1.64216,-2.19141 -2.22891,-3.21854 -2.6635,-4.66263 -0.30656,-1.01864 -0.64587,-1.95007 -0.75402,-2.06983 -0.10815,-0.11976 -0.7544,0.51567 -1.43612,1.41206 -0.91703,1.20583 -1.39908,2.19166 -1.85302,3.78962 -0.71254,2.50831 -1.06007,6.958921 -0.68874,8.820351 0.5546,2.78011 1.06859,5.80065 1.06839,6.27855 -1.1e-4,0.27702 -0.49551,0.96093 -1.10088,1.51981 l -1.10068,1.01614 0.33423,1.12603 c 0.18383,0.61931 0.56007,1.33902 0.8361,1.59935 0.27602,0.26033 0.51775,0.61752 0.53717,0.79375 0.39121,3.5501 0.5225,8.90951 0.25386,10.36274 -0.20397,1.10337 -0.20084,2.03227 0.0112,3.31607 0.24903,1.50798 0.22371,2.04423 -0.16399,3.4729 -0.25217,0.92925 -0.44318,1.86814 -0.42447,2.08642 0.0187,0.21829 0.10391,1.52182 0.18934,2.89675 0.0914,1.47143 0.31078,2.7371 0.53317,3.07651 0.30013,0.45807 0.37026,1.71217 0.34106,6.09909 -0.0202,3.03734 0.051,5.73891 0.15827,6.00348 0.21262,0.52439 -0.91314,4.19313 -1.22712,3.99908 -0.10199,-0.063 -0.12332,0.39143 -0.0474,1.00993 0.16786,1.36739 2.14173,4.40823 5.30172,8.16754 1.20055,1.42824 2.18281,2.75284 2.18281,2.94355 0,0.83739 -0.78811,1.45337 -2.04064,1.59495 -1.58958,0.17966 -2.43643,-0.27984 -3.66811,-1.99036 -0.78723,-1.09327 -1.02712,-1.25677 -1.84407,-1.25677 -1.08301,0 -2.10347,0.90748 -2.36635,2.10435 -0.26212,1.19344 -1.92654,2.39357 -3.31954,2.39357 -0.44577,0 -1.18066,0.19143 -1.6331,0.42539 -0.82827,0.42832 -3.13679,0.34603 -3.7747,-0.13456 -0.14916,-0.11237 -0.96864,-0.48094 -1.82107,-0.81904 -0.85242,-0.3381 -3.01267,-1.35756 -4.80054,-2.26547 -1.78787,-0.90791 -3.50043,-1.73001 -3.80569,-1.82689 -0.432,-0.13712 -0.87802,0.12934 -2.01247,1.20225 -1.36871,1.29447 -1.45747,1.45491 -1.45747,2.63464 0,0.87258 -0.12121,1.30274 -0.39687,1.40853 -0.21829,0.0838 -0.39689,0.3259 -0.39689,0.53809 0,0.5131 -1.45711,1.21831 -2.51727,1.21831 -0.46665,0 -1.26346,-0.28162 -1.77067,-0.62582 -0.50721,-0.3442 -1.05589,-0.67162 -1.21929,-0.72761 -0.1634,-0.056 -0.98541,-0.76365 -1.8267,-1.57261 -2.60973,-2.50945 -8.86238,-7.85578 -12.66861,-10.83229 -3.1752,-2.48305 -6.45578,-5.95318 -6.45578,-6.82879 0,-0.35165 1.02643,-0.84522 1.19398,-0.57413 0.0881,0.14254 0.36609,0.25917 0.61778,0.25917 0.25168,0 0.92467,0.23812 1.49553,0.52916 1.27724,0.65118 1.89173,0.66957 2.20991,0.0661 0.13429,-0.25466 0.30825,-2.07036 0.38659,-4.0349 0.0783,-1.96453 0.28031,-4.52437 0.44882,-5.68854 0.16851,-1.16416 0.29327,-2.49467 0.27723,-2.95669 -0.0202,-0.58174 0.14574,-0.96253 0.53968,-1.23845 0.46376,-0.32483 0.53664,-0.56066 0.39454,-1.27664 -0.0959,-0.48302 -0.26999,-1.94978 -0.38693,-3.25947 -0.20874,-2.33757 -0.45412,-3.5012 -1.27126,-6.02838 -0.42618,-1.31805 -0.3157,-4.04611 0.22104,-5.45783 0.17304,-0.45514 0.15339,-0.84965 -0.0624,-1.25289 -0.23935,-0.44721 -0.24289,-0.87492 -0.0147,-1.78095 0.38824,-1.54186 0.3809,-2.68818 -0.0213,-3.33227 -0.25433,-0.40725 -0.24849,-0.71708 0.0279,-1.48148 0.19223,-0.5316 0.36281,-2.11396 0.37907,-3.51637 0.0266,-2.29371 -0.0395,-2.66942 -0.65808,-3.74045 -0.37821,-0.65485 -0.76812,-1.53633 -0.86648,-1.95885 -0.0983,-0.42252 -0.51402,-1.25596 -0.92371,-1.85208 -0.40969,-0.59613 -1.06522,-2.0959 -1.45672,-3.33282 -0.3915,-1.23693 -0.94691,-2.767431 -1.23425,-3.401101 -0.28733,-0.63368 -0.6424,-2.0029 -0.78904,-3.04271 -0.14663,-1.03981 -0.38725,-2.54541 -0.53471,-3.34578 -0.14745,-0.80036 -0.33314,-1.96767 -0.41262,-2.594 -0.14266,-1.12406 -0.15689,-1.13776 -1.09954,-1.05834 -0.841,0.0708 -0.97581,0.18294 -1.1291,0.93873 -0.0957,0.47205 -0.29327,1.00783 -0.43895,1.19063 -0.14567,0.18279 -0.33164,0.92767 -0.41325,1.65527 -0.0816,0.72761 -0.26955,2.09065 -0.41765,3.02899 -0.38863,2.4623 -0.1079,12.462811 0.38282,13.637271 0.57992,1.38794 0.48917,2.11717 -0.3087,2.4807 -0.59176,0.26963 -0.66865,0.43515 -0.54205,1.16695 0.0811,0.46902 0.2612,1.53065 0.40013,2.35918 0.13894,0.82852 0.32116,1.6173 0.40493,1.75284 0.0838,0.13554 0.34654,2.37468 0.58394,4.97588 0.42785,4.68792 0.42195,7.06063 -0.045,18.0909 -0.14051,3.31926 -0.0882,4.16386 0.3882,6.26497 0.30283,1.33569 0.79033,3.03674 1.08335,3.78011 0.78819,1.99967 0.71782,2.3431 -0.59173,2.88788 -0.61847,0.25729 -1.47748,0.57941 -1.90893,0.71583 l -0.78445,0.24804 0.0617,2.24586 c 0.0339,1.23522 0.0651,2.7108 0.0692,3.27907 0.008,1.16489 2.19838,5.39054 4.65361,8.97963 l 1.4197,2.07535 -0.81855,1.03351 c -0.7822,0.98758 -0.88638,1.0335 -2.34488,1.0335 -1.50684,0 -1.54333,-0.0183 -2.86143,-1.4345 -1.00236,-1.07697 -1.38291,-1.71738 -1.52687,-2.56951 -0.10547,-0.62426 -0.2971,-1.31818 -0.42584,-1.54206 -0.12874,-0.22388 -0.58079,-1.47861 -1.00454,-2.7883 -0.42376,-1.30969 -1.13714,-3.26083 -1.58529,-4.33587 -0.44816,-1.07504 -0.81483,-2.37108 -0.81483,-2.88008 0,-0.65456 -0.1995,-1.11034 -0.68153,-1.55707 -0.78131,-0.72409 -0.72623,-1.31977 0.11081,-1.19837 0.68031,0.0987 0.80172,-0.75231 0.18084,-1.26759 -0.57016,-0.47319 -0.66173,-1.38141 -0.77792,-7.71547 -0.0686,-3.74012 -0.2146,-5.93003 -0.42105,-6.31578 -0.21016,-0.39267 -0.21855,-0.53025 -0.0251,-0.41067 0.42975,0.2656 0.37024,-1.75852 -0.0694,-2.35973 -0.32317,-0.44195 -0.37777,-0.33113 -0.52916,1.07391 -0.0928,0.8617 -0.21757,2.45969 -0.27716,3.55109 -0.0596,1.09141 -0.19179,3.26605 -0.29376,4.83254 -0.13923,2.13863 -0.10185,2.94885 0.15004,3.25236 0.25409,0.30615 0.26116,0.47849 0.0292,0.71048 -0.17054,0.17054 -0.30629,1.08553 -0.30629,2.06445 0,1.42214 -0.10113,1.84969 -0.52916,2.23705 -0.69696,0.63073 -0.67289,1.35591 0.0513,1.54528 0.54948,0.14369 0.55654,0.17822 0.13229,0.64701 -0.24649,0.27236 -0.44816,0.78875 -0.44816,1.14753 0,0.35877 -0.34791,2.37346 -0.77312,4.47708 -0.42522,2.10362 -0.9645,5.19398 -1.19841,6.86747 -0.39127,2.79941 -0.6953,3.73661 -1.90715,5.87909 -0.45147,0.79816 -0.88127,0.99152 -2.21401,0.99603 -1.43827,0.005 -2.29323,-0.5318 -2.80731,-1.76219 -0.36378,-0.87064 -0.32422,-1.03933 1.09338,-4.66177 0.80895,-2.06715 1.64622,-4.14944 1.86059,-4.62732 0.21438,-0.47788 0.38978,-1.11079 0.38978,-1.40646 0,-0.29567 0.13573,-0.79121 0.30164,-1.1012 0.43483,-0.8125 0.35079,-7.62669 -0.0976,-7.91126 -0.185,-0.11741 -0.73114,-0.2153 -1.21365,-0.21753 -1.40408,-0.006 -1.90168,-0.40947 -1.89503,-1.53471 0.003,-0.54059 0.24132,-1.5019 0.52917,-2.13626 0.31091,-0.68518 0.52336,-1.72368 0.52336,-2.55832 0,-0.77271 0.1851,-2.12748 0.41134,-3.01058 0.35589,-1.38917 0.37227,-2.3284 0.12148,-6.96668 -0.15942,-2.94858 -0.38837,-6.13495 -0.50878,-7.08084 -0.95591,-7.50953 -0.96851,-9.27767 -0.10141,-14.22625 0.38723,-2.20996 0.38929,-2.4845 0.0209,-2.77813 -0.52301,-0.41687 -0.76325,-2.36742 -0.479,-3.88892 0.28967,-1.55041 0.0411,-3.97753 -0.40729,-3.97753 -0.18675,0 -0.67611,0.27956 -1.08746,0.62124 -0.43971,0.36525 -1.27482,0.69149 -2.02662,0.7917 -0.70329,0.0937 -1.37108,0.22754 -1.48397,0.29731 -0.11289,0.0698 -0.14603,2.38579 -0.0736,5.14671 0.12278,4.68255 0.0937,5.11416 -0.43312,6.42363 -0.31061,0.77208 -0.56665,1.76097 -0.56897,2.19754 -0.002,0.43656 -0.0172,1.15093 -0.0331,1.5875 -0.0159,0.43656 0.0638,2.85247 0.17708,5.36869 0.26275,5.83702 -0.12051,9.93744 -1.19222,12.75526 -0.4151,1.09141 -0.82418,2.2225 -0.90906,2.51355 -0.0849,0.29104 -0.51187,0.76729 -0.94886,1.05833 -0.88896,0.59206 -1.00843,1.29884 -0.37292,2.20616 0.30484,0.4352 0.3775,0.914 0.25989,1.71251 -0.0898,0.60963 -0.27265,2.00138 -0.40637,3.09279 -0.13372,1.0914 -0.36973,2.40031 -0.52447,2.90867 -0.15474,0.50836 -0.28134,0.95484 -0.28134,0.99219 0,0.0373 0.47625,0.0679 1.05833,0.0679 h 1.05833 v 1.15852 c 0,1.04104 0.0815,1.19229 0.80386,1.4915 1.21405,0.50287 1.68938,1.68776 0.97254,2.42431 -0.18716,0.19229 -0.48378,0.83626 -0.65918,1.43103 -0.17539,0.59477 -0.55805,1.29783 -0.85035,1.56236 -0.2923,0.26453 -0.53145,0.63196 -0.53145,0.81651 0,0.18455 0.4854,1.23546 1.07868,2.33535 0.59327,1.09989 1.03975,2.2002 0.99218,2.44514 -0.0476,0.24494 -0.47344,0.66387 -0.94638,0.93094 -1.20935,0.68292 -2.25062,1.32939 -3.07631,1.9099 -0.55719,0.39173 -1.34353,0.52587 -3.67792,0.62736 -2.77764,0.12078 -3.00173,0.0929 -3.47324,-0.43212 -0.28663,-0.31916 -0.82467,-0.56122 -1.24746,-0.56122 -0.84331,0 -1.29122,-0.61601 -1.29122,-1.77582 0,-0.8683 0.65464,-1.92835 1.19088,-1.92835 0.20191,0 0.69135,-0.27889 1.08763,-0.61976 0.92764,-0.79792 0.70595,-1.39097 -0.60644,-1.62229 -2.93297,-0.51696 -3.66911,-1.71 -3.38142,-5.48022 0.14354,-1.88118 0.0985,-2.4081 -0.24826,-2.90314 -0.6656,-0.95028 -0.53761,-1.53585 0.37562,-1.7185 0.92993,-0.18599 1.23496,-0.54437 0.81811,-0.96122 -0.47812,-0.47812 -0.34247,-1.03809 0.45923,-1.89581 0.52569,-0.56243 0.87908,-1.3666 1.16825,-2.65843 0.76312,-3.40911 1.79838,-6.85534 2.18907,-7.28705 0.2128,-0.23515 0.38692,-0.731 0.38692,-1.10191 0,-0.3709 0.17859,-0.82259 0.39687,-1.00375 0.89756,-0.74491 0.35229,-4.4055 -1.3991,-9.39271 -0.35773,-1.01864 -0.63236,-2.33772 -0.61029,-2.93127 0.0263,-0.70913 -0.13269,-1.2989 -0.46386,-1.7199 -1.15282,-1.46558 -1.75754,-6.75179 -1.16288,-10.16549 0.17745,-1.01865 0.35379,-2.62599 0.39188,-3.57188 l 0.0693,-1.71979 -2.09215,-0.078 -2.09215,-0.078 0.1729,3.80526 c 0.0951,2.09289 0.0841,3.8941 -0.0245,4.00269 -0.10858,0.10859 -0.2122,3.3129 -0.23027,7.12068 -0.0181,3.80779 -0.16989,8.11388 -0.33739,9.56909 -0.58251,5.06068 -0.59831,5.65767 -0.21476,8.11339 0.28442,1.82102 0.32695,3.13031 0.16188,4.98348 -0.12314,1.38245 -0.2919,3.58422 -0.37502,4.89282 -0.0831,1.3086 -0.31227,2.62519 -0.5092,2.92575 -0.2484,0.37911 -0.27924,0.68732 -0.10071,1.00635 0.4546,0.81231 0.35856,3.75257 -0.14781,4.52538 -0.62881,0.95969 -0.84524,3.1141 -0.43707,4.35085 0.25259,0.76537 0.25987,1.14384 0.0303,1.57286 -0.23795,0.4446 -0.2132,0.7374 0.11617,1.37433 0.47561,0.91972 0.3353,1.62628 -0.47236,2.37873 -0.76757,0.7151 -0.9812,3.39599 -0.34766,4.36289 0.24175,0.36895 0.36139,0.79727 0.26587,0.95182 -0.0955,0.15455 -0.19434,0.80068 -0.2196,1.43585 -0.0253,0.63518 -0.13113,1.24005 -0.23525,1.34417 -0.23596,0.23595 -1.51015,-0.93131 -1.51015,-1.3834 0,-0.7364 -0.83237,-1.1634 -2.26786,-1.1634 -1.40393,0 -2.24066,0.42868 -2.5298,1.29608 -0.0557,0.16714 -0.57661,0.37637 -1.15755,0.46495 -0.58094,0.0886 -1.29438,0.37155 -1.58542,0.62881 -0.29104,0.25726 -0.76729,0.51062 -1.05833,0.56301 -0.30793,0.0554 -0.56452,0.34303 -0.61372,0.68788 -0.11545,0.80925 -1.44236,0.82514 -2.00351,0.024 z M 24.5565,170.8009 c 0.76179,-0.40553 2.0272,-0.75008 3.37593,-0.91919 1.18656,-0.14879 2.36368,-0.377 2.61581,-0.50714 0.25213,-0.13015 1.22476,-0.32025 2.1614,-0.42245 0.93665,-0.10219 2.00978,-0.34446 2.38474,-0.53836 0.37496,-0.1939 1.27549,-0.43982 2.00118,-0.5465 2.28097,-0.33532 2.37513,-0.41514 2.72416,-2.30942 0.41959,-2.27718 0.41475,-2.31034 -0.33709,-2.31034 -0.98486,0 -1.31021,-0.87535 -1.29553,-3.48568 0.011,-1.9474 -0.0555,-2.31294 -0.43849,-2.4131 -0.49834,-0.13032 -0.79327,-1.48242 -1.36814,-6.27205 -0.36928,-3.07677 -0.36792,-3.721 0.0176,-8.39025 0.23106,-2.79816 0.20984,-3.34503 -0.15842,-4.08323 -0.4362,-0.87439 -0.73404,-3.11499 -1.03246,-7.76715 -0.0933,-1.45521 -0.2936,-2.88396 -0.445,-3.175 -0.15141,-0.29104 -0.30234,-1.5412 -0.3354,-2.77812 -0.0331,-1.23693 -0.072,-2.54815 -0.0865,-2.91382 -0.0165,-0.41542 -0.24649,-0.76286 -0.61305,-0.92605 -0.70834,-0.31534 -0.93957,-1.06958 -0.97446,-3.17853 -0.0393,-2.3751 -0.54385,-6.01018 -0.89256,-6.43035 -0.16834,-0.20283 -0.27364,-0.74516 -0.23401,-1.20517 0.0652,-0.75693 -0.0431,-0.89236 -1.14074,-1.42561 -0.66703,-0.32407 -1.60884,-0.58922 -2.09291,-0.58922 -0.48407,0 -1.70076,-0.29766 -2.70376,-0.66146 -1.00299,-0.3638 -1.90472,-0.66146 -2.00383,-0.66146 -0.3189,0 -1.01272,1.64536 -1.01272,2.4016 0,0.40304 -0.28767,1.07468 -0.63928,1.49254 -0.3516,0.41786 -0.71881,1.23067 -0.81603,1.80624 -0.0972,0.57557 -0.28916,1.4157 -0.42655,1.86695 -0.19335,0.63502 -0.13433,1.08985 0.26108,2.01233 0.281,0.65552 0.70109,1.26484 0.93355,1.35405 0.46998,0.18034 0.57398,0.878 0.15186,1.01871 -0.18296,0.061 -0.16958,0.9803 0.0412,2.83442 0.3875,3.40773 -0.0134,7.13473 -0.96847,9.00269 -0.61845,1.20963 -1.63913,4.95992 -2.23843,8.22464 -0.17359,0.94566 -0.47254,2.17484 -0.66433,2.73152 -0.33804,0.98115 -0.32449,1.03371 0.44259,1.71719 0.7082,0.631 0.77335,0.81652 0.62034,1.7664 -0.44637,2.77101 -0.44659,4.93036 -5.8e-4,5.87022 0.34184,0.72039 0.39431,1.21925 0.22766,2.16467 -0.11911,0.67569 -0.22002,2.65729 -0.22425,4.40354 -0.005,2.07779 -0.12446,3.37936 -0.3456,3.76634 -0.26359,0.46129 -0.28106,1.29339 -0.0794,3.78327 0.26691,3.29589 0.20415,3.95976 -0.3743,3.95976 -0.18598,0 -0.53839,0.30563 -0.78315,0.67917 -0.81452,1.24312 -0.0791,1.57359 3.69355,1.65974 1.51299,0.0345 2.07841,-0.077 3.07273,-0.60634 z m 15.41645,-1.24422 c 0.56071,-0.92345 0.55203,-1.32335 -0.0104,-0.48107 -0.24027,0.3598 -0.80582,1.06266 -1.25677,1.56192 l -0.81991,0.90773 0.83035,-0.64315 c 0.4567,-0.35373 1.02224,-0.95918 1.25677,-1.34543 z m 101.20818,-0.178 c 0.24254,-0.4532 -0.003,-1.57048 -0.73686,-3.35305 -0.52448,-1.27398 -0.89569,-2.43836 -1.0122,-3.175 -0.14538,-0.91923 -1.59421,-4.52687 -2.80908,-6.99474 -0.50739,-1.0307 -1.12556,-1.86635 -1.56579,-2.11667 -0.49024,-0.27875 -0.72795,-0.63079 -0.72908,-1.07978 -7.9e-4,-0.3664 -0.31057,-1.12078 -0.68812,-1.67639 -0.37755,-0.55561 -0.79318,-1.38236 -0.92364,-1.83724 -0.20852,-0.72706 -0.13926,-0.92806 0.57299,-1.66292 l 0.81017,-0.83589 -0.26303,-1.95235 c -0.32543,-2.41556 0.0137,-7.68052 0.58245,-9.04166 0.32006,-0.76601 0.34711,-1.15846 0.12396,-1.79858 -0.20983,-0.60192 -0.20082,-1.10114 0.034,-1.88492 0.37332,-1.24606 0.1967,-3.07943 -0.51704,-5.36678 -1.42592,-4.56969 -1.66377,-5.92204 -1.47692,-8.39728 0.0993,-1.31569 0.35365,-2.72683 0.56517,-3.13587 0.21152,-0.40903 0.38458,-1.23161 0.38458,-1.82794 0,-0.96446 -0.0916,-1.12277 -0.82917,-1.43289 l -0.82916,-0.34864 -0.0307,-4.9964 c -0.0288,-4.67927 -0.0768,-5.13914 -0.75648,-7.245361 -0.39915,-1.23692 -0.84243,-2.7252 -0.98506,-3.30729 -0.34123,-1.39268 -4.80791,-5.94269 -5.37325,-5.4735 -0.19331,0.16044 -0.7431,1.33854 -1.22175,2.61802 -0.95619,2.55594 -1.22323,3.18773 -1.59839,3.78152 -0.13791,0.21829 -0.31516,0.70649 -0.3939,1.08489 -0.0787,0.37841 -0.91926,1.7018 -1.86784,2.940871 -0.94858,1.23907 -1.72469,2.42921 -1.72469,2.64477 0,0.21556 -0.17151,0.73764 -0.38114,1.16018 -0.29962,0.60393 -0.32985,1.1644 -0.14131,2.62034 0.13191,1.01864 0.17268,2.23067 0.0906,2.6934 -0.0965,0.54394 0.0584,1.38562 0.43834,2.38125 0.39317,1.03043 0.60893,2.24024 0.65214,3.6566 0.0355,1.16416 0.25072,2.65244 0.47824,3.30729 0.22753,0.65484 0.39887,1.62041 0.38077,2.14572 -0.0228,0.66252 0.22597,1.35852 0.81223,2.27212 0.86376,1.34605 1.06711,2.3981 0.56129,2.90392 -0.20207,0.20207 -0.20144,0.58986 0.002,1.34606 0.15731,0.58422 0.26738,1.46257 0.24459,1.95189 -0.0228,0.48931 0.0481,2.13982 0.15757,3.66779 0.10946,1.52797 0.20959,4.14734 0.22252,5.82083 0.0301,3.88965 -0.5723,13.21934 -0.89234,13.82089 -0.42747,0.80346 -0.26783,1.48971 0.61583,2.64738 0.47315,0.61985 1.03163,1.75629 1.24107,2.52542 0.29694,1.09045 0.57363,1.51759 1.2564,1.93957 0.48158,0.29763 0.8756,0.64784 0.8756,0.77823 0,0.26185 4.0934,3.07654 8.59896,5.91278 2.19727,1.38318 3.32803,1.92022 4.61471,2.19171 0.93736,0.19779 1.76087,0.4162 1.83003,0.48536 0.3139,0.3139 1.36711,0.0786 1.60056,-0.35766 z m -19.8799,-0.88912 c -0.16353,-0.4906 -0.73311,-0.57197 -0.73311,-0.10473 0,0.23041 0.18851,0.41892 0.41892,0.41892 0.23041,0 0.37179,-0.14138 0.31419,-0.31419 z m -9.19978,-11.83612 c 0,-0.24412 0.14188,-0.58574 0.3153,-0.75915 0.18408,-0.18408 0.28527,-0.88097 0.24316,-1.67448 -0.0706,-1.3307 -0.0583,-1.3557 0.58971,-1.19307 0.64301,0.16139 0.66597,0.11905 0.8066,-1.48729 0.57253,-6.53946 0.67225,-8.14144 0.52986,-8.5125 -0.0889,-0.23168 0.0191,-0.80723 0.24007,-1.27899 0.49494,-1.05679 0.24145,-4.36735 -0.4344,-5.67326 -0.24102,-0.46571 -0.44313,-1.12056 -0.44912,-1.45521 -0.0131,-0.73335 -1.06591,-2.92807 -1.46218,-3.04825 -0.3391,-0.10283 -1.22785,6.66985 -0.99308,7.56764 0.15027,0.57461 -0.11275,1.74557 -0.83911,3.7357 -0.6797,1.86235 -0.94076,3.93698 -1.07766,8.56438 -0.12708,4.29532 -0.0964,4.7763 0.33559,5.25675 0.95848,1.06606 2.19526,1.04225 2.19526,-0.0423 z M 44.34547,155.31 c -0.01,-0.26169 -0.092,-0.21662 -0.24194,0.13229 -0.31255,0.72737 -0.31255,1.14511 0,0.66146 0.14107,-0.21828 0.24994,-0.57547 0.24194,-0.79375 z m 96.80905,-3.31429 c -0.0815,-0.0815 -0.22941,0.0654 -0.32877,0.32632 -0.14358,0.37708 -0.11319,0.40747 0.14812,0.14811 0.18082,-0.17948 0.26211,-0.39297 0.18065,-0.47443 z m -96.82175,-2.4404 c -0.0325,-2.12509 -0.0523,-2.20652 -0.24141,-0.99218 -0.2977,1.91131 -0.29256,3.30729 0.0122,3.30729 0.15892,0 0.25046,-0.92453 0.22923,-2.31511 z m 99.15225,0.44124 c 0.0168,-0.35182 0.1649,-1.11592 0.32925,-1.69801 0.38926,-1.37868 0.36463,-3.34342 -0.0647,-5.15937 -0.23892,-1.01065 -0.26538,-1.68503 -0.0866,-2.2075 0.17579,-0.5137 0.15966,-1.07861 -0.0508,-1.78125 -0.25465,-0.84994 -0.23624,-1.16829 0.10583,-1.82979 0.30748,-0.59459 0.34311,-0.93351 0.13838,-1.31606 -0.15165,-0.28337 -0.32544,-1.11335 -0.38619,-1.84439 -0.0607,-0.73104 -0.29746,-1.59616 -0.52603,-1.9225 -0.22858,-0.32634 -0.41559,-0.92403 -0.41559,-1.32822 0,-0.73721 -0.34892,-0.97599 -0.66912,-0.4579 -0.19541,0.31618 -0.93418,7.05708 -1.01353,9.24802 -0.029,0.80037 0.0298,3.00302 0.13073,4.8948 0.11478,2.15225 0.0858,3.55737 -0.0775,3.75431 -0.1435,0.1731 -0.22255,0.64935 -0.17565,1.05833 0.0696,0.60686 0.23123,0.75951 0.87901,0.83011 0.43657,0.0476 0.90835,0.19789 1.04841,0.33404 0.40486,0.39352 0.80103,0.1206 0.83412,-0.57462 z m -9.29086,-2.62405 c 0.0899,-0.14552 0.0374,-0.26458 -0.11668,-0.26458 -0.1541,0 -0.28019,0.11906 -0.28019,0.26458 0,0.14552 0.0525,0.26458 0.11667,0.26458 0.0642,0 0.19026,-0.11906 0.2802,-0.26458 z m -90.17998,-2.18281 c -0.0734,-0.1819 -0.13345,-0.0331 -0.13345,0.33073 0,0.3638 0.06,0.51263 0.13345,0.33073 0.0734,-0.1819 0.0734,-0.47956 0,-0.66146 z m 0.43557,-4.08842 c 0.10351,-2.23025 -0.15012,-3.78294 -0.61793,-3.78294 -0.32598,0 -0.85873,2.85169 -0.67185,3.59628 0.0887,0.35342 0.22719,1.20298 0.30774,1.88791 0.31625,2.689 0.81869,1.81859 0.98204,-1.70125 z m -0.71396,0.78113 c -0.20177,-1.01112 -0.1564,-3.21302 0.0691,-3.35238 0.17967,-0.11104 0.36848,0.87971 0.32373,1.69873 -0.0119,0.21828 -0.0233,0.84336 -0.0253,1.38906 -0.004,1.16982 -0.16393,1.28479 -0.36752,0.26459 z m 124.63807,-24.98659 c -0.0845,-0.21107 -0.14716,-0.14838 -0.15985,0.15985 -0.0115,0.27891 0.051,0.43519 0.13896,0.34727 0.0879,-0.0879 0.0973,-0.31613 0.0209,-0.50712 z m 0.29227,-1.30948 c -0.066,-0.19816 -0.18599,-0.0782 -0.27955,0.27955 -0.11508,0.44009 -0.0806,0.54339 0.11569,0.34705 0.15375,-0.15375 0.22749,-0.43572 0.16386,-0.6266 z m 7.5877,-0.45335 c -0.14909,-0.15693 -0.65238,0.24081 -0.65238,0.51557 0,0.14267 0.16659,0.10587 0.37019,-0.0818 0.20361,-0.18764 0.33059,-0.38285 0.28219,-0.43381 z M 51.92299,104.74704 c 0.30415,-0.58816 0.37718,-1.17023 0.2573,-2.05052 -0.18149,-1.33265 0.37639,-4.255081 0.95724,-5.014511 0.46619,-0.60951 -1.0574,0.68422 -1.93242,1.64088 -0.93221,1.019191 -1.10224,2.564831 -0.45061,4.096271 0.27103,0.63696 0.49278,1.3811 0.49278,1.65364 0,0.70665 0.18892,0.61557 0.67571,-0.32576 z m 113.80668,-0.96464 c -0.0665,-0.25466 -0.121,-0.0463 -0.121,0.46302 0,0.50932 0.0545,0.71768 0.121,0.46302 0.0666,-0.25466 0.0666,-0.67138 0,-0.92604 z m 1.6697,-1.90262 c 0,-0.28245 -0.11906,-0.58713 -0.26459,-0.67707 -0.15006,-0.0927 -0.26458,0.12954 -0.26458,0.51355 0,0.37239 0.11906,0.67707 0.26458,0.67707 0.14553,0 0.26459,-0.23109 0.26459,-0.51355 z M 72.99972,101.6025 c 0.53122,-0.002 0.89268,-0.25987 1.38907,-0.99038 0.8232,-1.211451 0.8691,-2.651371 0.13602,-4.266951 -0.28785,-0.63436 -0.52336,-1.60938 -0.52336,-2.16672 0,-0.80654 -0.22352,-1.27313 -1.09521,-2.28621 -0.60236,-0.70008 -1.16968,-1.30322 -1.2607,-1.34032 -0.091,-0.0371 -0.39632,0.90136 -0.67843,2.08546 -0.28211,1.18411 -0.63753,2.29063 -0.78982,2.45894 -0.55981,0.61871 -0.98772,1.56576 -1.07097,2.37027 -0.047,0.45413 -0.031,0.6906 0.0355,0.52547 0.0902,-0.22391 0.2855,-0.22391 0.76843,0 0.7926,0.36751 0.84133,0.69711 0.10308,0.69711 -0.31515,0 -0.50654,0.14073 -0.4498,0.33073 0.0543,0.1819 0.26931,0.90736 0.47774,1.612141 0.37507,1.26823 0.38855,1.27983 1.30969,1.12739 0.5119,-0.0847 1.25385,-0.15533 1.64879,-0.15693 z m 104.63455,-1.11086 c -0.0845,-0.21106 -0.14715,-0.14837 -0.15985,0.15985 -0.0115,0.27892 0.0511,0.43519 0.13897,0.34727 0.0879,-0.0879 0.0973,-0.31612 0.0209,-0.50712 z m -19.49532,-8.946221 c 0,-0.14552 -0.12609,-0.26459 -0.2802,-0.26459 -0.15411,0 -0.20661,0.11907 -0.11667,0.26459 0.0899,0.14552 0.21602,0.26458 0.2802,0.26458 0.0642,0 0.11667,-0.11906 0.11667,-0.26458 z m -0.70245,-0.93746 c -0.0862,-0.22455 -0.21342,-0.35154 -0.28277,-0.28218 -0.0693,0.0694 -0.0476,0.25308 0.0483,0.40828 0.26089,0.42214 0.41338,0.34013 0.23447,-0.1261 z m -60.81318,-3.03129 c 0.0899,-0.14552 -0.0221,-0.26459 -0.24896,-0.26459 -0.22687,0 -0.41249,0.11907 -0.41249,0.26459 0,0.14552 0.11203,0.26458 0.24896,0.26458 0.13694,0 0.32256,-0.11906 0.41249,-0.26458 z m 49.77419,-1.04839 c 0.8929,-0.14769 1.42633,-0.52061 2.93955,-2.05498 l 1.84869,-1.87455 -0.49736,-0.75219 c -0.27354,-0.4137 -0.96575,-1.10937 -1.53823,-1.54593 -0.57248,-0.43657 -1.04639,-0.9783 -1.05312,-1.20386 -0.0166,-0.55494 -0.54351,-1.0451 -1.12351,-1.0451 -0.26193,0 -0.47624,-0.15214 -0.47624,-0.33808 0,-0.45718 -0.87464,-1.17836 -1.26949,-1.04675 -0.17491,0.0583 -0.31801,0.21141 -0.31801,0.34024 0,0.12882 0.20835,0.1565 0.46302,0.0615 0.26363,-0.0983 0.0255,0.31566 -0.55295,0.96143 -0.79174,0.88384 -0.97218,1.25956 -0.81759,1.70238 0.29844,0.8549 0.18514,5.62903 -0.14838,6.25223 -0.40642,0.75939 -0.0886,1.14505 0.75403,0.91492 0.38431,-0.10496 1.18962,-0.27203 1.78959,-0.37126 z M 29.02228,80.300629 c 0,-0.36381 -0.10255,-0.66146 -0.22789,-0.66146 -0.12534,0 -0.17099,0.29765 -0.10145,0.66146 0.0696,0.3638 0.1721,0.66145 0.2279,0.66145 0.0558,0 0.10144,-0.29765 0.10144,-0.66145 z m 1.2831,-0.39639 c 0.15228,-0.43683 0.19314,-0.79424 0.0908,-0.79424 -0.10235,0 -0.31498,0.41182 -0.47252,0.91515 -0.34669,1.10765 -0.009,1.00078 0.38172,-0.12091 z m 113.81066,-2.24945 c 0,-0.3638 -0.0457,-0.66146 -0.10145,-0.66146 -0.0558,0 -0.15835,0.29766 -0.2279,0.66146 -0.0695,0.3638 -0.0239,0.66146 0.10145,0.66146 0.12534,0 0.2279,-0.29766 0.2279,-0.66146 z m -12.37066,-1.5875 c -0.0696,-0.3638 -0.21512,-0.66146 -0.3235,-0.66146 -0.10838,0 -0.14015,0.29766 -0.0706,0.66146 0.0695,0.3638 0.21512,0.66146 0.32349,0.66146 0.10838,0 0.14015,-0.29766 0.0706,-0.66146 z M 48.51761,72.71039 c -0.0845,-0.211066 -0.14716,-0.148373 -0.15985,0.159854 -0.0115,0.278913 0.051,0.435184 0.13896,0.347265 0.0879,-0.08792 0.0973,-0.316124 0.0209,-0.507119 z m 83.32044,-4.222223 c 0.50133,-0.564624 0.50084,-0.565992 -0.0913,-0.255275 -0.32742,0.171817 -0.59531,0.427265 -0.59531,0.567666 0,0.375877 0.12665,0.318254 0.6866,-0.312391 z M 97.28478,64.02875 c 0,-1.4629 -0.3972,-1.703523 -1.51714,-0.919081 l -0.57656,0.403836 0.9807,0.911921 c 0.53939,0.501558 1.01048,0.915144 1.04686,0.919081 0.0364,0.0039 0.0661,-0.588153 0.0661,-1.315757 z m -1.01219,0.08616 -0.61532,-0.575294 0.57183,-0.306038 c 0.71229,-0.381204 0.851,-0.24996 0.74361,0.703588 l -0.0848,0.753041 z m -27.4715,-1.55278 c -0.0862,-0.224557 -0.21343,-0.351541 -0.28278,-0.282186 -0.0694,0.06935 -0.0476,0.253084 0.0483,0.408286 0.26089,0.422132 0.41338,0.340125 0.23448,-0.1261 z m 25.83786,-0.625277 c 0,-0.131897 0.20836,-0.208518 0.46302,-0.170264 0.25466,0.03825 0.31419,0.01836 0.13229,-0.04417 -0.40143,-0.13803 -0.4074,-0.231023 -0.0568,-0.88606 0.476,-0.88941 0.0674,-0.553143 -0.50342,0.414269 -0.3005,0.509323 -0.43133,0.926041 -0.29071,0.926041 0.14061,0 0.25566,-0.107915 0.25566,-0.239813 z m 2.55648,-0.884666 c -0.0734,-0.181901 -0.13346,-0.03307 -0.13346,0.330729 0,0.363802 0.0601,0.512631 0.13346,0.33073 0.0734,-0.181902 0.0734,-0.479558 0,-0.661459 z m 0,-1.322916 c -0.0734,-0.181902 -0.13346,-0.03307 -0.13346,0.330729 0,0.363802 0.0601,0.51263 0.13346,0.330729 0.0734,-0.181901 0.0734,-0.479557 0,-0.661458 z M 24.44052,56.83539 c -0.0845,-0.211066 -0.14715,-0.148373 -0.15985,0.159854 -0.0115,0.278913 0.0511,0.435184 0.13897,0.347265 0.0879,-0.08792 0.0973,-0.316124 0.0209,-0.507119 z m -0.79375,-6.085416 c -0.0845,-0.211066 -0.14715,-0.148373 -0.15985,0.159853 -0.0115,0.278913 0.0511,0.435184 0.13897,0.347266 0.0879,-0.08792 0.0973,-0.316125 0.0209,-0.507119 z M 23.38219,48.89789 c -0.0845,-0.211066 -0.14716,-0.148373 -0.15985,0.159854 -0.0115,0.278913 0.051,0.435184 0.13896,0.347265 0.0879,-0.08792 0.0973,-0.316124 0.0209,-0.507119 z m 147.02965,123.94578 c -1.59965,-0.079 -1.97579,-0.19241 -2.5048,-0.75551 -0.5594,-0.59545 -0.62752,-0.93131 -0.67214,-3.31386 -0.0352,-1.88046 -0.16154,-2.7808 -0.43447,-3.09684 -0.21165,-0.24507 -0.52932,-1.03874 -0.70595,-1.7637 -0.30289,-1.24327 -0.28744,-1.34539 0.27209,-1.79847 0.80474,-0.65164 1.66987,-0.49575 1.78527,0.32169 0.0501,0.35457 0.43892,0.96967 0.86413,1.36687 0.42521,0.39721 0.95694,1.11913 1.18162,1.60428 0.44628,0.96363 0.68628,1.37822 1.77125,3.05963 0.3972,0.61558 0.72219,1.27637 0.72219,1.46844 0,0.19207 0.12719,0.4764 0.28264,0.63185 0.15545,0.15545 0.24474,0.74382 0.19844,1.30749 -0.0941,1.14493 0.0189,1.10529 -2.76027,0.96813 z"
       style="fill:#000000;stroke-width:0.264583" />
  </g>
</svg>
