<?xml version="1.0" encoding="UTF-8" standalone="no"?>
<svg
   xmlns:dc="http://purl.org/dc/elements/1.1/"
   xmlns:cc="http://creativecommons.org/ns#"
   xmlns:rdf="http://www.w3.org/1999/02/22-rdf-syntax-ns#"
   xmlns:svg="http://www.w3.org/2000/svg"
   xmlns="http://www.w3.org/2000/svg"
   xmlns:sodipodi="http://sodipodi.sourceforge.net/DTD/sodipodi-0.dtd"
   xmlns:inkscape="http://www.inkscape.org/namespaces/inkscape"
   sodipodi:docname="snow.svg"
   inkscape:version="1.0 (4035a4f, 2020-05-01)"
   id="svg8"
   version="1.1"
   viewBox="0 0 198.9895 202.96246"
   height="202.96246mm"
   width="198.9895mm">
  <defs
     id="defs2" />
  <sodipodi:namedview
     inkscape:window-maximized="0"
     inkscape:window-y="23"
     inkscape:window-x="0"
     inkscape:window-height="811"
     inkscape:window-width="1252"
     showgrid="false"
     inkscape:document-rotation="0"
     inkscape:current-layer="layer1"
     inkscape:document-units="mm"
     inkscape:cy="499.6204"
     inkscape:cx="811.56859"
     inkscape:zoom="0.35"
     inkscape:pageshadow="2"
     inkscape:pageopacity="0.0"
     borderopacity="1.0"
     bordercolor="#666666"
     pagecolor="#ffffff"
     id="base" />
  <metadata
     id="metadata5">
    <rdf:RDF>
      <cc:Work
         rdf:about="">
        <dc:format>image/svg+xml</dc:format>
        <dc:type
           rdf:resource="http://purl.org/dc/dcmitype/StillImage" />
        <dc:title></dc:title>
      </cc:Work>
    </rdf:RDF>
  </metadata>
  <g
     transform="translate(108.89419,-15.975436)"
     id="layer1"
     inkscape:groupmode="layer"
     inkscape:label="Layer 1">
    <path
       id="path38"
       d="m -53.967542,218.03136 c -0.83917,-0.83917 -1.52577,-2.90067 -1.52577,-4.58111 0,-2.9534 -0.10927,-2.98376 -3.27467,-0.90971 -2.96215,1.94089 -3.35044,1.94823 -4.06849,0.0769 -0.4366,-1.13775 0.50972,-3.89928 2.10293,-6.13674 1.5932,-2.23745 2.53013,-4.4347 2.08205,-4.88277 -0.44808,-0.44808 -1.60656,0.26827 -2.57441,1.59189 -1.83693,2.5122 -4.78924,1.78257 -4.78924,-1.18356 0,-0.94482 1.10149,-3.12934 2.44775,-4.85449 1.63998,-2.10152 2.1206,-4.0047 1.4564,-5.76709 -0.90856,-2.41078 -1.06981,-2.43824 -1.93085,-0.32881 -1.95731,4.79514 -6.88696,1.0936 -5.02067,-3.76988 0.70487,-1.83686 0.41035,-1.90888 -2.1666,-0.52973 -2.6712,1.42957 -2.8952,2.25317 -2.14692,7.89393 0.6429,4.84644 0.39709,6.46602 -1.0666,7.02771 -1.92263,0.73777 -3.7027,-0.76603 -5.17832,-4.37469 -0.4437,-1.08507 -0.67113,0.9341 -0.50541,4.48702 0.34243,7.34138 -2.03077,9.57199 -4.47544,4.20652 -1.66041,-3.64422 -3.77223,-3.39942 -3.77223,0.43729 0,2.80544 -4.39383,4.36246 -6.46524,2.29105 -2.30492,-2.30493 -1.64483,-5.85863 1.49697,-8.05924 2.84849,-1.99516 2.79872,-2.19861 -0.62146,-2.54062 -0.90422,-0.0904 -1.64403,-1.34811 -1.64403,-2.79487 0,-2.15157 0.87682,-2.63045 4.81621,-2.63045 2.64892,0 5.31226,-0.5382 5.91853,-1.19598 0.64595,-0.70083 0.15772,-0.85724 -1.17927,-0.37779 -1.49889,0.53752 -2.75912,-0.074 -3.6736,-1.78279 -1.72291,-3.21929 0.69885,-4.46464 6.9095,-3.5531 2.46126,0.36122 4.91306,-0.0851 5.90239,-1.07439 2.55896,-2.55896 2.04751,-3.33467 -1.59579,-2.42026 -2.70283,0.67837 -3.28807,0.34746 -3.28807,-1.85915 0,-1.53575 1.13375,-3.04426 2.64956,-3.52535 1.45725,-0.46252 2.3101,-1.39018 1.89522,-2.06148 -1.2613,-2.04083 -6.32496,-1.31274 -9.8057,1.40992 -5.59611,4.37735 -8.2667,2.98592 -5.21464,-2.71692 1.77808,-3.32236 0.74813,-3.21731 -3.34441,0.34109 -1.82498,1.5868 -4.19689,3.01408 -5.270918,3.17171 -2.19418,0.32203 -2.71793,-4.11344 -0.63754,-5.39918 2.555858,-1.57961 1.27265,-3.3275 -1.86478,-2.54006 -4.4081,1.10637 -7.35149,-3.93247 -4.16089,-7.12308 1.74316,-1.74315 2.58564,-1.83326 4.71385,-0.50417 3.602948,2.25008 4.168298,2.04993 3.696138,-1.30852 -0.72986,-5.19149 3.73003,-4.39774 6.74569,1.20055 2.67231,4.96092 2.69763,4.97281 2.37527,1.11542 -0.51309,-6.13963 3.61476,-6.01613 6.53312,0.19547 1.64791,3.50751 3.34535,5.15809 5.63724,5.4816 3.12874,0.44164 3.17686,0.34968 1.04782,-2.00288 -3.16031,-3.49211 -0.9814,-7.07469 2.85621,-4.69621 2.14607,1.33009 2.66664,1.33009 2.65045,0 -0.0337,-2.77316 -1.76413,-4.48702 -5.89839,-5.84206 -4.87449,-1.59767 -5.68061,-6.51863 -0.98642,-6.02165 4.31911,0.45727 3.62106,-0.82862 -1.64404,-3.02852 -5.39569,-2.25446 -6.20265,-5.83377 -1.31522,-5.83377 3.72357,0 3.89796,-0.37434 1.76527,-3.7893 -1.97048,-3.15525 -0.57002,-6.73253 2.63571,-6.73253 3.26116,0 5.73157,3.03127 4.6876,5.75182 -0.94438,2.46101 0.85963,2.8447 3.05464,0.64969 0.81943,-0.81943 2.47404,-1.11221 3.67691,-0.65063 1.98554,0.76192 1.9331,1.26963 -0.56921,5.51074 -3.05453,5.17703 -3.77758,9.05111 -0.9736,5.21642 1.13761,-1.55577 2.60418,-2.12267 4.05302,-1.5667 2.09596,0.80429 2.05197,1.22459 -0.57265,5.47132 -2.13304,3.45131 -2.61392,5.64314 -1.92564,8.77687 l 0.91738,4.17679 1.80304,-4.28817 c 1.96746,-4.67922 5.18603,-4.87732 5.01722,-0.30881 -0.11514,3.11597 0.81492,3.56242 2.95762,1.41972 0.79569,-0.79569 1.12121,-3.93693 0.74961,-7.23376 -0.54321,-4.81928 -0.27863,-5.82732 1.52945,-5.82732 1.20245,0 2.72154,1.33167 3.37575,2.95926 0.96641,2.40431 1.20511,1.78769 1.27285,-3.28807 0.0627,-4.6985 0.58298,-6.24734 2.09859,-6.24734 1.10838,0 2.55779,1.33167 3.22092,2.95927 l 1.20569,2.95926 0.86678,-2.9157 c 1.05236,-3.53999 5.26753,-5.11831 7.87964,-2.95044 2.85151,2.36653 2.31334,5.08103 -1.3371,6.74428 -1.78576,0.81364 -2.92857,1.99431 -2.53958,2.62371 0.38899,0.6294 1.19115,0.8453 1.78258,0.47977 1.58716,-0.98091 4.38051,2.89386 3.32149,4.60738 -0.5488,0.88798 -2.91854,1.18935 -5.98231,0.76082 -2.79045,-0.39031 -5.40048,-0.18062 -5.80009,0.46596 -0.39961,0.64658 0.61388,1.36588 2.2522,1.59845 5.60812,0.79607 3.45443,4.33468 -2.91395,4.78775 -5.81149,0.41345 -9.23241,2.04192 -9.23241,4.39489 0,0.66219 1.60656,1.03361 3.57013,0.82538 2.53609,-0.26893 3.70684,0.28807 4.04213,1.92307 0.28433,1.38655 -0.31986,2.30165 -1.51967,2.30165 -3.13484,0 -3.71848,2.25663 -0.78223,3.02447 1.65736,0.43341 4.06356,-0.49609 6.42241,-2.48093 2.07465,-1.7457 4.39154,-3.174 5.14865,-3.174 2.65902,0 3.0811,2.8223 0.79918,5.34379 -3.00287,3.31814 -1.25832,3.27001 3.00419,-0.0829 1.83924,-1.44675 4.10272,-2.63046 5.02995,-2.63046 2.65746,0 3.07819,3.05757 0.78275,5.68834 -1.96924,2.25693 -1.89425,2.35006 1.25564,1.55949 4.09142,-1.02689 7.04264,1.94269 5.80525,5.84134 -0.87842,2.76764 -7.25379,3.97907 -7.25379,1.37834 0,-0.72338 -0.55532,-1.31523 -1.23403,-1.31523 -0.67872,0 -1.12261,1.62759 -0.98642,3.61688 0.37043,5.41103 -3.09243,4.54494 -6.57325,-1.64404 -2.8988,-5.15411 -2.95305,-5.18186 -2.67231,-1.36677 0.4081,5.54575 -3.42551,6.03604 -5.62759,0.71974 -1.72885,-4.1738 -6.13029,-7.52985 -7.6796,-5.85562 -0.48058,0.51933 -0.13396,1.20846 0.77026,1.5314 0.90422,0.32293 1.64404,1.72154 1.64404,3.10801 0,2.86103 -3.82375,3.43194 -6.3131,0.94258 -1.22755,-1.22754 -1.5738,-1.15448 -1.55814,0.32881 0.0305,2.88294 1.47541,4.31689 6.85682,6.80456 3.56703,1.64893 4.68177,2.84647 4.08858,4.39228 -0.53666,1.39854 -1.8763,1.92247 -3.91769,1.53225 -4.9112,-0.93884 -3.61062,1.07392 2.15817,3.33997 3.97949,1.56319 5.05694,2.59631 4.42504,4.24303 -0.59163,1.54175 -1.75811,1.94511 -3.9988,1.38273 -3.11165,-0.78097 -3.13086,-0.73084 -1.17161,3.05793 1.55312,3.00341 1.63738,4.12569 0.38251,5.09467 -3.30632,2.55307 -4.51635,2.82256 -6.00216,1.33676 z m 75.178916,-20.99078 c -1.01831,-2.27396 -0.86797,-3.77061 0.60529,-6.02572 2.4043,-3.68026 1.44254,-4.94359 -2.25645,-2.96396 -3.23748,1.73264 -5.35309,0.80643 -5.3301,-2.33353 0.0156,-2.14092 7.7454,-8.14256 10.48711,-8.14256 0.73352,0 1.33367,-0.59185 1.33367,-1.31523 0,-1.68305 -0.84954,-1.657 -4.1856,0.12837 -2.09168,1.11944 -3.14093,1.00011 -4.67245,-0.5314 -2.52598,-2.52598 -1.39184,-4.2722 4.83938,-7.45113 4.99224,-2.54685 6.68505,-4.85784 6.60913,-9.0226 -0.0362,-1.98165 -0.16979,-1.97123 -1.38058,0.10758 -1.75559,3.01416 -7.78602,3.09438 -7.78602,0.10351 0,-1.20895 0.98279,-3.28406 2.18399,-4.61136 2.92311,-3.23001 1.76246,-4.0343 -3.28341,-2.27531 -3.38725,1.1808 -4.48662,2.5814 -5.94079,7.5685 -1.48204,5.08267 -2.31816,6.11956 -4.9346599,6.11956 -2.78566,0 -3.10756,-0.52475 -2.78128,-4.53388 0.44948,-5.52286 -0.95209,-4.38657 -3.67224,2.97718 -1.44499,3.91178 -2.78214,5.50239 -4.62557,5.50239 -2.1171,0 -2.53174,-0.78452 -2.2592,-4.2745 0.33961,-4.34867 -1.76885,-5.89112 -3.146256,-2.30165 -0.98816,2.57509 -7.5669801,2.54872 -9.7145501,-0.0389 -2.50512,-3.01849 0.43377,-8.77071 4.32068,-8.45676 6.0651561,0.48985 6.9290861,0.0239 3.89566,-2.1007 -2.93571,-2.05625 -3.92586,-6.3842 -1.76597,-7.71909 0.63642,-0.39332 3.9229261,0.75545 7.3033461,2.55285 6.82718,3.63009 7.32227,3.77249 7.32227,2.10619 0,-0.639 -1.18371,-1.47137 -2.63046,-1.84971 -3.06507,-0.80153 -3.44615,-3.88078 -0.75654,-6.11296 1.48408,-1.23168 2.99101,-0.85004 7.24347,1.83443 3.75964,2.37335 6.3524499,3.14293 8.6479099,2.56681 3.89517,-0.97762 4.37514,-3.16811 0.69418,-3.16811 -1.4213,0 -3.19642,-1.14396 -3.94469,-2.54214 -1.1116,-2.07705 -0.86208,-2.70034 1.36387,-3.40684 1.49842,-0.47557 4.30928,-0.46714 6.24635,0.0187 l 3.52196,0.88342 -3.28242,-3.49506 c -2.96066,-3.15245 -4.05314,-3.45303 -11.1446499,-3.06631 -6.53462,0.35635 -7.93718,0.0543 -8.30609,-1.78885 -0.27241,-1.36105 0.98417,-2.98168 3.25328,-4.19581 3.62858,-1.94154 3.55339,-1.97358 -4.05511,-1.72809 -9.061856,0.29238 -11.0120161,-1.82656 -4.90619,-5.33082 l 4.00017,-2.29578 -4.20267,-1.9844 c -2.31146,-1.09137 -4.4072261,-3.04662 -4.6572561,-4.34495 -1.18583,-6.15752 7.8984161,-8.65381 10.5237361,-2.89185 1.97916,4.34378 3.20513,4.15029 4.16671,-0.65761 0.80091,-4.00457 3.14943,-5.07075 5.65357,-2.56661 0.7768699,0.77687 1.1058199,4.2228 0.7533199,7.89137 -0.6583199,6.85131 1.80736,9.61755 2.58083,2.89542 0.29932,-2.60134 1.15475,-3.61688 3.04662,-3.61688 2.26439,0 2.68468,1.00668 3.02006,7.23376 0.30182,5.60399 1.04262,7.74573 3.28807,9.50616 3.88928,3.0492 5.27491,2.91209 3.5295,-0.34924 -1.87499,-3.50345 -0.39113,-8.11198 2.44062,-7.58 1.2041,0.22621 2.77351,1.7395 3.48758,3.36287 1.81614,4.12886 3.30499,3.67564 3.30499,-1.00608 0,-2.60306 -1.35049,-5.37081 -3.94568,-8.08644 -2.17013,-2.27083 -3.94569,-4.94735 -3.94569,-5.94783 0,-2.91359 3.69049,-3.52147 7.24391,-1.19318 4.50299,2.95047 4.12054,0.75608 -0.66776,-3.83139 -4.41059,-4.225612 -5.08129,-7.831792 -1.6981,-9.130052 1.47866,-0.56741 3.09002,0.17189 4.70989,2.16094 l 2.46228,3.02342 -0.66324,-4.81962 c -0.96476,-7.01056 5.04954,-11.75611 9.39364,-7.41201 1.91443,1.91444 2.08105,7.16236 0.26305,8.28594 -0.72338,0.44707 -1.31523,1.67072 -1.31523,2.71923 0,1.53205 0.48228,1.60518 2.45623,0.37242 3.11496,-1.94532 7.07795,-0.49726 6.51877,2.381922 -0.23431,1.2064 -2.4975,3.33405 -5.02932,4.72812 -6.90912,3.80429 -7.98945,5.35975 -2.99135,4.30694 8.46927,-1.78399 8.65061,3.68313 0.25703,7.74859 -3.52885,1.70921 -5.45933,3.6274 -5.95646,5.91853 -0.40454,1.86436 -0.96345,4.12956 -1.24201,5.03378 -0.82952,2.69259 1.09978,1.87711 4.25993,-1.80058 4.79524,-5.58056 9.19702,-1.82509 5.64344,4.81481 -1.1954,2.23364 -1.01319,2.38988 1.64184,1.40773 1.9904,-0.7363 3.64521,-3.13156 4.96152,-7.18159 2.81422,-8.65878 7.89358,-10.00678 7.89358,-2.09485 0,5.69072 1.80746,4.71047 3.80809,-2.06527 1.96365,-6.65045 2.86895,-7.60239 6.064,-6.37633 1.64061,0.62956 2.02249,1.82909 1.46679,4.60756 -0.82025,4.10129 0.55462,4.88508 3.12864,1.78357 2.60792,-3.14234 7.73089,-2.44885 9.42817,1.27628 2.03587,4.46824 -0.49412,7.26019 -6.62994,7.31647 l -4.77107,0.0437 2.95926,2.46872 c 3.34249,2.7884 3.87761,6.38053 1.10881,7.44302 -1.01777,0.39055 -4.32887,-0.85446 -7.35802,-2.76667 -5.6766,-3.58349 -9.32892,-3.49115 -4.19327,0.106 3.54483,2.48291 3.71475,5.37149 0.37825,6.43045 -1.54377,0.48997 -4.33458,-0.44982 -7.28841,-2.45437 -4.0647,-2.75837 -5.37401,-3.04362 -8.6802,-1.89108 -4.76194,1.66001 -6.2924,3.72871 -2.75857,3.72871 4.30189,0 6.76133,1.45755 6.76133,4.007 0,1.83234 -1.17438,2.50825 -4.89726,2.81855 l -4.89725,0.40821 3.55509,2.31433 c 2.8854,1.87836 4.58173,2.08365 9.00488,1.08984 2.99738,-0.67347 6.2647,-0.91177 7.2607,-0.52958 2.89161,1.10962 2.09855,4.28449 -1.47717,5.9137 -4.66945,2.12754 -4.07385,3.80053 0.98642,2.77074 7.53296,-1.53297 9.51151,-1.20415 9.91985,1.6486 0.2738,1.91281 -0.67253,3.08671 -3.28807,4.07877 l -3.67252,1.39294 3.91893,1.59326 c 6.03506,2.45357 7.58572,6.1765 4.04669,9.71553 -2.74751,2.74751 -8.02868,1.25928 -10.01019,-2.82088 l -1.69642,-3.49313 -0.76843,3.94569 c -0.54332,2.78989 -1.63278,4.06879 -3.71921,4.36597 -2.4221,0.34498 -2.98815,-0.24416 -3.1592,-3.28808 -0.11455,-2.03959 -0.0994,-4.86942 0.0338,-6.28851 0.13322,-1.41908 -0.1619,-3.49057 -0.65584,-4.60331 -0.64437,-1.45159 -1.12076,-0.90846 -1.68633,1.92255 -0.55579,2.782 -1.65854,4.06964 -3.73908,4.36597 -2.74599,0.39111 -2.95077,-0.0739 -2.95077,-6.7011 0,-5.22876 -0.63922,-7.69989 -2.40521,-9.29808 -3.38223,-3.06088 -3.92789,-2.75911 -3.70725,2.05017 0.27345,5.96005 -3.922,6.77035 -5.88587,1.13677 -1.93602,-5.55365 -3.78442,-5.08162 -3.78442,0.96645 0,3.85518 0.91243,5.889 3.94569,8.79505 4.32912,4.14756 4.85588,6.15629 2.19375,8.36566 -1.29984,1.07877 -2.40292,0.96142 -4.27449,-0.45474 -4.51828,-3.41882 -4.8596,-2.09684 -0.68596,2.65668 4.64989,5.29593 5.39264,9.81845 1.61251,9.81845 -1.35817,0 -3.2062,-0.88778 -4.10672,-1.97284 -2.66693,-3.21346 -3.52185,-2.30444 -3.40159,3.61688 0.10771,5.30742 -0.0908,5.60967 -3.93049,5.98467 -3.16247,0.30886 -4.33932,-0.26454 -5.39882,-2.63046 z M -15.281222,87.261698 c -0.46279,-1.20603 -0.23019,-2.80403 0.5169,-3.55112 2.10921,-2.10921 1.61197,-3.462712 -1.27211,-3.462712 -4.10169,0 -3.09179,-3.174791 1.64404,-5.168343 3.91164,-1.646609 4.02329,-1.846322 1.31523,-2.352667 -4.27407,-0.799152 -3.64141,-2.680505 1.64403,-4.888902 2.6608601,-1.111778 4.6033061,-2.852132 4.6033061,-4.124381 0,-1.799541 -0.35701,-1.904711 -1.957286,-0.5766 -1.5937001,1.322655 -2.1220201,1.195083 -2.8441501,-0.686763 -0.57823,-1.506841 -0.0114,-2.958039 1.62847,-4.169916 2.3583961,-1.742773 2.2861261,-1.828864 -1.15826,-1.379717 -2.4395,0.31811 -4.54503,1.911974 -6.2676,4.744505 -2.67751,4.402821 -5.91193,4.430756 -4.76402,0.04114 0.90279,-3.452284 -0.83341,-3.113961 -2.40968,0.469559 -1.74515,3.967467 -6.56682,4.99518 -5.57107,1.187446 0.61523,-2.352643 0.23848,-2.608793 -2.91071,-1.978955 -2.71183,0.542365 -3.84734,0.124289 -4.53588,-1.67002 -1.09287,-2.847938 2.41796,-5.957141 5.42406,-4.803591 1.65708,0.63588 1.74687,0.297447 0.52622,-1.983359 -2.20929,-4.128096 0.48963,-4.885514 5.27266,-1.479702 4.00978,2.855217 4.06052,2.8585 2.62148,0.169633 -0.80709,-1.508061 -1.46744,-3.076769 -1.46744,-3.486013 0,-1.718614 4.26498,-0.549083 6.87914,1.886379 3.00917,2.803472 6.27315,3.487798 6.27315,1.315229 0,-0.723376 -0.59185,-1.315229 -1.31523,-1.315229 -0.72338,0 -1.31523,-0.88778 -1.31523,-1.972844 0,-1.252111 1.26005,-1.972843 3.44912,-1.972843 2.9167461,0 3.1963961,-0.304502 1.8118001,-1.972844 -0.9402601,-1.132944 -3.8084901,-1.972843 -6.7371901,-1.972843 -3.70286,0 -5.09987,-0.551732 -5.09987,-2.014122 0,-1.107766 1.03574,-2.431243 2.30165,-2.941057 1.7295,-0.696516 1.18334,-1.094932 -2.19711,-1.602758 -5.329,-0.800547 -6.71998,-3.300843 -2.45998,-4.421837 l 3.01305,-0.792863 -2.96389,-2.082876 c -2.33454,-1.640596 -2.68729,-2.599711 -1.66125,-4.516883 1.49004,-2.78416 6.59798,-2.187895 6.59798,0.770201 0,2.430821 2.15527,2.324381 3.10608,-0.153396 1.6038,-4.179428 3.74424,-1.950582 3.23679,3.370483 -0.40548,4.251882 -0.20259,4.923514 0.99327,3.288073 2.7334501,-3.73821 4.9093461,-2.451172 4.1164461,2.434868 -0.4588,2.827256 -0.0509,5.38443 1.10132,6.904953 1.73713,2.292339 1.83208,2.264723 1.87179,-0.544437 0.0486,-3.437313 3.28647,-3.978387 5.04143,-0.842459 1.08158,1.932684 1.25758,1.926691 2.02336,-0.06892 0.46131,-1.202146 -0.10744,-3.629772 -1.26388,-5.394725 -1.15644,-1.764953 -1.72928,-4.181916 -1.27297,-5.371031 0.75209,-1.95993 1.09092,-1.930144 3.62483,0.318654 2.89799,2.571909 2.88665,2.280068 -0.14661,-3.772217 -2.14314,-4.276215 -0.96051,-6.113579 2.5314,-3.932846 2.13558,1.333689 2.54302,1.14187 2.89946,-1.365017 0.51752,-3.639843 5.6134299,-4.716783 6.8665599,-1.451142 0.47749,1.244273 0.25688,2.873568 -0.49021,3.620657 -2.06362,2.063629 -1.62578,3.623878 0.89563,3.191561 1.25868,-0.21581 2.45255,0.576644 2.70368,1.794605 0.31387,1.522286 -0.75964,2.446684 -3.55412,3.060455 -4.88148,1.072151 -6.6351799,3.188523 -1.89056,2.281532 5.2658,-1.006622 3.58507,3.855228 -1.81663,5.254949 -2.3498699,0.608915 -4.2724899,1.63364 -4.2724899,2.27717 0,0.643531 -0.39628,2.254204 -0.88063,3.579276 -0.8333,2.279734 -0.74332,2.289092 1.67408,0.174106 3.3366999,-2.919281 7.2295699,-1.093006 4.5506599,2.134873 -1.4744,1.776547 -1.3212,2.073084 1.071,2.073084 1.54248,0 2.7915,-0.840688 2.7915,-1.878898 0,-2.185842 3.50568,-6.012476 5.50819,-6.012476 0.75705,0 1.09222,1.477217 0.74605,3.288072 -0.8318,4.3513 -0.19025,4.147842 2.33812,-0.741498 2.24365,-4.338741 5.39005,-4.552577 4.94609,-0.336149 -0.22397,2.127209 0.38133,2.482271 3.46113,2.030252 2.05292,-0.301304 4.10052,0.04751 4.55021,0.775132 1.45042,2.346818 -0.70269,5.506023 -3.75253,5.506023 -2.45343,0 -2.85652,0.567283 -2.33642,3.288072 0.61829,3.234386 -1.36648,4.561182 -2.9618,1.979916 -0.44467,-0.719486 -2.00403,-1.947991 -3.46525,-2.730012 -2.39863,-1.283712 -2.51895,-1.164368 -1.23842,1.228337 2.09752,3.919242 -0.57903,4.819561 -4.69736,1.580073 -1.89902,-1.493761 -4.91813,-2.715928 -6.70916,-2.715928 H 9.9767341 l 2.9854399,2.417454 c 3.52914,2.857725 2.49901,5.549071 -1.70892,4.464751 -2.6348199,-0.678954 -2.7607599,-0.521785 -1.15287,1.438703 1.02762,1.252972 3.68495,2.200924 6.16972,2.200924 2.40054,0 4.77132,0.658025 5.26837,1.462275 1.05692,1.710133 -2.01348,3.98493 -3.84817,2.851029 -0.68884,-0.425725 -0.82886,-0.08869 -0.31116,0.748982 0.5293,0.856411 2.57243,1.235661 4.66797,0.866478 4.64755,-0.81878 6.7676,2.826732 2.55102,4.386549 -2.45069,0.90657 -2.51451,1.181746 -0.6357,2.741015 1.14865,0.953301 2.08846,2.844513 2.08846,4.202693 0,3.7335 -6.00994,3.32284 -7.16888,-0.489852 -0.68187,-2.243225 -1.08494,-2.481905 -1.66584,-0.986422 -2.24581,5.781794 -5.91591,3.277974 -4.72887,-3.226131 0.70003,-3.835633 0.64369,-3.894737 -1.31294,-1.37717 -2.7337299,3.517462 -5.4282799,1.119466 -3.8234999,-3.402709 1.28429,-3.619087 0.68292,-7.776737 -1.12484,-7.776737 -0.67034,0 -1.21879,1.183706 -1.21879,2.630458 0,3.526001 -3.53566,3.363842 -4.6713,-0.214243 -0.84807,-2.672021 -0.9844,-2.699018 -2.24594,-0.444773 -0.99593,1.779617 -0.73084,3.536763 1.02558,6.798248 2.67848,4.973634 1.76409,7.038362 -2.05953,4.650474 -3.02765,-1.890797 -3.26434,-0.638008 -0.55597,2.94277 1.06206,1.404167 1.93101,3.327687 1.93101,4.274497 0,2.50995 -3.59111,2.10582 -5.15557,-0.58019 -1.15544,-1.98378 -1.34611,-1.82157 -1.38058,1.17452 -0.0554,4.81961 -5.5809061,7.03718 -7.1761561,2.88005 z"
       style="fill:#000000;stroke-width:1.31523" />
  </g>
</svg>
