<?xml version="1.0" encoding="UTF-8" standalone="no"?>
<svg
   xmlns:dc="http://purl.org/dc/elements/1.1/"
   xmlns:cc="http://creativecommons.org/ns#"
   xmlns:rdf="http://www.w3.org/1999/02/22-rdf-syntax-ns#"
   xmlns:svg="http://www.w3.org/2000/svg"
   xmlns="http://www.w3.org/2000/svg"
   xmlns:sodipodi="http://sodipodi.sourceforge.net/DTD/sodipodi-0.dtd"
   xmlns:inkscape="http://www.inkscape.org/namespaces/inkscape"
   width="142.45009mm"
   height="205.83347mm"
   viewBox="0 0 142.45009 205.83348"
   version="1.1"
   id="svg8"
   inkscape:version="1.0 (4035a4f, 2020-05-01)"
   sodipodi:docname="ticklist.svg">
  <defs
     id="defs2" />
  <sodipodi:namedview
     id="base"
     pagecolor="#ffffff"
     bordercolor="#666666"
     borderopacity="1.0"
     inkscape:pageopacity="0.0"
     inkscape:pageshadow="2"
     inkscape:zoom="0.35"
     inkscape:cx="551.12595"
     inkscape:cy="463.95195"
     inkscape:document-units="mm"
     inkscape:current-layer="layer1"
     inkscape:document-rotation="0"
     showgrid="false"
     fit-margin-top="0"
     fit-margin-left="0"
     fit-margin-right="0"
     fit-margin-bottom="0"
     inkscape:snap-midpoints="true"
     inkscape:window-width="1252"
     inkscape:window-height="801"
     inkscape:window-x="0"
     inkscape:window-y="23"
     inkscape:window-maximized="0" />
  <metadata
     id="metadata5">
    <rdf:RDF>
      <cc:Work
         rdf:about="">
        <dc:format>image/svg+xml</dc:format>
        <dc:type
           rdf:resource="http://purl.org/dc/dcmitype/StillImage" />
        <dc:title></dc:title>
      </cc:Work>
    </rdf:RDF>
  </metadata>
  <g
     inkscape:label="Layer 1"
     inkscape:groupmode="layer"
     id="layer1"
     transform="translate(70.223505,-56.406762)">
    <path
       d=""
       id="path63"
       style="fill:#000000;stroke-width:0.264583" />
    <path
       id="path240"
       d="m -68.787497,261.35098 c -1.57684,-2.06734 -1.4755,4.55882 -1.40114,-91.62082 0.0647,-83.625618 0.0917,-88.120415 0.53673,-89.105993 0.74305,-1.645724 2.24279,-3.282609 3.7226,-4.063023 l 1.36501,-0.719876 15.61042,-0.132292 15.610419,-0.132292 0.155316,-1.5875 c 0.269076,-2.750292 1.705803,-4.801472 4.308682,-6.151397 1.304464,-0.676533 1.565687,-0.709265 6.767708,-0.848023 l 5.410875,-0.144329 1.069896,-1.5875 c 2.318136,-3.439623 5.8394709,-6.324756 9.5991019,-7.864829 1.964532,-0.804739 2.250594,-0.847421 6.35227096,-0.947801 3.84658204,-0.09414 4.49586904,-0.04445 6.21770904,0.475769 4.4890741,1.356295 8.2342911,4.067908 10.6837641,7.735263 0.706975,1.058483 1.326447,1.984045 1.376601,2.056806 0.05016,0.07276 2.552179,0.197451 5.560052,0.277091 5.418739,0.143473 5.481849,0.151878 6.885809,0.917125 2.48783,1.356016 4.27159,4.003787 4.27159,6.340625 0,0.454295 0.14288,0.968867 0.3175,1.143492 0.23954,0.239536 4.02992,0.3175 15.43587,0.3175 h 15.11837 l 1.62462,0.811832 c 1.92755,0.963209 3.2915,2.457817 3.9411,4.318626 0.44919,1.286711 0.47192,5.596168 0.47192,89.458086 0,95.45032 0.0969,89.11803 -1.39446,91.08281 l -0.65272,0.85989 H 1.0344389 -68.109237 Z M 66.404467,261.0116 c 1.29897,-0.69611 1.84355,-1.28013 2.37116,-2.54288 0.36344,-0.86984 0.40696,-10.31345 0.40696,-88.3035 0,-95.842395 0.12764,-88.305613 -1.5247,-90.030694 -1.42031,-1.482833 -1.83445,-1.515134 -19.4254,-1.515134 h -16.09157 v -2.364025 c 0,-2.646455 -0.23953,-3.512375 -1.2736,-4.604056 -1.25605,-1.326033 -1.43244,-1.35913 -7.986813,-1.498585 L 16.662795,70.020434 16.001337,68.68207 C 13.233742,63.082249 8.1949979,59.740569 1.9760489,59.380541 c -5.509139,-0.318935 -10.759531,2.07409 -13.9334569,6.350595 -0.670859,0.903906 -1.509406,2.268543 -1.863437,3.032528 l -0.643694,1.389062 h -5.809938 c -4.629865,0 -6.007767,0.08266 -6.783941,0.406966 -2.203828,0.920818 -2.963503,2.387276 -2.971938,5.736968 l -0.0058,2.307475 -16.602601,0.07377 c -16.59309,0.07374 -16.60325,0.07412 -17.70482,0.663101 -0.60621,0.324128 -1.38011,0.978972 -1.71979,1.455209 l -0.61759,0.865886 -0.0753,87.709369 c -0.0414,48.24016 -0.004,88.10683 0.0825,88.5926 0.21231,1.18809 2.10449,3.06103 3.45499,3.41984 0.70546,0.18743 21.36926,0.26237 64.8003209,0.23502 l 63.7645831,-0.0402 z m -129.996594,-2.82333 -0.57529,-0.61236 v -87.49388 c 0,-86.765416 0.004,-87.498237 0.52244,-88.016323 0.28734,-0.28734 0.79335,-0.588121 1.12447,-0.668401 0.33113,-0.08028 7.7458,-0.113075 16.47705,-0.07288 l 15.874999,0.07309 v 1.455209 1.455208 l -12.722389,0.06866 -12.72239,0.06866 -0.63907,0.680252 -0.63907,0.680254 -0.0675,78.452791 -0.0675,78.45279 0.9009,0.9009 0.9009,0.9009 H 1.5508329 58.326247 l 0.86407,-0.77204 0.86407,-0.77204 0.0676,-70.17554 0.0676,-70.17553 -0.62763,-0.82065 c -0.34519,-0.45136 -1.09,-1.30197 -1.65511,-1.890235 -0.56512,-0.58827 -3.5278,-3.917851 -6.58374,-7.399069 -3.05594,-3.481215 -5.87366,-6.690841 -6.26161,-7.132502 l -0.70535,-0.803019 -6.04152,-0.132291 -6.04152,-0.132292 v -1.455208 -1.455209 l 16.13958,-0.06632 c 15.60735,-0.06413 16.16747,-0.04928 16.98512,0.4504 0.58502,0.357515 0.89349,0.78555 1.00117,1.389234 0.0856,0.479886 0.12182,39.965301 0.0805,87.745371 l -0.0751,86.87286 -0.62462,0.50578 c -0.61116,0.49488 -2.00636,0.50579 -64.7106581,0.50579 H -63.016927 Z m 9.33692,-16.65108 c -0.0692,-0.18224 -0.0953,-35.03806 -0.0581,-77.45738 l 0.0677,-77.126043 12.07563,-0.06879 12.075637,-0.0688 0.09717,1.92088 c 0.08239,1.628868 0.214059,2.074079 0.866101,2.928662 1.569858,2.057488 -0.897528,1.902632 30.3156739,1.902632 H 29.098157 l 0.9986,-0.620855 c 1.33767,-0.831667 1.87385,-1.920856 2.03882,-4.141644 l 0.13758,-1.852084 h 4.10104 4.10104 l 0.13229,8.770006 c 0.12257,8.125476 0.16908,8.810626 0.63281,9.322686 0.48322,0.53358 0.77125,0.5551 8.33438,0.6227 l 7.83385,0.07 v 67.99792 67.99791 l -55.7690081,0.0668 c -44.4763459,0.0532 -55.7944859,-2.7e-4 -55.8948359,-0.26459 z m 41.575709,-6.12572 0.899583,-0.89958 v -9.00754 -9.00754 l -0.637741,-0.74236 -0.637744,-0.74235 -4.720069,-0.13229 c -2.596039,-0.0728 -10.118061,-0.0728 -16.715606,0 l -11.995532,0.13229 -0.63832,0.74235 -0.63832,0.74236 0.009,8.91494 c 0.01,9.52769 0.0462,9.81151 1.34266,10.53008 0.5049,0.27984 3.87691,0.35236 16.732232,0.35985 l 16.099907,0.009 z m -32.259379,-1.92049 c -0.0982,-0.0982 -0.17854,-3.73057 -0.17854,-8.07194 v -7.8934 h 9.921876 c 5.457031,0 9.921325,0.0893 9.92065,0.19844 -7.93e-4,0.10914 -0.334668,0.55562 -0.742209,0.99218 -0.827384,0.8863 -5.130197,6.70358 -5.811642,7.85718 -0.513527,0.86933 -0.853257,0.95549 -0.853257,0.21641 0,-0.85004 -0.618583,-2.91421 -0.873319,-2.91421 -0.375615,0 0.08105,5.10341 0.495605,5.53856 0.312639,0.32817 0.436665,0.31093 0.921837,-0.12814 0.710618,-0.6431 4.977377,-6.40446 6.995034,-9.44532 l 1.536107,-2.3151 h 4.594374 4.594373 l -0.07003,8.00364 -0.07003,8.00365 -15.101153,0.0683 c -8.305634,0.0376 -15.181496,-0.012 -15.279686,-0.11024 z m 92.954804,-17.25995 c 0,-1.41897 -0.0929,-1.85942 -0.41852,-1.98437 -0.54699,-0.2099 -53.6493171,-0.2099 -54.1963061,0 -0.319625,0.12265 -0.418515,0.54986 -0.418515,1.80798 0,0.90606 0.07937,1.72676 0.176389,1.82378 0.09701,0.097 12.479513,0.17639 27.5166691,0.17639 h 27.340283 z m -60.56924,-3.18296 0.773398,-0.77339 v -8.89704 c 0,-9.32716 -0.09169,-10.13223 -1.202478,-10.55848 -0.235567,-0.0904 -2.373173,-0.16435 -4.750237,-0.16435 -3.217283,0 -4.35255,-0.0845 -4.441709,-0.33073 -0.09582,-0.26459 -0.231801,-0.26459 -0.679918,0 -0.424686,0.25075 -3.307086,0.33073 -11.919179,0.33073 -6.247471,0 -11.551771,0.074 -11.787331,0.16435 -1.1108,0.42625 -1.20248,1.23132 -1.20248,10.55848 v 8.89704 l 0.7734,0.77339 0.77339,0.7734 h 16.444874 16.444874 z m -32.564104,-9.94222 v -8.06979 h 9.789584 c 5.384271,0 9.789584,0.0562 9.789584,0.12483 0,0.0687 -1.25925,1.82186 -2.798334,3.896 -1.539087,2.07413 -2.993507,4.10155 -3.232047,4.50537 -0.641078,1.08526 -0.988214,0.90362 -1.377953,-0.721 -0.192005,-0.80036 -0.456329,-1.4552 -0.587388,-1.4552 -0.283464,0 0.02432,5.05315 0.327951,5.38409 0.113392,0.1236 0.434001,0.15241 0.712459,0.064 0.534485,-0.16964 4.421424,-5.23065 7.181507,-9.35073 l 1.639538,-2.44739 h 4.623383 4.623385 v 8.06979 8.06979 h -15.345835 -15.345834 z m 93.078804,-4.5653 0.0778,-1.91946 -27.462142,0.0674 -27.4621381,0.0674 -0.08044,1.55787 c -0.04424,0.85683 -0.01799,1.72059 0.05832,1.91947 0.116314,0.30311 4.558449,0.35069 27.4648161,0.29421 l 27.326054,-0.0674 z m -60.594017,-7.9875 0.852715,-0.77883 v -9.00657 -9.00658 l -0.771419,-0.86407 -0.771419,-0.86407 -4.387956,-0.084 c -2.413376,-0.0462 -4.387956,-0.18716 -4.387956,-0.31331 0,-0.12614 2.03464,-0.26696 4.521422,-0.31292 l 4.52142,-0.0836 0.637955,-0.74236 0.637953,-0.74235 v -9.07769 c 0,-8.78303 -0.01781,-9.10032 -0.54837,-9.77483 -0.301604,-0.38343 -0.718323,-0.69714 -0.926042,-0.69714 -0.207719,0 -0.377671,-0.1786 -0.377671,-0.39688 0,-0.21828 0.101677,-0.39687 0.225949,-0.39687 0.124269,0 0.540988,-0.29197 0.926041,-0.64883 l 0.700093,-0.64882 v -9.1814 -9.1814 l -1.058333,-0.97705 c -0.582084,-0.53738 -1.058334,-1.05964 -1.058334,-1.16058 0,-0.10094 0.47625,-0.63658 1.058334,-1.1903 l 1.058333,-1.00677 v -9.05707 -9.05715 l -0.773398,-0.7734 -0.773396,-0.7734 h -4.401592 c -2.867023,0 -4.344583,-0.0922 -4.238073,-0.26458 0.08994,-0.14552 0.04446,-0.26458 -0.101063,-0.26458 -0.14552,0 -0.338166,0.11906 -0.428103,0.26458 -0.10504,0.16996 -4.363456,0.26458 -11.907111,0.26458 h -11.743586 l -0.74236,0.63829 -0.74236,0.63828 -0.0759,9.10325 c -0.075,8.99451 -0.069,9.11196 0.49777,9.83251 0.3155,0.4011 0.85566,0.8365 1.20035,0.96755 0.85348,0.32449 0.78779,0.94823 -0.15098,1.43369 -1.62067,0.83808 -1.60393,0.72871 -1.59966,10.45207 0.004,9.57123 0.047,9.89353 1.39807,10.54137 0.71902,0.34477 0.75261,0.84299 0.0568,0.84299 -0.19913,0 -0.60882,0.31371 -0.91043,0.69714 -0.53066,0.67463 -0.54837,0.99139 -0.54837,9.80993 v 9.1128 l 0.7734,0.7734 0.7734,0.77339 h 11.714936 c 7.557022,0 11.623975,0.091 11.458652,0.25629 -0.155074,0.15507 -4.782013,0.28568 -11.716483,0.33073 l -11.460195,0.0744 -0.78169,0.87508 -0.78169,0.87508 0.076,9.13827 0.076,9.13827 0.79375,0.63482 0.79375,0.63481 16.279053,0.001 16.279057,0.001 0.852715,-0.77884 z m -32.306247,-2.04123 c -0.0982,-0.0982 -0.17854,-3.67104 -0.17854,-7.93965 v -7.76111 h 9.689688 c 7.714679,0 9.636448,0.0674 9.428473,0.33073 -1.065829,1.34945 -5.131703,6.87144 -5.647201,7.66964 -0.351266,0.5439 -0.703406,0.99038 -0.782527,0.99218 -0.07912,0.002 -0.302344,-0.71109 -0.496046,-1.58422 -0.526619,-2.37376 -0.893159,-1.98501 -0.68603,0.7276 0.293505,3.84381 0.502325,4.00995 2.327868,1.85209 1.257858,-1.48684 5.500764,-7.35511 6.50421,-8.99584 l 0.606809,-0.99218 h 4.877149 4.87715 l -0.07008,7.87135 -0.07008,7.87136 -15.101153,0.0683 c -8.305634,0.0376 -15.18149,-0.012 -15.27969,-0.11024 z m -0.17854,-29.85597 v -8.06979 h 9.525001 c 5.23875,0 9.525,0.0686 9.525,0.15239 0,0.0838 -0.511275,0.82795 -1.136166,1.65364 -0.624893,0.82569 -2.005375,2.72165 -3.067738,4.21324 -1.062365,1.49159 -2.023102,2.71198 -2.134973,2.71198 -0.111869,0 -0.354433,-0.7117 -0.539028,-1.58155 -0.184594,-0.86986 -0.437266,-1.51874 -0.561493,-1.44196 -0.296164,0.18304 0.02633,4.91014 0.36422,5.33861 0.143444,0.1819 0.395055,0.32819 0.559136,0.32509 0.370573,-0.007 4.042611,-4.78876 6.395866,-8.32873 0.967372,-1.45521 1.920431,-2.73797 2.117908,-2.85057 0.197477,-0.11261 2.418384,-0.17214 4.935347,-0.1323 l 4.576297,0.0725 0.07003,8.00365 0.07003,8.00364 h -15.349724 -15.349713 z m 0,-21.69368 v -8.07194 h 9.392709 c 5.16599,0 9.392709,0.0729 9.392709,0.16194 0,0.0891 -0.930582,1.42852 -2.067957,2.97656 -1.137378,1.54804 -2.454471,3.38262 -2.926874,4.07684 -0.472403,0.69421 -0.950225,1.20578 -1.061826,1.1368 -0.111601,-0.069 -0.361339,-0.78579 -0.554969,-1.59294 -0.540668,-2.25376 -0.858882,-1.78292 -0.662236,0.97986 0.206394,2.8997 0.315875,3.37343 0.779597,3.37343 0.34529,0 2.220029,-2.21219 4.254368,-5.02016 0.577099,-0.79656 1.310656,-1.80859 1.630125,-2.24896 0.319468,-0.44037 1.021001,-1.48528 1.558959,-2.32202 l 0.97811,-1.52135 h 4.993357 4.993357 l -0.07003,8.00364 -0.07003,8.00365 -15.279688,0.0683 -15.279691,0.0683 z m 0.0622,-22.55788 0.0701,-7.87135 9.52373,-0.0696 c 5.238052,-0.0383 9.692035,-0.005 9.897741,0.074 0.289412,0.11105 0.22258,0.30633 -0.295445,0.86331 -0.913659,0.98234 -4.398058,5.6944 -5.479859,7.41057 -0.485072,0.76952 -0.931408,1.34967 -0.991855,1.28922 -0.06045,-0.0605 -0.329313,-0.86865 -0.597477,-1.796 -0.633632,-2.1912 -0.86325,-1.58308 -0.612145,1.6212 0.175146,2.23496 0.255709,2.52196 0.726906,2.58952 0.690142,0.099 2.537976,-2.25236 7.337232,-9.33639 0.88728,-1.30969 1.742334,-2.47032 1.900121,-2.57918 0.157787,-0.10886 2.251417,-0.16839 4.652511,-0.13229 l 4.365625,0.0656 0.07008,7.87135 0.07008,7.87135 h -15.353701 -15.353704 z m 92.938834,66.60885 v -1.71979 H 20.499244 -6.8851331 l -0.08117,1.42367 c -0.04464,0.78302 -0.01839,1.58725 0.05832,1.78717 0.117287,0.30565 4.489297,0.35278 27.4655511,0.29613 l 27.326059,-0.0674 z m 0.0783,-22.02779 0.0783,-1.78717 -27.462638,0.0674 -27.4626411,0.0674 -0.08059,1.56296 c -0.05522,1.07104 0.02805,1.63209 0.264583,1.7826 0.189847,0.1208 12.549083,0.19138 27.4649691,0.15684 l 27.119787,-0.0628 z m -3e-5,-17.59356 -0.0782,-1.78594 H 20.499244 -6.8851331 l -0.08117,1.42367 c -0.04464,0.78302 -0.01863,1.58669 0.05784,1.78594 0.116428,0.30341 4.591622,0.36226 27.5437861,0.36226 h 27.404764 z m 0.0541,-17.63263 c 0,-1.29834 -0.0973,-1.72881 -0.41852,-1.85209 -0.54699,-0.20989 -53.6493161,-0.20989 -54.1963051,0 -0.321241,0.12328 -0.418515,0.55375 -0.418515,1.85209 v 1.69148 H 20.499315 48.015987 Z m -4.8507,-20.7099 c -0.24873,-0.24873 -0.22102,-15.698618 0.0281,-15.698618 0.1125,0 1.27236,1.220391 2.57748,2.711979 2.16912,2.479043 9.80629,11.151379 11.06758,12.567709 l 0.53014,0.59532 h -7.01348 c -3.85741,0 -7.09286,-0.0794 -7.18987,-0.17639 z M -26.815046,90.442444 c -0.563888,-0.600234 -0.575286,-0.767403 -0.575286,-8.437356 0,-7.307814 0.0334,-7.866272 0.505378,-8.449613 0.502491,-0.621057 0.544972,-0.62538 7.438025,-0.756916 l 6.932647,-0.132291 0.579956,-1.5875 c 0.779389,-2.133407 1.802821,-3.688338 3.5341489,-5.369541 6.005997,-5.83212 16.273778,-4.755065 20.9210021,2.194541 0.68117,1.018646 1.468104,2.531267 1.748737,3.36138 l 0.510244,1.509297 6.984506,0.0782 c 6.977945,0.07813 6.984975,0.07879 7.489935,0.702827 0.47136,0.582531 0.50542,1.138351 0.50542,8.247929 v 7.623308 l -0.68497,0.814048 -0.684983,0.814052 H 1.0749779 -26.239757 Z"
       style="fill:#000000;stroke-width:0.264583" />
  </g>
</svg>
